G04 start of page 6 for group -4063 idx -4063 *
G04 Title: (unknown), componentmask *
G04 Creator: pcb 20140316 *
G04 CreationDate: Wed 29 Apr 2020 12:31:51 AM GMT UTC *
G04 For: railfan *
G04 Format: Gerber/RS-274X *
G04 PCB-Dimensions (mil): 6000.00 4000.00 *
G04 PCB-Coordinate-Origin: lower left *
%MOIN*%
%FSLAX25Y25*%
%LNTOPMASK*%
%ADD63R,0.0300X0.0300*%
%ADD62C,0.0600*%
%ADD61R,0.0690X0.0690*%
%ADD60R,0.0572X0.0572*%
%ADD59R,0.0610X0.0610*%
%ADD58C,0.0660*%
%ADD57C,0.0860*%
%ADD56C,0.0960*%
%ADD55C,0.0001*%
%ADD54C,0.1110*%
G54D54*X292000Y45856D03*
G54D55*G36*
X299200Y340800D02*Y331200D01*
X308800D01*
Y340800D01*
X299200D01*
G37*
G54D56*X304000Y306000D03*
X244000Y336000D03*
X224000D03*
X204000D03*
Y306000D03*
X224000D03*
X244000D03*
G54D55*G36*
X239200Y374800D02*Y365200D01*
X248800D01*
Y374800D01*
X239200D01*
G37*
G54D56*X224000Y370000D03*
X204000D03*
G54D55*G36*
X425700Y35300D02*Y26700D01*
X434300D01*
Y35300D01*
X425700D01*
G37*
G54D57*X450000Y31000D03*
G54D54*X300000Y32000D03*
X316000Y32000D03*
X308000Y45856D03*
X284000Y32000D03*
X292000Y18144D03*
X308000D03*
G54D55*G36*
X511700Y149800D02*Y143200D01*
X518300D01*
Y149800D01*
X511700D01*
G37*
G54D58*X525000Y56500D03*
X585000D03*
Y146500D03*
G54D54*X550000Y250000D03*
X542000Y263856D03*
X534000Y250000D03*
X542000Y236144D03*
X558000Y263856D03*
X558000Y236144D03*
X566000Y250000D03*
G54D55*G36*
X565200Y375300D02*Y365700D01*
X574800D01*
Y375300D01*
X565200D01*
G37*
G54D56*X550000Y370500D03*
X530000D03*
G54D55*G36*
X481200Y341300D02*Y331700D01*
X490800D01*
Y341300D01*
X481200D01*
G37*
G54D56*X486000Y306500D03*
X426000Y336500D03*
Y306500D03*
G54D55*G36*
X421200Y375300D02*Y365700D01*
X430800D01*
Y375300D01*
X421200D01*
G37*
G54D56*X406000Y336500D03*
X386000D03*
Y306500D03*
X406000D03*
Y370500D03*
X386000D03*
G54D54*X50000Y250000D03*
X58000Y263856D03*
X42000D03*
X34000Y250000D03*
X42000Y236144D03*
X58000D03*
X66000Y250000D03*
G54D55*G36*
X117200Y340300D02*Y330700D01*
X126800D01*
Y340300D01*
X117200D01*
G37*
G54D56*X122000Y305500D03*
X62000Y335500D03*
Y305500D03*
G54D55*G36*
X57200Y374300D02*Y364700D01*
X66800D01*
Y374300D01*
X57200D01*
G37*
G54D56*X42000Y335500D03*
X22000D03*
Y305500D03*
X42000D03*
Y369500D03*
X22000D03*
G54D55*G36*
X50700Y44300D02*Y35700D01*
X59300D01*
Y44300D01*
X50700D01*
G37*
G36*
X10700D02*Y35700D01*
X19300D01*
Y44300D01*
X10700D01*
G37*
G54D57*X35000Y40000D03*
X75000D03*
G54D55*G36*
X130700Y44300D02*Y35700D01*
X139300D01*
Y44300D01*
X130700D01*
G37*
G36*
X90700D02*Y35700D01*
X99300D01*
Y44300D01*
X90700D01*
G37*
G54D57*X115000Y40000D03*
X155000D03*
G54D55*G36*
X210700Y44300D02*Y35700D01*
X219300D01*
Y44300D01*
X210700D01*
G37*
G54D57*X235000Y40000D03*
G54D55*G36*
X170700Y44300D02*Y35700D01*
X179300D01*
Y44300D01*
X170700D01*
G37*
G54D57*X195000Y40000D03*
G54D59*X327000Y327500D02*X329000D01*
X327000Y314500D02*X329000D01*
X145000Y327000D02*X147000D01*
X145000Y314000D02*X147000D01*
G54D60*X498607Y20457D02*X499393D01*
X498607Y27543D02*X499393D01*
G54D61*X525000Y17150D02*Y10851D01*
Y36835D02*Y30536D01*
G54D60*X468457Y38393D02*Y37607D01*
X475543Y38393D02*Y37607D01*
Y28893D02*Y28107D01*
X468457Y28893D02*Y28107D01*
G54D62*X338600Y12500D03*
G54D63*X340100Y14000D02*Y11000D01*
G54D62*X338600Y26500D03*
G54D63*X340100Y28000D02*Y25000D01*
G54D62*X345400Y12500D03*
G54D63*X343900Y14000D02*Y11000D01*
G54D62*X345400Y26500D03*
G54D63*X343900Y28000D02*Y25000D01*
G54D62*X338600Y40500D03*
G54D63*X340100Y42000D02*Y39000D01*
G54D62*X338600Y54500D03*
G54D63*X340100Y56000D02*Y53000D01*
G54D62*X345400Y40500D03*
G54D63*X343900Y42000D02*Y39000D01*
G54D62*X345400Y54500D03*
G54D63*X343900Y56000D02*Y53000D01*
X223100Y104000D02*Y101000D01*
G54D62*X228400Y102500D03*
G54D63*X226900Y104000D02*Y101000D01*
G54D60*X181457Y81893D02*Y81107D01*
X188543Y81893D02*Y81107D01*
G54D62*X88600Y229000D03*
G54D63*X90100Y230500D02*Y227500D01*
G54D62*X95400Y229000D03*
G54D63*X93900Y230500D02*Y227500D01*
G54D62*X88600Y243000D03*
G54D63*X90100Y244500D02*Y241500D01*
G54D62*X95400Y243000D03*
G54D63*X93900Y244500D02*Y241500D01*
G54D62*X88600Y271000D03*
G54D63*X90100Y272500D02*Y269500D01*
G54D62*X95400Y271000D03*
G54D63*X93900Y272500D02*Y269500D01*
G54D62*X88600Y257000D03*
G54D63*X90100Y258500D02*Y255500D01*
G54D62*X95400Y257000D03*
G54D63*X93900Y258500D02*Y255500D01*
G54D59*X509000Y328000D02*X511000D01*
X509000Y315000D02*X511000D01*
G54D62*X511400Y229000D03*
G54D63*X509900Y230500D02*Y227500D01*
G54D62*X511400Y271000D03*
G54D63*X509900Y272500D02*Y269500D01*
G54D62*X511400Y257000D03*
G54D63*X509900Y258500D02*Y255500D01*
G54D62*X504600Y229000D03*
G54D63*X506100Y230500D02*Y227500D01*
G54D62*X504600Y271000D03*
G54D63*X506100Y272500D02*Y269500D01*
G54D62*X504600Y257000D03*
G54D63*X506100Y258500D02*Y255500D01*
G54D62*X511400Y243000D03*
G54D63*X509900Y244500D02*Y241500D01*
G54D62*X504600Y243000D03*
G54D63*X506100Y244500D02*Y241500D01*
G54D60*X21457Y81893D02*Y81107D01*
X28543Y81893D02*Y81107D01*
Y70893D02*Y70107D01*
X21457Y70893D02*Y70107D01*
Y92393D02*Y91607D01*
X28543Y92393D02*Y91607D01*
G54D62*X21600Y102500D03*
G54D63*X23100Y104000D02*Y101000D01*
X26900Y104000D02*Y101000D01*
G54D62*X28400Y102500D03*
G54D60*X61457Y92393D02*Y91607D01*
Y70893D02*Y70107D01*
G54D62*X61600Y102500D03*
G54D63*X63100Y104000D02*Y101000D01*
G54D60*X68543Y92393D02*Y91607D01*
Y70893D02*Y70107D01*
G54D62*X68400Y102500D03*
G54D63*X66900Y104000D02*Y101000D01*
G54D60*X61457Y81893D02*Y81107D01*
X68543Y81893D02*Y81107D01*
X108543Y70893D02*Y70107D01*
X101457Y70893D02*Y70107D01*
G54D62*X108400Y102500D03*
G54D60*X101457Y92393D02*Y91607D01*
X108543Y92393D02*Y91607D01*
G54D62*X101600Y102500D03*
G54D63*X103100Y104000D02*Y101000D01*
X106900Y104000D02*Y101000D01*
G54D60*X101457Y81893D02*Y81107D01*
X108543Y81893D02*Y81107D01*
X141457Y81893D02*Y81107D01*
X148543Y81893D02*Y81107D01*
Y70893D02*Y70107D01*
X141457Y70893D02*Y70107D01*
Y92393D02*Y91607D01*
X148543Y92393D02*Y91607D01*
G54D62*X141600Y102500D03*
G54D63*X143100Y104000D02*Y101000D01*
X146900Y104000D02*Y101000D01*
G54D62*X148400Y102500D03*
G54D60*X188543Y70893D02*Y70107D01*
X181457Y70893D02*Y70107D01*
Y92393D02*Y91607D01*
X188543Y92393D02*Y91607D01*
G54D62*X181600Y102500D03*
G54D63*X183100Y104000D02*Y101000D01*
G54D62*X188400Y102500D03*
G54D63*X186900Y104000D02*Y101000D01*
G54D60*X221457Y81893D02*Y81107D01*
X228543Y81893D02*Y81107D01*
Y70893D02*Y70107D01*
X221457Y70893D02*Y70107D01*
Y92393D02*Y91607D01*
X228543Y92393D02*Y91607D01*
G54D62*X221600Y102500D03*
M02*
