G04 start of page 2 for group 0 idx 0 *
G04 Title: (unknown), top *
G04 Creator: pcb 20140316 *
G04 CreationDate: Wed 29 Apr 2020 12:31:51 AM GMT UTC *
G04 For: railfan *
G04 Format: Gerber/RS-274X *
G04 PCB-Dimensions (mil): 6000.00 4000.00 *
G04 PCB-Coordinate-Origin: lower left *
%MOIN*%
%FSLAX25Y25*%
%LNTOP*%
%ADD31C,0.0480*%
%ADD30C,0.0520*%
%ADD29C,0.0750*%
%ADD28C,0.0200*%
%ADD27C,0.0360*%
%ADD26R,0.0300X0.0300*%
%ADD25R,0.0630X0.0630*%
%ADD24R,0.0512X0.0512*%
%ADD23R,0.0550X0.0550*%
%ADD22C,0.0600*%
%ADD21C,0.0800*%
%ADD20C,0.0900*%
%ADD19C,0.1050*%
%ADD18C,0.0550*%
%ADD17C,0.0350*%
%ADD16C,0.0300*%
%ADD15C,0.0250*%
%ADD14C,0.0150*%
%ADD13C,0.0500*%
%ADD12C,0.0100*%
%ADD11C,0.0001*%
G54D11*G36*
X238500Y387500D02*X263500D01*
Y296000D01*
X238500D01*
Y387500D01*
G37*
G36*
X218500Y296000D02*Y346000D01*
X247500D01*
Y296000D01*
X218500D01*
G37*
G36*
X184500Y387500D02*X209500D01*
Y296000D01*
X184500D01*
Y387500D01*
G37*
G36*
X420500Y388000D02*X445500D01*
Y296500D01*
X420500D01*
Y388000D01*
G37*
G36*
X400500Y296500D02*Y346500D01*
X429500D01*
Y296500D01*
X400500D01*
G37*
G36*
X366500Y388000D02*X391500D01*
Y296500D01*
X366500D01*
Y388000D01*
G37*
G36*
X56500Y387000D02*X81500D01*
Y295500D01*
X56500D01*
Y387000D01*
G37*
G36*
X36500Y295500D02*Y345500D01*
X65500D01*
Y295500D01*
X36500D01*
G37*
G36*
X2500Y387000D02*X27500D01*
Y295500D01*
X2500D01*
Y387000D01*
G37*
G36*
X491500Y23000D02*X595000D01*
Y6500D01*
X491500D01*
Y23000D01*
G37*
G36*
X442500Y6500D02*Y23000D01*
X494000D01*
Y6500D01*
X442500D01*
G37*
G36*
X595000D02*X588284D01*
Y54369D01*
X588287Y54370D01*
X588355Y54409D01*
X588416Y54458D01*
X588469Y54517D01*
X588511Y54583D01*
X588674Y54908D01*
X588803Y55248D01*
X588901Y55598D01*
X588967Y55956D01*
X589000Y56318D01*
Y56682D01*
X588967Y57044D01*
X588901Y57402D01*
X588803Y57752D01*
X588674Y58092D01*
X588515Y58419D01*
X588472Y58485D01*
X588419Y58544D01*
X588357Y58594D01*
X588288Y58633D01*
X588284Y58635D01*
Y66500D01*
X595000D01*
Y6500D01*
G37*
G36*
X588284D02*X585002D01*
Y52500D01*
X585182D01*
X585544Y52533D01*
X585902Y52599D01*
X586252Y52697D01*
X586592Y52826D01*
X586919Y52985D01*
X586985Y53028D01*
X587044Y53081D01*
X587094Y53143D01*
X587133Y53212D01*
X587161Y53286D01*
X587177Y53363D01*
X587181Y53442D01*
X587173Y53521D01*
X587152Y53597D01*
X587120Y53670D01*
X587077Y53736D01*
X587024Y53795D01*
X586962Y53844D01*
X586893Y53884D01*
X586819Y53912D01*
X586742Y53928D01*
X586663Y53932D01*
X586584Y53924D01*
X586507Y53903D01*
X586436Y53870D01*
X586193Y53747D01*
X585938Y53650D01*
X585676Y53577D01*
X585408Y53528D01*
X585136Y53503D01*
X585002D01*
Y59497D01*
X585136D01*
X585408Y59472D01*
X585676Y59423D01*
X585938Y59350D01*
X586193Y59253D01*
X586437Y59133D01*
X586509Y59100D01*
X586584Y59079D01*
X586663Y59071D01*
X586741Y59075D01*
X586818Y59091D01*
X586892Y59119D01*
X586960Y59158D01*
X587021Y59207D01*
X587074Y59266D01*
X587117Y59332D01*
X587149Y59404D01*
X587170Y59480D01*
X587178Y59558D01*
X587174Y59636D01*
X587158Y59713D01*
X587130Y59787D01*
X587091Y59855D01*
X587042Y59916D01*
X586983Y59969D01*
X586917Y60011D01*
X586592Y60174D01*
X586252Y60303D01*
X585902Y60401D01*
X585544Y60467D01*
X585182Y60500D01*
X585002D01*
Y66500D01*
X588284D01*
Y58635D01*
X588214Y58661D01*
X588137Y58677D01*
X588058Y58681D01*
X587979Y58673D01*
X587903Y58652D01*
X587830Y58620D01*
X587764Y58577D01*
X587705Y58524D01*
X587656Y58462D01*
X587616Y58393D01*
X587588Y58319D01*
X587572Y58242D01*
X587568Y58163D01*
X587576Y58084D01*
X587597Y58007D01*
X587630Y57936D01*
X587753Y57693D01*
X587850Y57438D01*
X587923Y57176D01*
X587972Y56908D01*
X587997Y56636D01*
Y56364D01*
X587972Y56092D01*
X587923Y55824D01*
X587850Y55562D01*
X587753Y55307D01*
X587633Y55063D01*
X587600Y54991D01*
X587579Y54916D01*
X587571Y54837D01*
X587575Y54759D01*
X587591Y54682D01*
X587619Y54608D01*
X587658Y54540D01*
X587707Y54479D01*
X587766Y54426D01*
X587832Y54383D01*
X587904Y54351D01*
X587980Y54330D01*
X588058Y54322D01*
X588136Y54326D01*
X588213Y54342D01*
X588284Y54369D01*
Y6500D01*
G37*
G36*
X585002D02*X581716D01*
Y54365D01*
X581786Y54339D01*
X581863Y54323D01*
X581942Y54319D01*
X582021Y54327D01*
X582097Y54348D01*
X582170Y54380D01*
X582236Y54423D01*
X582295Y54476D01*
X582344Y54538D01*
X582384Y54607D01*
X582412Y54681D01*
X582428Y54758D01*
X582432Y54837D01*
X582424Y54916D01*
X582403Y54993D01*
X582370Y55064D01*
X582247Y55307D01*
X582150Y55562D01*
X582077Y55824D01*
X582028Y56092D01*
X582003Y56364D01*
Y56636D01*
X582028Y56908D01*
X582077Y57176D01*
X582150Y57438D01*
X582247Y57693D01*
X582367Y57937D01*
X582400Y58009D01*
X582421Y58085D01*
X582429Y58163D01*
X582425Y58241D01*
X582409Y58318D01*
X582381Y58392D01*
X582342Y58460D01*
X582293Y58521D01*
X582234Y58574D01*
X582168Y58617D01*
X582096Y58649D01*
X582020Y58670D01*
X581942Y58678D01*
X581864Y58674D01*
X581787Y58658D01*
X581716Y58631D01*
Y66500D01*
X585002D01*
Y60500D01*
X584818D01*
X584456Y60467D01*
X584098Y60401D01*
X583748Y60303D01*
X583408Y60174D01*
X583081Y60015D01*
X583015Y59972D01*
X582956Y59919D01*
X582906Y59857D01*
X582867Y59788D01*
X582839Y59714D01*
X582823Y59637D01*
X582819Y59558D01*
X582827Y59479D01*
X582848Y59403D01*
X582880Y59330D01*
X582923Y59264D01*
X582976Y59205D01*
X583038Y59156D01*
X583107Y59116D01*
X583181Y59088D01*
X583258Y59072D01*
X583337Y59068D01*
X583416Y59076D01*
X583493Y59097D01*
X583564Y59130D01*
X583807Y59253D01*
X584062Y59350D01*
X584324Y59423D01*
X584592Y59472D01*
X584864Y59497D01*
X585002D01*
Y53503D01*
X584864D01*
X584592Y53528D01*
X584324Y53577D01*
X584062Y53650D01*
X583807Y53747D01*
X583563Y53867D01*
X583491Y53900D01*
X583415Y53921D01*
X583337Y53929D01*
X583259Y53925D01*
X583182Y53909D01*
X583108Y53881D01*
X583040Y53842D01*
X582979Y53793D01*
X582926Y53734D01*
X582883Y53668D01*
X582851Y53596D01*
X582830Y53520D01*
X582822Y53442D01*
X582826Y53364D01*
X582842Y53287D01*
X582870Y53213D01*
X582909Y53145D01*
X582958Y53084D01*
X583017Y53031D01*
X583083Y52989D01*
X583408Y52826D01*
X583748Y52697D01*
X584098Y52599D01*
X584456Y52533D01*
X584818Y52500D01*
X585002D01*
Y6500D01*
G37*
G36*
X581716D02*X575000D01*
Y66500D01*
X581716D01*
Y58631D01*
X581713Y58630D01*
X581645Y58591D01*
X581584Y58542D01*
X581531Y58483D01*
X581489Y58417D01*
X581326Y58092D01*
X581197Y57752D01*
X581099Y57402D01*
X581033Y57044D01*
X581000Y56682D01*
Y56318D01*
X581033Y55956D01*
X581099Y55598D01*
X581197Y55248D01*
X581326Y54908D01*
X581485Y54581D01*
X581528Y54515D01*
X581581Y54456D01*
X581643Y54406D01*
X581712Y54367D01*
X581716Y54365D01*
Y6500D01*
G37*
G36*
X528284Y66500D02*X535000D01*
Y25000D01*
X528284D01*
Y54369D01*
X528287Y54370D01*
X528355Y54409D01*
X528416Y54458D01*
X528469Y54517D01*
X528511Y54583D01*
X528674Y54908D01*
X528803Y55248D01*
X528901Y55598D01*
X528967Y55956D01*
X529000Y56318D01*
Y56682D01*
X528967Y57044D01*
X528901Y57402D01*
X528803Y57752D01*
X528674Y58092D01*
X528515Y58419D01*
X528472Y58485D01*
X528419Y58544D01*
X528357Y58594D01*
X528288Y58633D01*
X528284Y58635D01*
Y66500D01*
G37*
G36*
X525002D02*X528284D01*
Y58635D01*
X528214Y58661D01*
X528137Y58677D01*
X528058Y58681D01*
X527979Y58673D01*
X527903Y58652D01*
X527830Y58620D01*
X527764Y58577D01*
X527705Y58524D01*
X527656Y58462D01*
X527616Y58393D01*
X527588Y58319D01*
X527572Y58242D01*
X527568Y58163D01*
X527576Y58084D01*
X527597Y58007D01*
X527630Y57936D01*
X527753Y57693D01*
X527850Y57438D01*
X527923Y57176D01*
X527972Y56908D01*
X527997Y56636D01*
Y56364D01*
X527972Y56092D01*
X527923Y55824D01*
X527850Y55562D01*
X527753Y55307D01*
X527633Y55063D01*
X527600Y54991D01*
X527579Y54916D01*
X527571Y54837D01*
X527575Y54759D01*
X527591Y54682D01*
X527619Y54608D01*
X527658Y54540D01*
X527707Y54479D01*
X527766Y54426D01*
X527832Y54383D01*
X527904Y54351D01*
X527980Y54330D01*
X528058Y54322D01*
X528136Y54326D01*
X528213Y54342D01*
X528284Y54369D01*
Y25000D01*
X525002D01*
Y52500D01*
X525182D01*
X525544Y52533D01*
X525902Y52599D01*
X526252Y52697D01*
X526592Y52826D01*
X526919Y52985D01*
X526985Y53028D01*
X527044Y53081D01*
X527094Y53143D01*
X527133Y53212D01*
X527161Y53286D01*
X527177Y53363D01*
X527181Y53442D01*
X527173Y53521D01*
X527152Y53597D01*
X527120Y53670D01*
X527077Y53736D01*
X527024Y53795D01*
X526962Y53844D01*
X526893Y53884D01*
X526819Y53912D01*
X526742Y53928D01*
X526663Y53932D01*
X526584Y53924D01*
X526507Y53903D01*
X526436Y53870D01*
X526193Y53747D01*
X525938Y53650D01*
X525676Y53577D01*
X525408Y53528D01*
X525136Y53503D01*
X525002D01*
Y59497D01*
X525136D01*
X525408Y59472D01*
X525676Y59423D01*
X525938Y59350D01*
X526193Y59253D01*
X526437Y59133D01*
X526509Y59100D01*
X526584Y59079D01*
X526663Y59071D01*
X526741Y59075D01*
X526818Y59091D01*
X526892Y59119D01*
X526960Y59158D01*
X527021Y59207D01*
X527074Y59266D01*
X527117Y59332D01*
X527149Y59404D01*
X527170Y59480D01*
X527178Y59558D01*
X527174Y59636D01*
X527158Y59713D01*
X527130Y59787D01*
X527091Y59855D01*
X527042Y59916D01*
X526983Y59969D01*
X526917Y60011D01*
X526592Y60174D01*
X526252Y60303D01*
X525902Y60401D01*
X525544Y60467D01*
X525182Y60500D01*
X525002D01*
Y66500D01*
G37*
G36*
X521716D02*X525002D01*
Y60500D01*
X524818D01*
X524456Y60467D01*
X524098Y60401D01*
X523748Y60303D01*
X523408Y60174D01*
X523081Y60015D01*
X523015Y59972D01*
X522956Y59919D01*
X522906Y59857D01*
X522867Y59788D01*
X522839Y59714D01*
X522823Y59637D01*
X522819Y59558D01*
X522827Y59479D01*
X522848Y59403D01*
X522880Y59330D01*
X522923Y59264D01*
X522976Y59205D01*
X523038Y59156D01*
X523107Y59116D01*
X523181Y59088D01*
X523258Y59072D01*
X523337Y59068D01*
X523416Y59076D01*
X523493Y59097D01*
X523564Y59130D01*
X523807Y59253D01*
X524062Y59350D01*
X524324Y59423D01*
X524592Y59472D01*
X524864Y59497D01*
X525002D01*
Y53503D01*
X524864D01*
X524592Y53528D01*
X524324Y53577D01*
X524062Y53650D01*
X523807Y53747D01*
X523563Y53867D01*
X523491Y53900D01*
X523415Y53921D01*
X523337Y53929D01*
X523259Y53925D01*
X523182Y53909D01*
X523108Y53881D01*
X523040Y53842D01*
X522979Y53793D01*
X522926Y53734D01*
X522883Y53668D01*
X522851Y53596D01*
X522830Y53520D01*
X522822Y53442D01*
X522826Y53364D01*
X522842Y53287D01*
X522870Y53213D01*
X522909Y53145D01*
X522958Y53084D01*
X523017Y53031D01*
X523083Y52989D01*
X523408Y52826D01*
X523748Y52697D01*
X524098Y52599D01*
X524456Y52533D01*
X524818Y52500D01*
X525002D01*
Y25000D01*
X521716D01*
Y54365D01*
X521786Y54339D01*
X521863Y54323D01*
X521942Y54319D01*
X522021Y54327D01*
X522097Y54348D01*
X522170Y54380D01*
X522236Y54423D01*
X522295Y54476D01*
X522344Y54538D01*
X522384Y54607D01*
X522412Y54681D01*
X522428Y54758D01*
X522432Y54837D01*
X522424Y54916D01*
X522403Y54993D01*
X522370Y55064D01*
X522247Y55307D01*
X522150Y55562D01*
X522077Y55824D01*
X522028Y56092D01*
X522003Y56364D01*
Y56636D01*
X522028Y56908D01*
X522077Y57176D01*
X522150Y57438D01*
X522247Y57693D01*
X522367Y57937D01*
X522400Y58009D01*
X522421Y58085D01*
X522429Y58163D01*
X522425Y58241D01*
X522409Y58318D01*
X522381Y58392D01*
X522342Y58460D01*
X522293Y58521D01*
X522234Y58574D01*
X522168Y58617D01*
X522096Y58649D01*
X522020Y58670D01*
X521942Y58678D01*
X521864Y58674D01*
X521787Y58658D01*
X521716Y58631D01*
Y66500D01*
G37*
G36*
X491500Y25000D02*Y66500D01*
X521716D01*
Y58631D01*
X521713Y58630D01*
X521645Y58591D01*
X521584Y58542D01*
X521531Y58483D01*
X521489Y58417D01*
X521326Y58092D01*
X521197Y57752D01*
X521099Y57402D01*
X521033Y57044D01*
X521000Y56682D01*
Y56318D01*
X521033Y55956D01*
X521099Y55598D01*
X521197Y55248D01*
X521326Y54908D01*
X521485Y54581D01*
X521528Y54515D01*
X521581Y54456D01*
X521643Y54406D01*
X521712Y54367D01*
X521716Y54365D01*
Y25000D01*
X491500D01*
G37*
G36*
X454493Y38500D02*X457500D01*
Y6500D01*
X454493D01*
Y28145D01*
X454578Y28181D01*
X454679Y28243D01*
X454769Y28319D01*
X454845Y28409D01*
X454905Y28511D01*
X455122Y28980D01*
X455289Y29469D01*
X455409Y29972D01*
X455482Y30484D01*
X455506Y31000D01*
X455482Y31516D01*
X455409Y32028D01*
X455289Y32531D01*
X455122Y33020D01*
X454910Y33492D01*
X454849Y33593D01*
X454772Y33684D01*
X454682Y33761D01*
X454580Y33823D01*
X454493Y33860D01*
Y38500D01*
G37*
G36*
X450002D02*X454493D01*
Y33860D01*
X454471Y33869D01*
X454355Y33897D01*
X454237Y33906D01*
X454119Y33897D01*
X454003Y33870D01*
X453893Y33824D01*
X453792Y33762D01*
X453702Y33686D01*
X453624Y33595D01*
X453562Y33494D01*
X453516Y33385D01*
X453489Y33269D01*
X453479Y33151D01*
X453488Y33032D01*
X453516Y32917D01*
X453563Y32808D01*
X453721Y32468D01*
X453842Y32112D01*
X453930Y31747D01*
X453982Y31375D01*
X454000Y31000D01*
X453982Y30625D01*
X453930Y30253D01*
X453842Y29888D01*
X453721Y29532D01*
X453567Y29190D01*
X453520Y29082D01*
X453493Y28967D01*
X453483Y28849D01*
X453493Y28732D01*
X453521Y28617D01*
X453566Y28508D01*
X453628Y28407D01*
X453705Y28318D01*
X453795Y28241D01*
X453895Y28180D01*
X454004Y28135D01*
X454119Y28107D01*
X454237Y28098D01*
X454355Y28108D01*
X454469Y28135D01*
X454493Y28145D01*
Y6500D01*
X450002D01*
Y25494D01*
X450516Y25518D01*
X451028Y25591D01*
X451531Y25711D01*
X452020Y25878D01*
X452492Y26090D01*
X452593Y26151D01*
X452684Y26228D01*
X452761Y26318D01*
X452823Y26420D01*
X452869Y26529D01*
X452897Y26645D01*
X452906Y26763D01*
X452897Y26881D01*
X452870Y26997D01*
X452824Y27107D01*
X452762Y27208D01*
X452686Y27298D01*
X452595Y27376D01*
X452494Y27438D01*
X452385Y27484D01*
X452269Y27511D01*
X452151Y27521D01*
X452032Y27512D01*
X451917Y27484D01*
X451808Y27437D01*
X451468Y27279D01*
X451112Y27158D01*
X450747Y27070D01*
X450375Y27018D01*
X450002Y27000D01*
Y35000D01*
X450375Y34982D01*
X450747Y34930D01*
X451112Y34842D01*
X451468Y34721D01*
X451810Y34567D01*
X451918Y34520D01*
X452033Y34493D01*
X452151Y34483D01*
X452268Y34493D01*
X452383Y34521D01*
X452492Y34566D01*
X452593Y34628D01*
X452682Y34705D01*
X452759Y34795D01*
X452820Y34895D01*
X452865Y35004D01*
X452893Y35119D01*
X452902Y35237D01*
X452892Y35355D01*
X452865Y35469D01*
X452819Y35578D01*
X452757Y35679D01*
X452681Y35769D01*
X452591Y35845D01*
X452489Y35905D01*
X452020Y36122D01*
X451531Y36289D01*
X451028Y36409D01*
X450516Y36482D01*
X450002Y36506D01*
Y38500D01*
G37*
G36*
X445507D02*X450002D01*
Y36506D01*
X450000Y36506D01*
X449484Y36482D01*
X448972Y36409D01*
X448469Y36289D01*
X447980Y36122D01*
X447508Y35910D01*
X447407Y35849D01*
X447316Y35772D01*
X447239Y35682D01*
X447177Y35580D01*
X447131Y35471D01*
X447103Y35355D01*
X447094Y35237D01*
X447103Y35119D01*
X447130Y35003D01*
X447176Y34893D01*
X447238Y34792D01*
X447314Y34702D01*
X447405Y34624D01*
X447506Y34562D01*
X447615Y34516D01*
X447731Y34489D01*
X447849Y34479D01*
X447968Y34488D01*
X448083Y34516D01*
X448192Y34563D01*
X448532Y34721D01*
X448888Y34842D01*
X449253Y34930D01*
X449625Y34982D01*
X450000Y35000D01*
X450002Y35000D01*
Y27000D01*
X450000Y27000D01*
X449625Y27018D01*
X449253Y27070D01*
X448888Y27158D01*
X448532Y27279D01*
X448190Y27433D01*
X448082Y27480D01*
X447967Y27507D01*
X447849Y27517D01*
X447732Y27507D01*
X447617Y27479D01*
X447508Y27434D01*
X447407Y27372D01*
X447318Y27295D01*
X447241Y27205D01*
X447180Y27105D01*
X447135Y26996D01*
X447107Y26881D01*
X447098Y26763D01*
X447108Y26645D01*
X447135Y26531D01*
X447181Y26422D01*
X447243Y26321D01*
X447319Y26231D01*
X447409Y26155D01*
X447511Y26095D01*
X447980Y25878D01*
X448469Y25711D01*
X448972Y25591D01*
X449484Y25518D01*
X450000Y25494D01*
X450002Y25494D01*
Y6500D01*
X445507D01*
Y28140D01*
X445529Y28131D01*
X445645Y28103D01*
X445763Y28094D01*
X445881Y28103D01*
X445997Y28130D01*
X446107Y28176D01*
X446208Y28238D01*
X446298Y28314D01*
X446376Y28405D01*
X446438Y28506D01*
X446484Y28615D01*
X446511Y28731D01*
X446521Y28849D01*
X446512Y28968D01*
X446484Y29083D01*
X446437Y29192D01*
X446279Y29532D01*
X446158Y29888D01*
X446070Y30253D01*
X446018Y30625D01*
X446000Y31000D01*
X446018Y31375D01*
X446070Y31747D01*
X446158Y32112D01*
X446279Y32468D01*
X446433Y32810D01*
X446480Y32918D01*
X446507Y33033D01*
X446517Y33151D01*
X446507Y33268D01*
X446479Y33383D01*
X446434Y33492D01*
X446372Y33593D01*
X446295Y33682D01*
X446205Y33759D01*
X446105Y33820D01*
X445996Y33865D01*
X445881Y33893D01*
X445763Y33902D01*
X445645Y33892D01*
X445531Y33865D01*
X445507Y33855D01*
Y38500D01*
G37*
G36*
X442500D02*X445507D01*
Y33855D01*
X445422Y33819D01*
X445321Y33757D01*
X445231Y33681D01*
X445155Y33591D01*
X445095Y33489D01*
X444878Y33020D01*
X444711Y32531D01*
X444591Y32028D01*
X444518Y31516D01*
X444494Y31000D01*
X444518Y30484D01*
X444591Y29972D01*
X444711Y29469D01*
X444878Y28980D01*
X445090Y28508D01*
X445151Y28407D01*
X445228Y28316D01*
X445318Y28239D01*
X445420Y28177D01*
X445507Y28140D01*
Y6500D01*
X442500D01*
Y38500D01*
G37*
G36*
X437500Y6000D02*X434750D01*
Y27748D01*
X434868Y27757D01*
X434982Y27785D01*
X435092Y27830D01*
X435192Y27891D01*
X435282Y27968D01*
X435359Y28058D01*
X435420Y28158D01*
X435465Y28268D01*
X435493Y28382D01*
X435500Y28500D01*
Y33500D01*
X435493Y33618D01*
X435465Y33732D01*
X435420Y33842D01*
X435359Y33942D01*
X435282Y34032D01*
X435192Y34109D01*
X435092Y34170D01*
X434982Y34215D01*
X434868Y34243D01*
X434750Y34252D01*
Y55500D01*
X437500D01*
Y6000D01*
G37*
G36*
X434750D02*X430000D01*
Y25500D01*
X432500D01*
X432618Y25507D01*
X432732Y25535D01*
X432842Y25580D01*
X432942Y25641D01*
X433032Y25718D01*
X433109Y25808D01*
X433170Y25908D01*
X433215Y26018D01*
X433243Y26132D01*
X433252Y26250D01*
X433243Y26368D01*
X433215Y26482D01*
X433170Y26592D01*
X433109Y26692D01*
X433032Y26782D01*
X432942Y26859D01*
X432842Y26920D01*
X432732Y26965D01*
X432618Y26993D01*
X432500Y27000D01*
X430000D01*
Y35000D01*
X432500D01*
X432618Y35007D01*
X432732Y35035D01*
X432842Y35080D01*
X432942Y35141D01*
X433032Y35218D01*
X433109Y35308D01*
X433170Y35408D01*
X433215Y35518D01*
X433243Y35632D01*
X433252Y35750D01*
X433243Y35868D01*
X433215Y35982D01*
X433170Y36092D01*
X433109Y36192D01*
X433032Y36282D01*
X432942Y36359D01*
X432842Y36420D01*
X432732Y36465D01*
X432618Y36493D01*
X432500Y36500D01*
X430000D01*
Y55500D01*
X434750D01*
Y34252D01*
X434632Y34243D01*
X434518Y34215D01*
X434408Y34170D01*
X434308Y34109D01*
X434218Y34032D01*
X434141Y33942D01*
X434080Y33842D01*
X434035Y33732D01*
X434007Y33618D01*
X434000Y33500D01*
Y28500D01*
X434007Y28382D01*
X434035Y28268D01*
X434080Y28158D01*
X434141Y28058D01*
X434218Y27968D01*
X434308Y27891D01*
X434408Y27830D01*
X434518Y27785D01*
X434632Y27757D01*
X434750Y27748D01*
Y6000D01*
G37*
G36*
X430000D02*X425250D01*
Y27748D01*
X425368Y27757D01*
X425482Y27785D01*
X425592Y27830D01*
X425692Y27891D01*
X425782Y27968D01*
X425859Y28058D01*
X425920Y28158D01*
X425965Y28268D01*
X425993Y28382D01*
X426000Y28500D01*
Y33500D01*
X425993Y33618D01*
X425965Y33732D01*
X425920Y33842D01*
X425859Y33942D01*
X425782Y34032D01*
X425692Y34109D01*
X425592Y34170D01*
X425482Y34215D01*
X425368Y34243D01*
X425250Y34252D01*
Y55500D01*
X430000D01*
Y36500D01*
X427500D01*
X427382Y36493D01*
X427268Y36465D01*
X427158Y36420D01*
X427058Y36359D01*
X426968Y36282D01*
X426891Y36192D01*
X426830Y36092D01*
X426785Y35982D01*
X426757Y35868D01*
X426748Y35750D01*
X426757Y35632D01*
X426785Y35518D01*
X426830Y35408D01*
X426891Y35308D01*
X426968Y35218D01*
X427058Y35141D01*
X427158Y35080D01*
X427268Y35035D01*
X427382Y35007D01*
X427500Y35000D01*
X430000D01*
Y27000D01*
X427500D01*
X427382Y26993D01*
X427268Y26965D01*
X427158Y26920D01*
X427058Y26859D01*
X426968Y26782D01*
X426891Y26692D01*
X426830Y26592D01*
X426785Y26482D01*
X426757Y26368D01*
X426748Y26250D01*
X426757Y26132D01*
X426785Y26018D01*
X426830Y25908D01*
X426891Y25808D01*
X426968Y25718D01*
X427058Y25641D01*
X427158Y25580D01*
X427268Y25535D01*
X427382Y25507D01*
X427500Y25500D01*
X430000D01*
Y6000D01*
G37*
G36*
X425250D02*X422500D01*
Y55500D01*
X425250D01*
Y34252D01*
X425132Y34243D01*
X425018Y34215D01*
X424908Y34170D01*
X424808Y34109D01*
X424718Y34032D01*
X424641Y33942D01*
X424580Y33842D01*
X424535Y33732D01*
X424507Y33618D01*
X424500Y33500D01*
Y28500D01*
X424507Y28382D01*
X424535Y28268D01*
X424580Y28158D01*
X424641Y28058D01*
X424718Y27968D01*
X424808Y27891D01*
X424908Y27830D01*
X425018Y27785D01*
X425132Y27757D01*
X425250Y27748D01*
Y6000D01*
G37*
G36*
X498000Y43500D02*X422500D01*
Y66500D01*
X498000D01*
Y43500D01*
G37*
G54D12*X21457Y70500D02*Y81500D01*
Y92000D02*Y102500D01*
X15000Y40000D02*Y90500D01*
X16500Y92000D01*
X21457D01*
X28543Y70500D02*Y46457D01*
Y81500D02*Y110000D01*
Y46457D02*X35000Y40000D01*
X28543Y70500D02*X45000D01*
X61457D02*Y81500D01*
X55000Y40000D02*Y90500D01*
X56500Y92000D01*
X61457D01*
X68543Y81500D02*Y110000D01*
Y70500D02*X85000D01*
X61457Y92000D02*Y102500D01*
X95000Y90500D02*X96500Y92000D01*
X68543Y70500D02*Y46457D01*
X75000Y40000D01*
X95000D02*Y90500D01*
X101457Y70500D02*Y81500D01*
Y92000D02*Y102500D01*
X96500Y92000D02*X101457D01*
G54D13*X7500Y110000D02*X255000D01*
G54D12*X228543Y81500D02*Y110000D01*
X188543Y81500D02*Y110000D01*
Y70500D02*X205000D01*
X148543Y81500D02*Y110000D01*
X108543Y81500D02*Y110000D01*
Y70500D02*X125000D01*
X148543D02*X165000D01*
X125000Y120000D02*X358500D01*
X165000Y125000D02*X353000D01*
G54D13*X255000Y110000D02*Y105500D01*
G54D14*X338600Y54500D02*Y40500D01*
X345400D02*X353000D01*
X308000Y45856D02*X316643Y54500D01*
X338600D01*
G54D15*X570000Y370500D02*X592500Y348000D01*
Y154000D01*
X585000Y146500D01*
G54D14*X558000Y263856D02*X550856Y271000D01*
G54D13*X542500Y221500D02*X550000Y229000D01*
G54D16*Y250000D01*
G54D17*X510000Y328000D02*X494500D01*
X486000Y336500D01*
G54D14*X511400Y271000D02*Y257000D01*
X542000Y263856D02*X531756D01*
X511400Y243500D01*
X550856Y271000D02*X511400D01*
Y243000D02*Y229000D01*
X491500Y243000D02*X504600D01*
X497000Y229000D02*X504600D01*
X491500Y271000D02*X504600D01*
X497000Y257000D02*X504600D01*
G54D18*X494500Y315000D02*X510000D01*
G54D12*X108543Y70500D02*Y46457D01*
X115000Y40000D01*
X141457Y70500D02*Y81500D01*
X135000Y40000D02*Y90500D01*
X148543Y70500D02*Y46457D01*
X155000Y40000D01*
X175000D02*Y90500D01*
X141457Y92000D02*Y102500D01*
X135000Y90500D02*X136500Y92000D01*
X141457D01*
G54D17*X146000Y327000D02*X130500D01*
G54D18*Y314000D02*X146000D01*
Y259000D01*
X158500Y246500D01*
G54D17*X130500Y327000D02*X122000Y335500D01*
G54D18*Y305500D02*X130500Y314000D01*
G54D12*X188543Y70500D02*Y46457D01*
X221457Y70500D02*Y81500D01*
X181457Y70500D02*Y81500D01*
X188543Y46457D02*X195000Y40000D01*
X181457Y92000D02*Y102500D01*
X175000Y90500D02*X176500Y92000D01*
X181457D01*
X221457D02*Y102500D01*
X215000Y90500D02*X216500Y92000D01*
X221457D01*
X215000Y40000D02*Y90500D01*
X228543Y46457D02*X235000Y40000D01*
G54D14*X292000Y45856D02*X298856Y39000D01*
G54D13*X306000Y5000D02*X300000Y11000D01*
G54D16*Y32000D01*
G54D14*X58000Y263856D02*X65143Y271000D01*
X42000Y263856D02*X48856Y257000D01*
X74600D01*
G54D16*X50000Y229500D02*Y250000D01*
G54D14*X65143Y271000D02*X88600D01*
X95400D02*X108500D01*
G54D18*X158500Y246500D02*X454500D01*
G54D14*X88600Y271000D02*Y257000D01*
X74600D02*X88600Y243000D01*
Y229000D01*
X95400Y243000D02*X108500D01*
X95400Y257000D02*X103000D01*
Y229000D02*X95400D01*
G54D12*X45000Y205000D02*X108500D01*
G54D13*X58000Y221500D02*X50000Y229500D01*
G54D12*X85000Y200000D02*X103000D01*
X245000D02*X462500D01*
X205000Y205000D02*X462500D01*
G54D13*X542500Y221500D02*X58000D01*
G54D12*X228543Y70500D02*Y46457D01*
G54D17*X328000Y327500D02*X312500D01*
X304000Y336000D01*
G54D12*X228543Y70500D02*X245000D01*
G54D18*X304000Y306000D02*X312500Y314500D01*
X304000Y306000D02*Y246500D01*
G54D13*X306000Y5000D02*X357000D01*
X361500Y9500D01*
G54D14*X353000Y12500D02*X345400D01*
G54D13*X361500Y9500D02*X430000D01*
G54D14*X298856Y39000D02*X326100D01*
X338600Y26500D02*Y12500D01*
X345400Y54500D02*X358500D01*
X345400Y26500D02*X358500D01*
X326100Y39000D02*X338600Y26500D01*
G54D13*X476000Y55500D02*Y221500D01*
G54D12*X468457Y28500D02*Y17500D01*
X475543Y28500D02*Y38000D01*
X468457D02*Y49500D01*
G54D18*X486000Y306500D02*X494500Y315000D01*
X312500Y314500D02*X328000D01*
X454500Y246500D02*X486000Y278000D01*
Y304500D01*
Y278000D02*Y306500D01*
G54D19*X292000Y45856D03*
G54D11*G36*
X299500Y340500D02*Y331500D01*
X308500D01*
Y340500D01*
X299500D01*
G37*
G54D20*X304000Y306000D03*
X244000Y336000D03*
X224000D03*
X204000D03*
Y306000D03*
X224000D03*
X244000D03*
G54D11*G36*
X239500Y374500D02*Y365500D01*
X248500D01*
Y374500D01*
X239500D01*
G37*
G54D20*X224000Y370000D03*
X204000D03*
G54D11*G36*
X426000Y35000D02*Y27000D01*
X434000D01*
Y35000D01*
X426000D01*
G37*
G54D21*X450000Y31000D03*
G54D19*X300000Y32000D03*
X316000Y32000D03*
X308000Y45856D03*
X284000Y32000D03*
X292000Y18144D03*
X308000D03*
G54D11*G36*
X512000Y149500D02*Y143500D01*
X518000D01*
Y149500D01*
X512000D01*
G37*
G54D22*X525000Y56500D03*
X585000D03*
Y146500D03*
G54D19*X550000Y250000D03*
X542000Y263856D03*
X534000Y250000D03*
X542000Y236144D03*
X558000Y263856D03*
X558000Y236144D03*
X566000Y250000D03*
G54D11*G36*
X565500Y375000D02*Y366000D01*
X574500D01*
Y375000D01*
X565500D01*
G37*
G54D20*X550000Y370500D03*
X530000D03*
G54D11*G36*
X481500Y341000D02*Y332000D01*
X490500D01*
Y341000D01*
X481500D01*
G37*
G54D20*X486000Y306500D03*
X426000Y336500D03*
Y306500D03*
G54D11*G36*
X421500Y375000D02*Y366000D01*
X430500D01*
Y375000D01*
X421500D01*
G37*
G54D20*X406000Y336500D03*
X386000D03*
Y306500D03*
X406000D03*
Y370500D03*
X386000D03*
G54D19*X50000Y250000D03*
X58000Y263856D03*
X42000D03*
X34000Y250000D03*
X42000Y236144D03*
X58000D03*
X66000Y250000D03*
G54D11*G36*
X117500Y340000D02*Y331000D01*
X126500D01*
Y340000D01*
X117500D01*
G37*
G54D20*X122000Y305500D03*
X62000Y335500D03*
Y305500D03*
G54D11*G36*
X57500Y374000D02*Y365000D01*
X66500D01*
Y374000D01*
X57500D01*
G37*
G54D20*X42000Y335500D03*
X22000D03*
Y305500D03*
X42000D03*
Y369500D03*
X22000D03*
G54D11*G36*
X51000Y44000D02*Y36000D01*
X59000D01*
Y44000D01*
X51000D01*
G37*
G36*
X11000D02*Y36000D01*
X19000D01*
Y44000D01*
X11000D01*
G37*
G54D21*X35000Y40000D03*
X75000D03*
G54D11*G36*
X131000Y44000D02*Y36000D01*
X139000D01*
Y44000D01*
X131000D01*
G37*
G36*
X91000D02*Y36000D01*
X99000D01*
Y44000D01*
X91000D01*
G37*
G54D21*X115000Y40000D03*
X155000D03*
G54D11*G36*
X211000Y44000D02*Y36000D01*
X219000D01*
Y44000D01*
X211000D01*
G37*
G54D21*X235000Y40000D03*
G54D11*G36*
X171000Y44000D02*Y36000D01*
X179000D01*
Y44000D01*
X171000D01*
G37*
G54D21*X195000Y40000D03*
G54D23*X327000Y327500D02*X329000D01*
X327000Y314500D02*X329000D01*
X145000Y327000D02*X147000D01*
X145000Y314000D02*X147000D01*
G54D24*X498607Y20457D02*X499393D01*
X498607Y27543D02*X499393D01*
G54D25*X525000Y17150D02*Y10851D01*
Y36835D02*Y30536D01*
G54D24*X468457Y38393D02*Y37607D01*
X475543Y38393D02*Y37607D01*
Y28893D02*Y28107D01*
X468457Y28893D02*Y28107D01*
G54D22*X338600Y12500D03*
G54D26*X340100Y14000D02*Y11000D01*
G54D22*X338600Y26500D03*
G54D26*X340100Y28000D02*Y25000D01*
G54D22*X345400Y12500D03*
G54D26*X343900Y14000D02*Y11000D01*
G54D22*X345400Y26500D03*
G54D26*X343900Y28000D02*Y25000D01*
G54D22*X338600Y40500D03*
G54D26*X340100Y42000D02*Y39000D01*
G54D22*X338600Y54500D03*
G54D26*X340100Y56000D02*Y53000D01*
G54D22*X345400Y40500D03*
G54D26*X343900Y42000D02*Y39000D01*
G54D22*X345400Y54500D03*
G54D26*X343900Y56000D02*Y53000D01*
X223100Y104000D02*Y101000D01*
G54D22*X228400Y102500D03*
G54D26*X226900Y104000D02*Y101000D01*
G54D24*X181457Y81893D02*Y81107D01*
X188543Y81893D02*Y81107D01*
G54D22*X88600Y229000D03*
G54D26*X90100Y230500D02*Y227500D01*
G54D22*X95400Y229000D03*
G54D26*X93900Y230500D02*Y227500D01*
G54D22*X88600Y243000D03*
G54D26*X90100Y244500D02*Y241500D01*
G54D22*X95400Y243000D03*
G54D26*X93900Y244500D02*Y241500D01*
G54D22*X88600Y271000D03*
G54D26*X90100Y272500D02*Y269500D01*
G54D22*X95400Y271000D03*
G54D26*X93900Y272500D02*Y269500D01*
G54D22*X88600Y257000D03*
G54D26*X90100Y258500D02*Y255500D01*
G54D22*X95400Y257000D03*
G54D26*X93900Y258500D02*Y255500D01*
G54D23*X509000Y328000D02*X511000D01*
X509000Y315000D02*X511000D01*
G54D22*X511400Y229000D03*
G54D26*X509900Y230500D02*Y227500D01*
G54D22*X511400Y271000D03*
G54D26*X509900Y272500D02*Y269500D01*
G54D22*X511400Y257000D03*
G54D26*X509900Y258500D02*Y255500D01*
G54D22*X504600Y229000D03*
G54D26*X506100Y230500D02*Y227500D01*
G54D22*X504600Y271000D03*
G54D26*X506100Y272500D02*Y269500D01*
G54D22*X504600Y257000D03*
G54D26*X506100Y258500D02*Y255500D01*
G54D22*X511400Y243000D03*
G54D26*X509900Y244500D02*Y241500D01*
G54D22*X504600Y243000D03*
G54D26*X506100Y244500D02*Y241500D01*
G54D24*X21457Y81893D02*Y81107D01*
X28543Y81893D02*Y81107D01*
Y70893D02*Y70107D01*
X21457Y70893D02*Y70107D01*
Y92393D02*Y91607D01*
X28543Y92393D02*Y91607D01*
G54D22*X21600Y102500D03*
G54D26*X23100Y104000D02*Y101000D01*
X26900Y104000D02*Y101000D01*
G54D22*X28400Y102500D03*
G54D24*X61457Y92393D02*Y91607D01*
Y70893D02*Y70107D01*
G54D22*X61600Y102500D03*
G54D26*X63100Y104000D02*Y101000D01*
G54D24*X68543Y92393D02*Y91607D01*
Y70893D02*Y70107D01*
G54D22*X68400Y102500D03*
G54D26*X66900Y104000D02*Y101000D01*
G54D24*X61457Y81893D02*Y81107D01*
X68543Y81893D02*Y81107D01*
X108543Y70893D02*Y70107D01*
X101457Y70893D02*Y70107D01*
G54D22*X108400Y102500D03*
G54D24*X101457Y92393D02*Y91607D01*
X108543Y92393D02*Y91607D01*
G54D22*X101600Y102500D03*
G54D26*X103100Y104000D02*Y101000D01*
X106900Y104000D02*Y101000D01*
G54D24*X101457Y81893D02*Y81107D01*
X108543Y81893D02*Y81107D01*
X141457Y81893D02*Y81107D01*
X148543Y81893D02*Y81107D01*
Y70893D02*Y70107D01*
X141457Y70893D02*Y70107D01*
Y92393D02*Y91607D01*
X148543Y92393D02*Y91607D01*
G54D22*X141600Y102500D03*
G54D26*X143100Y104000D02*Y101000D01*
X146900Y104000D02*Y101000D01*
G54D22*X148400Y102500D03*
G54D24*X188543Y70893D02*Y70107D01*
X181457Y70893D02*Y70107D01*
Y92393D02*Y91607D01*
X188543Y92393D02*Y91607D01*
G54D22*X181600Y102500D03*
G54D26*X183100Y104000D02*Y101000D01*
G54D22*X188400Y102500D03*
G54D26*X186900Y104000D02*Y101000D01*
G54D24*X221457Y81893D02*Y81107D01*
X228543Y81893D02*Y81107D01*
Y70893D02*Y70107D01*
X221457Y70893D02*Y70107D01*
Y92393D02*Y91607D01*
X228543Y92393D02*Y91607D01*
G54D22*X221600Y102500D03*
G54D27*X108500Y271000D03*
Y243000D03*
X103000Y257000D03*
Y229000D03*
X45000Y70500D03*
Y205000D03*
X108500D03*
X85000Y70500D03*
Y200000D03*
X103000D03*
X125000Y70500D03*
Y120000D03*
X491500Y271000D03*
Y243000D03*
X497000Y257000D03*
Y229000D03*
X460500Y9500D03*
X466000D03*
X445500Y246500D03*
X450000D03*
X454500D03*
X462500Y205000D03*
Y200000D03*
X165000Y70500D03*
Y125000D03*
X205000Y205000D03*
X245000Y200000D03*
X205000Y70500D03*
X245000D03*
X255000Y110000D03*
Y105500D03*
X358500Y120000D03*
X353000Y125000D03*
X358500Y54500D03*
Y26500D03*
X353000Y40500D03*
Y12500D03*
G54D28*G54D29*G54D30*G54D18*G54D31*G54D29*G54D16*G54D29*G54D18*G54D30*G54D18*G54D30*G54D18*G54D29*G54D30*G54D18*G54D30*G54D18*G54D31*M02*
