G04 start of page 8 for group -4079 idx -4079 *
G04 Title: (unknown), topsilk *
G04 Creator: pcb 20140316 *
G04 CreationDate: Wed 29 Apr 2020 12:31:51 AM GMT UTC *
G04 For: railfan *
G04 Format: Gerber/RS-274X *
G04 PCB-Dimensions (mil): 6000.00 4000.00 *
G04 PCB-Coordinate-Origin: lower left *
%MOIN*%
%FSLAX25Y25*%
%LNTOPSILK*%
%ADD72C,0.0083*%
%ADD71C,0.0080*%
%ADD70C,0.0100*%
%ADD69C,0.0001*%
G54D69*G36*
X283056Y242203D02*X283690Y242344D01*
X288861Y242523D01*
X299348Y242637D01*
X309889Y242551D01*
X315130Y242388D01*
X315836Y242252D01*
X317306Y241975D01*
X321548Y240245D01*
X326290Y236735D01*
X329800Y231976D01*
X331531Y227707D01*
X331819Y226226D01*
X331889Y225862D01*
X331992Y224598D01*
X332101Y221468D01*
X332160Y216162D01*
X332177Y210042D01*
Y191606D01*
X333935D01*
X335904Y190901D01*
X337542Y189198D01*
X337814Y188698D01*
X337906Y188530D01*
X338118Y187971D01*
X338291Y186778D01*
X338383Y184467D01*
X338427Y181391D01*
X338438Y180365D01*
X338448Y179117D01*
X338421Y174582D01*
X338275Y172189D01*
X338226Y172010D01*
X338069Y171462D01*
X336343Y169249D01*
X334184Y171592D01*
X334873Y172591D01*
X335150Y175070D01*
X335204Y178537D01*
Y180712D01*
X335166Y183778D01*
X335020Y186241D01*
X334705Y187527D01*
X334325Y188004D01*
X334168Y188085D01*
X334103Y188118D01*
X333246Y188324D01*
X332177D01*
Y171402D01*
X333224D01*
X334184Y171592D01*
X336343Y169249D01*
X333815Y168131D01*
X333262Y168126D01*
X332177Y168120D01*
Y160139D01*
X332160Y157286D01*
X332090Y154969D01*
X331938Y153596D01*
X331759Y152853D01*
X331678Y152615D01*
X331547Y152240D01*
X330918Y151193D01*
X329269Y148464D01*
X327012Y144862D01*
X324424Y140831D01*
X321793Y136800D01*
X319395Y133203D01*
X317523Y130490D01*
X316753Y129399D01*
X316449Y129079D01*
X316308Y128933D01*
X315277Y128119D01*
X314105Y127403D01*
X313893Y127300D01*
X312353Y126578D01*
X297894D01*
X292420Y126589D01*
X288513Y126654D01*
X286696Y126828D01*
X285915Y127061D01*
X285671Y127159D01*
X285475Y127240D01*
X283359Y128548D01*
X283224Y128672D01*
X283072Y128808D01*
X282307Y129828D01*
X280576Y132291D01*
X278233Y135763D01*
X276160Y138910D01*
X275476Y139963D01*
X274462Y141525D01*
X271435Y146218D01*
X269064Y150000D01*
X267881Y152115D01*
X267496Y153032D01*
X267420Y153347D01*
X267393Y153455D01*
X267290Y155940D01*
X267257Y160145D01*
X267263Y161111D01*
X267300Y168120D01*
X266085Y168126D01*
X265749Y168131D01*
X264007Y168554D01*
X262586Y169363D01*
X262418Y169558D01*
X262358Y169623D01*
X261490Y171120D01*
X261414Y171289D01*
X261316Y171500D01*
X261083Y172146D01*
X260909Y173383D01*
X260844Y175754D01*
X260833Y178944D01*
Y187461D01*
X261490Y188726D01*
X264116Y187109D01*
Y179036D01*
X264127Y176041D01*
X264186Y173838D01*
X264349Y172786D01*
X264555Y172363D01*
X264647Y172238D01*
X264751Y172102D01*
X266020Y171468D01*
X266226Y171451D01*
X267273Y171375D01*
Y188324D01*
X266036D01*
X264935Y187814D01*
X264826Y187716D01*
X264116Y187109D01*
X261490Y188726D01*
X261712Y189165D01*
X263204Y190722D01*
X265255Y191498D01*
X265760Y191541D01*
X267328Y191682D01*
X270306Y191883D01*
X270366Y172992D01*
Y171506D01*
X270388Y167041D01*
X270409Y162472D01*
X270442Y159092D01*
X270485Y156711D01*
X270550Y155126D01*
X270637Y154150D01*
X270746Y153580D01*
X270849Y153309D01*
X270897Y153222D01*
X270963Y153103D01*
X271500Y152235D01*
X272796Y150200D01*
X274592Y147412D01*
X276176Y144981D01*
X276708Y144167D01*
X282047Y135997D01*
X282112Y148079D01*
X282171Y160167D01*
X286278Y164279D01*
X286989Y165001D01*
X289192Y167100D01*
X290879Y168310D01*
X291725Y168050D01*
X292073Y166878D01*
X292132Y166476D01*
X292230Y165804D01*
X293521Y162928D01*
X295832Y160812D01*
X296440Y160514D01*
X296820Y160329D01*
X298133Y159852D01*
X299603Y159809D01*
X300064Y159836D01*
X300455Y159863D01*
X301876Y160074D01*
X302956Y160492D01*
X303184Y160622D01*
X303737Y160948D01*
X306010Y163351D01*
X307171Y165831D01*
Y166943D01*
X307388Y167800D01*
X307426Y167865D01*
X307502Y168012D01*
X307936Y168348D01*
X308826Y168033D01*
X310421Y166699D01*
X312407Y164778D01*
X313058Y164127D01*
X311761Y162901D01*
X309889Y164653D01*
X309195Y164936D01*
Y164366D01*
X308273Y162641D01*
X306710Y160481D01*
X306390Y160177D01*
X306216Y160020D01*
X305072Y159152D01*
X303883Y158414D01*
X303688Y158322D01*
X303368Y158176D01*
X302044Y157758D01*
X300205Y157638D01*
X298979D01*
X297124Y157758D01*
X295773Y158219D01*
X295431Y158387D01*
X294948Y158626D01*
X292729Y160356D01*
X291091Y162467D01*
X290906Y162890D01*
X290825Y163075D01*
X290130Y164697D01*
X290103Y164773D01*
X290076Y164843D01*
X289902Y165011D01*
X289452Y164800D01*
X288492Y163948D01*
X287206Y162679D01*
X286783Y162250D01*
X283690Y159157D01*
Y133349D01*
X284423Y132335D01*
X284656Y132009D01*
X285909Y130810D01*
X287396Y130083D01*
X287754Y129991D01*
X287938Y129947D01*
X288942Y129877D01*
X291411Y129801D01*
X295198Y129774D01*
X299066Y129779D01*
X300357Y129785D01*
X311848Y129861D01*
X312971Y130495D01*
X313118Y130582D01*
X314691Y131998D01*
X314788Y132134D01*
X315483Y133143D01*
X315494Y146147D01*
X315505Y159157D01*
X312353Y162310D01*
X311761Y162901D01*
X313058Y164127D01*
X317273Y159912D01*
Y135921D01*
X317832Y136805D01*
X317908Y136930D01*
X318413Y137711D01*
X319590Y139512D01*
X321190Y141948D01*
X322579Y144059D01*
X323046Y144759D01*
X323513Y145469D01*
X324896Y147607D01*
X326507Y150124D01*
X327695Y152045D01*
X328216Y152918D01*
X328298Y153092D01*
X328889Y154356D01*
Y192209D01*
X324093Y197032D01*
X323350Y197781D01*
X320583Y200699D01*
X319297Y201936D01*
Y202718D01*
X319742Y203819D01*
X319818Y203976D01*
X320447Y205354D01*
X321955Y209678D01*
X323089Y215120D01*
X323171Y219954D01*
X322585Y222965D01*
X322167Y223855D01*
X321912Y224397D01*
X320778Y225840D01*
X318613Y228054D01*
X316264Y229953D01*
X314848Y230843D01*
X314344Y230984D01*
X314067Y231060D01*
X312857Y230978D01*
X311322Y230088D01*
X310888Y229757D01*
X310356Y229361D01*
X308631Y228336D01*
X306184Y227403D01*
X303314Y226882D01*
X300661Y226725D01*
X299777Y226719D01*
X298860D01*
X296120Y226871D01*
X293174Y227392D01*
X290673Y228347D01*
X288904Y229394D01*
X288362Y229801D01*
X287900Y230148D01*
X286381Y231032D01*
X285177Y231000D01*
X284873Y230891D01*
X284526Y230772D01*
X282790Y229785D01*
X280631Y227994D01*
X280077Y227473D01*
X279491Y226931D01*
X277961Y225048D01*
X276627Y222401D01*
X276035Y219406D01*
Y216786D01*
X276133Y215923D01*
X276241Y214957D01*
X277440Y209591D01*
X279182Y204638D01*
X277630Y204139D01*
X277153Y204991D01*
X276572Y206005D01*
X276518Y206043D01*
X276480Y206071D01*
X276220Y206841D01*
X276214Y206933D01*
X276203Y207031D01*
X276138Y207872D01*
Y207904D01*
X276133Y207942D01*
X275373Y208083D01*
X275254Y208067D01*
X275075Y208051D01*
X274261Y208392D01*
X274229Y208501D01*
X274174Y208658D01*
X274343Y209380D01*
X274890Y209787D01*
X275151D01*
X275390Y209977D01*
X275292Y210693D01*
X275243Y210921D01*
X275205Y211083D01*
X274815Y212060D01*
X274554D01*
X274207Y212597D01*
X274261Y213346D01*
X274353Y213449D01*
X274397Y213509D01*
X274500Y214675D01*
X274473Y214838D01*
X274413Y215169D01*
X274343Y216389D01*
X274288Y218549D01*
X274321Y220562D01*
X274386Y221533D01*
X274440Y221657D01*
X274462Y221712D01*
X274912Y222965D01*
X274966Y223106D01*
X275037Y223328D01*
X275205Y224023D01*
X274939Y224180D01*
X274690D01*
X274212Y224696D01*
X274250Y225471D01*
X274359Y225596D01*
X274408Y225656D01*
X275335Y225911D01*
X275455Y225900D01*
X275612Y225889D01*
X276117Y225960D01*
X276252Y226426D01*
X276258Y226578D01*
X276263Y226882D01*
X276410Y227777D01*
X276996Y227967D01*
X277451D01*
X278227Y228238D01*
X278661Y229025D01*
X278726Y229280D01*
X278759Y229421D01*
X279545Y230029D01*
X279714Y230040D01*
X279887Y230056D01*
X280413Y230251D01*
X280631Y230810D01*
X280658Y231000D01*
X280685Y231195D01*
X280918Y231765D01*
X281634Y231906D01*
X281873D01*
X282166Y231911D01*
X283061Y232118D01*
X283294Y232850D01*
X283300Y233094D01*
Y233268D01*
X283435Y233789D01*
X283945Y233962D01*
X284119Y233978D01*
X284287Y233995D01*
X284808Y233924D01*
X285052Y233544D01*
X285090Y233409D01*
X285123Y233279D01*
X285839Y232769D01*
X286381D01*
X287260Y232638D01*
X287315Y232617D01*
X287374Y232595D01*
X287765Y233051D01*
X287781Y233181D01*
X287792Y233322D01*
X288383Y233968D01*
X288513Y233978D01*
X288714Y234006D01*
X289463Y233680D01*
X289685Y232948D01*
X289631Y232769D01*
X289604Y232687D01*
X289034Y232264D01*
X288210D01*
X288915Y231656D01*
X289062Y231532D01*
X289550Y231201D01*
X289767Y231439D01*
X289805Y231532D01*
X289864Y231689D01*
X290613Y232004D01*
X291416Y231689D01*
X291503Y231532D01*
X291541Y231456D01*
X291449Y230664D01*
X291389Y230571D01*
X291318Y230468D01*
X291183Y230099D01*
X291519Y229844D01*
X291644Y229785D01*
X291736Y229741D01*
X292382Y229725D01*
X292409Y229763D01*
X292485Y229888D01*
X293250Y229996D01*
X294004Y229541D01*
X294074Y229383D01*
X294118Y229280D01*
X295094Y228651D01*
X295257Y228624D01*
X295577Y228575D01*
X296565Y228526D01*
X296841Y228993D01*
X296863Y229155D01*
X296879Y229302D01*
X297069Y229730D01*
X297541Y229861D01*
X297861D01*
X298333Y229736D01*
X298523Y229313D01*
X298540Y229166D01*
X298556Y229014D01*
X298800Y228575D01*
X299679Y228472D01*
X300270D01*
X301149Y228575D01*
X301399Y229014D01*
X301415Y229166D01*
X301431Y229313D01*
X301616Y229736D01*
X302088Y229861D01*
X302402D01*
X302874Y229736D01*
X303064Y229313D01*
X303081Y229166D01*
X303091Y229031D01*
X303260Y228624D01*
X303699Y228596D01*
X303840Y228624D01*
X304193Y228700D01*
X305262Y229014D01*
X305793Y229416D01*
X305880Y229535D01*
X305945Y229633D01*
X306911Y229937D01*
X307074Y229909D01*
X307296Y229877D01*
X307991Y229937D01*
X307980Y230419D01*
X307915Y230544D01*
X307806Y230740D01*
X307828Y231570D01*
X308473Y232009D01*
X308918D01*
X309602Y231684D01*
X309634Y231629D01*
X309678Y231548D01*
X310285Y231564D01*
X310405Y231646D01*
X310524Y231732D01*
X310654Y232340D01*
X310584Y232411D01*
X310405Y232590D01*
X310280Y233534D01*
X311110Y234016D01*
X311365Y233984D01*
X311495Y233973D01*
X312157Y233436D01*
X312173Y233333D01*
X312184Y233213D01*
X312439Y232866D01*
X313215Y232769D01*
X313736D01*
X314528Y232872D01*
X314826Y233268D01*
X314864Y233409D01*
X314897Y233544D01*
X315141Y233924D01*
X315662Y233995D01*
X315836Y233978D01*
X315993Y233968D01*
X316714Y233436D01*
X316731Y233322D01*
X316742Y233241D01*
X316579Y232459D01*
X316541Y232411D01*
X316476Y232335D01*
X316459Y231944D01*
X317246Y231901D01*
X317501Y231933D01*
X317702Y231960D01*
X318337Y231944D01*
X318613Y231646D01*
X318651Y231532D01*
X318673Y231456D01*
X318695Y230805D01*
X318678Y230772D01*
X318635Y230701D01*
X319009Y230181D01*
X319981Y229937D01*
X320203Y229953D01*
X320398Y229975D01*
X321011Y229844D01*
X321163Y229009D01*
X321174Y228727D01*
Y228602D01*
X321793Y228027D01*
X321944Y228011D01*
X322210Y227983D01*
X323046Y227625D01*
X323258Y226947D01*
X323214Y226757D01*
X323192Y226671D01*
X323328Y225466D01*
X323371Y225358D01*
X323692Y224587D01*
X323843Y225206D01*
X323865Y225314D01*
X324532Y225889D01*
X324646Y225900D01*
X324842Y225922D01*
X325569Y225585D01*
X325786Y224842D01*
X325731Y224663D01*
X325693Y224560D01*
X324918Y224202D01*
X324760Y224218D01*
X323968Y224305D01*
X324348Y223144D01*
X324397Y222981D01*
X325156Y221788D01*
X325232Y221755D01*
X325395Y221685D01*
X325802Y221120D01*
X325634Y220448D01*
X325509Y220317D01*
X325379Y220193D01*
X325118Y218934D01*
X325357Y217713D01*
X325482Y217610D01*
X325612Y217502D01*
X325503Y216308D01*
X325357Y216172D01*
X325183Y216026D01*
X324858Y214876D01*
X325227Y213742D01*
X325406Y213595D01*
X325579Y213454D01*
X325775Y212619D01*
X325173Y212060D01*
X324842D01*
X324451Y211848D01*
X324174Y211170D01*
X324120Y210937D01*
X324082Y210785D01*
X323843Y210020D01*
Y209711D01*
X324451Y209705D01*
X324549Y209716D01*
X324760Y209749D01*
X325547Y209456D01*
X325791Y208713D01*
X325731Y208523D01*
X325672Y208344D01*
X324760Y208034D01*
X323876Y208566D01*
X323822Y208778D01*
X323795Y208886D01*
X323653Y209190D01*
X323485Y208691D01*
X323447Y208523D01*
X323415Y208403D01*
X323219Y207009D01*
Y206906D01*
X323214Y206808D01*
X322927Y206076D01*
X322883Y206060D01*
X322807Y206038D01*
X322238Y205154D01*
X321820Y204258D01*
Y203900D01*
X322178Y203727D01*
X322487D01*
X323051Y203401D01*
X323095Y203347D01*
X323198Y203222D01*
X323203Y202468D01*
X322715Y201958D01*
X322433D01*
X322075Y201817D01*
Y201486D01*
X323078Y200634D01*
X325015Y198638D01*
X325482Y198171D01*
X325883Y197770D01*
X327120Y196560D01*
X328167Y195600D01*
X328721Y195214D01*
X328889Y195296D01*
Y195491D01*
X328672Y196006D01*
X328639Y196023D01*
X328601Y196044D01*
X328384Y196592D01*
Y196967D01*
X328601Y197520D01*
X328639Y197542D01*
X328672Y197564D01*
X328889Y198486D01*
Y199115D01*
X328672Y200048D01*
X328639Y200065D01*
X328601Y200086D01*
X328384Y200634D01*
Y201009D01*
X328601Y201562D01*
X328639Y201578D01*
X328672Y201600D01*
X328889Y202528D01*
Y203157D01*
X328672Y204085D01*
X328639Y204106D01*
X328601Y204128D01*
X328384Y204676D01*
Y205051D01*
X328601Y205604D01*
X328639Y205620D01*
X328672Y205642D01*
X328889Y206570D01*
Y207199D01*
X328672Y208127D01*
X328639Y208143D01*
X328601Y208165D01*
X328384Y208713D01*
Y209092D01*
X328601Y209646D01*
X328639Y209662D01*
X328672Y209684D01*
X328889Y210606D01*
Y211235D01*
X328672Y212169D01*
X328639Y212185D01*
X328601Y212206D01*
X328384Y212755D01*
Y213129D01*
X328601Y213682D01*
X328639Y213698D01*
X328672Y213720D01*
X328889Y214648D01*
Y215277D01*
X328672Y216210D01*
X328639Y216227D01*
X328601Y216248D01*
X328384Y216796D01*
Y217171D01*
X328601Y217724D01*
X328639Y217740D01*
X328672Y217762D01*
X328889Y218690D01*
Y219319D01*
X328672Y220247D01*
X328639Y220269D01*
X328601Y220290D01*
X328384Y220838D01*
Y221213D01*
X328601Y221766D01*
X328639Y221788D01*
X328726Y221842D01*
X328883Y223052D01*
X328699Y224262D01*
X328612Y224316D01*
X328574Y224343D01*
X328433Y225162D01*
X328449Y225265D01*
X328498Y225613D01*
X328368Y226687D01*
X327902Y228309D01*
X327234Y229671D01*
X326735Y230262D01*
X326545Y230289D01*
X326431Y230306D01*
X325976Y231076D01*
Y231250D01*
X325970Y231445D01*
X325813Y232025D01*
X325178Y232237D01*
X324966Y232264D01*
X324744Y232291D01*
X324104Y232503D01*
X323968Y233121D01*
Y233637D01*
X323664Y234564D01*
X323143Y234646D01*
X323111Y234586D01*
X323035Y234467D01*
X322156Y234336D01*
X321380Y234727D01*
X321353Y234863D01*
X321337Y234928D01*
X321364Y235584D01*
X321380Y235622D01*
X321435Y235774D01*
X321418Y236290D01*
X320713Y236431D01*
X320252D01*
X319579Y236539D01*
X319357Y236946D01*
X319340Y237087D01*
X319319Y237255D01*
X318749Y237955D01*
X317854Y238324D01*
X317393D01*
X316915Y238525D01*
X316883Y238552D01*
X316845Y238585D01*
X315635Y238986D01*
X315472Y239019D01*
X315223Y239073D01*
X314463Y239143D01*
X314197Y238878D01*
X314170Y238774D01*
X314127Y238612D01*
X313280Y238297D01*
X312412Y238661D01*
X312358Y238829D01*
X312325Y238937D01*
X311994Y239241D01*
X311229Y239333D01*
X310719D01*
X309954Y239241D01*
X309645Y238937D01*
X309624Y238829D01*
X309596Y238742D01*
X308951Y238324D01*
X308501D01*
X307833Y238742D01*
X307806Y238829D01*
X307773Y238937D01*
X307448Y239241D01*
X306683Y239333D01*
X306173D01*
X305408Y239241D01*
X305099Y238937D01*
X305077Y238829D01*
X305055Y238742D01*
X304491Y238324D01*
X304063D01*
X303368Y238758D01*
X303325Y238829D01*
X303260Y238926D01*
X302202Y239333D01*
X301589D01*
X300856Y239236D01*
X300552Y238932D01*
X300531Y238829D01*
X300509Y238742D01*
X299923Y238324D01*
X299522D01*
X298936Y238742D01*
X298914Y238829D01*
X298887Y238937D01*
X298567Y239246D01*
X297726Y239333D01*
X297167D01*
X296331Y239246D01*
X296011Y238937D01*
X295984Y238829D01*
X295963Y238742D01*
X295382Y238324D01*
X294981D01*
X294395Y238742D01*
X294373Y238829D01*
X294346Y238937D01*
X294031Y239241D01*
X293272Y239333D01*
X292658D01*
X291573Y238932D01*
X291519Y238829D01*
X291476Y238758D01*
X290825Y238324D01*
X290407D01*
X289843Y238747D01*
X289826Y238829D01*
X289799Y238937D01*
X289490Y239241D01*
X288725Y239333D01*
X288215D01*
X287450Y239241D01*
X287125Y238937D01*
X287098Y238829D01*
X287070Y238742D01*
X286403Y238324D01*
X285953D01*
X285302Y238742D01*
X285280Y238829D01*
X285258Y238899D01*
X285020Y239312D01*
X285003Y239306D01*
X284596Y239236D01*
X283104Y238888D01*
X282426Y238655D01*
Y238498D01*
X281607Y238270D01*
X281477Y238248D01*
X281271Y238216D01*
X280674Y237999D01*
X280533Y237445D01*
Y237087D01*
X280408Y236556D01*
X279952Y236360D01*
X279800Y236338D01*
X279697Y236328D01*
X278894Y236539D01*
X278867Y236583D01*
X278824Y236653D01*
X278151Y236637D01*
X278021Y236566D01*
X277902Y236507D01*
X277744Y235964D01*
X277782Y235937D01*
X277836Y235899D01*
X278108Y235134D01*
X278097Y235042D01*
X278070Y234852D01*
X277310Y234331D01*
X276372Y234505D01*
X276258Y234662D01*
X276198Y234743D01*
X275612Y234689D01*
X275520Y234586D01*
X275444Y234510D01*
X275542Y233973D01*
X275607Y233951D01*
X275710Y233924D01*
X276073Y233235D01*
X276062Y233094D01*
X276046Y232958D01*
X275395Y232318D01*
X275254Y232302D01*
X275151Y232291D01*
X274348Y232497D01*
X274321Y232541D01*
X274283Y232600D01*
X273762Y232535D01*
X273464Y231613D01*
Y231114D01*
X273350Y230528D01*
X272992Y230300D01*
X272867Y230278D01*
X272758Y230262D01*
X271798Y229123D01*
X271695Y228879D01*
X271483Y228407D01*
X270941Y226730D01*
X271044Y225916D01*
X271163Y225868D01*
X271321Y225808D01*
X271570Y225032D01*
X271114Y224240D01*
X270935Y224169D01*
X270800Y224121D01*
X270420Y223790D01*
X270306Y223149D01*
Y222726D01*
X270409Y222108D01*
X270751Y221875D01*
X270870Y221858D01*
X270979Y221847D01*
X271440Y221234D01*
Y220822D01*
X270979Y220209D01*
X270870Y220193D01*
X270746Y220176D01*
X270404Y219938D01*
X270306Y219238D01*
Y218777D01*
X270404Y218077D01*
X270746Y217833D01*
X270870Y217816D01*
X270979Y217806D01*
X271440Y217198D01*
Y216786D01*
X270979Y216167D01*
X270870Y216151D01*
X270746Y216135D01*
X270404Y215896D01*
X270306Y215196D01*
Y214735D01*
X270404Y214035D01*
X270746Y213791D01*
X270870Y213774D01*
X270979Y213764D01*
X271440Y213156D01*
Y212744D01*
X270990Y212125D01*
X270887Y212109D01*
X270740Y212093D01*
X270344Y211783D01*
X270398Y210888D01*
X270458Y210595D01*
X270480Y210481D01*
X271011Y209733D01*
X271087Y209711D01*
X271250Y209667D01*
X271581Y208908D01*
X271228Y208143D01*
X271060Y208100D01*
X270957Y208072D01*
X270653Y207785D01*
X270556Y207112D01*
Y206662D01*
X270659Y205984D01*
X270979Y205691D01*
X271087Y205658D01*
X271245Y205620D01*
X271559Y204812D01*
X271055Y204058D01*
X270859Y204031D01*
X270740Y204014D01*
X270404Y203776D01*
X270306Y203076D01*
Y202615D01*
X270404Y201915D01*
X270746Y201671D01*
X270870Y201654D01*
X270979Y201643D01*
X271440Y201036D01*
Y200623D01*
X270979Y200005D01*
X270870Y199989D01*
X270746Y199972D01*
X270404Y199734D01*
X270306Y199034D01*
Y198573D01*
X270404Y197873D01*
X270746Y197634D01*
X270870Y197612D01*
X270979Y197601D01*
X271440Y196994D01*
Y196581D01*
X270979Y195963D01*
X270870Y195947D01*
X270762Y195936D01*
X270312Y195323D01*
X270317Y195193D01*
Y195122D01*
X270398Y194911D01*
X270735Y195057D01*
X271483Y195768D01*
X272487Y196815D01*
X272818Y197162D01*
X273301Y197677D01*
X274690Y199283D01*
X274825Y199891D01*
X274679Y199918D01*
X274218Y200471D01*
X274250Y201215D01*
X274348Y201329D01*
X274462Y201464D01*
X275297Y201687D01*
X276019Y201329D01*
X276079Y201177D01*
X276111Y201085D01*
X276317Y200824D01*
X276735Y201182D01*
X276860Y201312D01*
X276979Y201443D01*
X277299Y201877D01*
X277012Y201958D01*
X276757D01*
X276279Y202397D01*
X276193Y203157D01*
X276258Y203320D01*
X276279Y203380D01*
X276827Y203727D01*
X277175D01*
X277630Y203824D01*
Y204139D01*
X279182Y204638D01*
X279567Y203879D01*
X279648Y203716D01*
X280110Y202387D01*
X280104Y202338D01*
X280093Y202294D01*
X279687Y201812D01*
X278618Y200618D01*
X277055Y198936D01*
X275639Y197444D01*
X275167Y196945D01*
X270306Y191883D01*
X267328Y191682D01*
X267252Y208501D01*
X267241Y210747D01*
X267219Y217491D01*
X267252Y222797D01*
X267366Y225585D01*
X267501Y226660D01*
X267588Y227007D01*
X267930Y228412D01*
X269736Y232427D01*
X273171Y236903D01*
X277685Y240234D01*
X281672Y241910D01*
X283056Y242203D01*
G37*
G36*
X298952Y192035D02*X298990Y192144D01*
X299560Y192339D01*
X300238Y192116D01*
X300330Y192008D01*
X300379Y191954D01*
X300449Y191178D01*
X300525Y188894D01*
X300558Y184966D01*
X300552Y180647D01*
X300547Y179204D01*
X300482Y166731D01*
X298968D01*
X298903Y179231D01*
X298898Y180452D01*
X298887Y184109D01*
X298892Y188151D01*
X298914Y190934D01*
X298936Y191997D01*
X298952Y192035D01*
G37*
G36*
X286495Y154459D02*X286815Y155023D01*
X287993Y156591D01*
X288872Y156537D01*
X289002Y156380D01*
X289040Y156336D01*
X289154Y155577D01*
X289132Y155506D01*
X289110Y155446D01*
X289224Y155208D01*
X290467Y155045D01*
X293923Y154969D01*
X298974Y154937D01*
X300661Y154926D01*
X312353Y154861D01*
X312428Y154204D01*
X312439Y154085D01*
X312141Y153255D01*
X311229Y151926D01*
X310937Y151551D01*
X310719Y151280D01*
X309716Y150059D01*
X309032Y149289D01*
X308978Y149245D01*
X308902Y149186D01*
X308349Y149093D01*
X308056Y150721D01*
X309005Y151969D01*
X309949Y153222D01*
X289143D01*
X290380Y151958D01*
X291617Y150694D01*
X299836Y150710D01*
X308056Y150721D01*
X308349Y149093D01*
X306743Y148996D01*
X303927Y148941D01*
X300726Y148925D01*
X290733D01*
X289056Y150710D01*
X287374Y152490D01*
X287043Y151855D01*
X286940Y151671D01*
X286235Y151242D01*
X285546Y151535D01*
X285459Y151703D01*
X285405Y151806D01*
X285497Y152528D01*
X286229Y153993D01*
X286495Y154459D01*
G37*
G36*
X294454Y146478D02*X294476Y146506D01*
X296082Y146609D01*
X298838Y146657D01*
X304903D01*
Y145594D01*
X304187Y144449D01*
X302554Y142127D01*
X300769Y140011D01*
X299890Y139078D01*
X299353D01*
X298621Y139892D01*
X297102Y141726D01*
X296717Y142236D01*
X296369Y142691D01*
X295360Y144075D01*
X294590Y145296D01*
X294313Y146044D01*
X294384Y146408D01*
X294454Y146478D01*
G37*
G36*
X325965Y215494D02*X325986Y215559D01*
X326692Y215814D01*
X326806Y215798D01*
X326947Y215787D01*
X327370Y215597D01*
X327500Y215125D01*
Y214805D01*
X327375Y214333D01*
X326903Y214208D01*
X326545D01*
X325943Y214561D01*
X325883Y215299D01*
X325965Y215494D01*
G37*
G36*
Y211452D02*X325986Y211517D01*
X326692Y211772D01*
X326806Y211756D01*
X326947Y211745D01*
X327370Y211556D01*
X327500Y211083D01*
Y210763D01*
X327375Y210291D01*
X326903Y210167D01*
X326545D01*
X325943Y210519D01*
X325883Y211257D01*
X325965Y211452D01*
G37*
G36*
Y207411D02*X325986Y207476D01*
X326692Y207731D01*
X326806Y207714D01*
X326947Y207703D01*
X327370Y207514D01*
X327500Y207042D01*
Y206727D01*
X327375Y206250D01*
X326903Y206125D01*
X326545D01*
X325943Y206477D01*
X325883Y207215D01*
X325965Y207411D01*
G37*
G36*
X271831Y215494D02*X271874Y215549D01*
X272715Y215809D01*
X272807Y215798D01*
X272943Y215782D01*
X273339Y215597D01*
X273464Y215125D01*
Y214805D01*
X273328Y214322D01*
X272834Y214149D01*
X272666Y214132D01*
X272509Y214116D01*
X271728Y214480D01*
X271695Y214583D01*
X271668Y214659D01*
X271782Y215440D01*
X271831Y215494D01*
G37*
G36*
Y211452D02*X271874Y211507D01*
X272715Y211767D01*
X272807Y211756D01*
X272943Y211740D01*
X273339Y211556D01*
X273464Y211083D01*
Y210763D01*
X273328Y210281D01*
X272834Y210107D01*
X272666Y210091D01*
X272509Y210080D01*
X271728Y210443D01*
X271695Y210546D01*
X271668Y210622D01*
X271782Y211398D01*
X271831Y211452D01*
G37*
G36*
Y207411D02*X271874Y207465D01*
X272715Y207725D01*
X272807Y207714D01*
X272943Y207703D01*
X273464Y207096D01*
Y206727D01*
X273328Y206244D01*
X272834Y206065D01*
X272666Y206049D01*
X272509Y206038D01*
X271728Y206401D01*
X271695Y206505D01*
X271668Y206580D01*
X271782Y207362D01*
X271831Y207411D01*
G37*
G36*
X274359Y205392D02*X274397Y205446D01*
X275238Y205707D01*
X275330Y205696D01*
X275466Y205685D01*
X275862Y205495D01*
X275986Y205023D01*
Y204703D01*
X275851Y204220D01*
X275357Y204047D01*
X275189Y204031D01*
X275032Y204020D01*
X274250Y204383D01*
X274218Y204486D01*
X274191Y204562D01*
X274310Y205338D01*
X274359Y205392D01*
G37*
G36*
X271831Y203374D02*X271874Y203428D01*
X272715Y203689D01*
X272807Y203678D01*
X272943Y203662D01*
X273464Y203054D01*
Y202685D01*
X273328Y202202D01*
X272834Y202023D01*
X272666Y202007D01*
X272509Y201996D01*
X271728Y202360D01*
X271695Y202463D01*
X271668Y202539D01*
X271782Y203320D01*
X271831Y203374D01*
G37*
G36*
X323941Y201350D02*X323984Y201475D01*
X324690Y201714D01*
X325498Y201475D01*
X325601Y201350D01*
X325645Y201296D01*
X325758Y200520D01*
X325737Y200444D01*
X325699Y200341D01*
X324907Y199978D01*
X324749Y199989D01*
X324543Y200010D01*
X323930Y200412D01*
X323865Y201161D01*
X323941Y201350D01*
G37*
G36*
X271831Y199332D02*X271874Y199386D01*
X272715Y199647D01*
X272807Y199636D01*
X272943Y199620D01*
X273339Y199435D01*
X273464Y198963D01*
Y198643D01*
X273328Y198160D01*
X272834Y197987D01*
X272666Y197970D01*
X272509Y197960D01*
X271728Y198318D01*
X271695Y198421D01*
X271668Y198497D01*
X271782Y199278D01*
X271831Y199332D01*
G37*
G36*
X275905Y194053D02*X276144Y194303D01*
X277088Y195095D01*
X277717Y195393D01*
X278162D01*
X278878Y195323D01*
X280750Y195122D01*
X283224Y194835D01*
X285985Y194504D01*
X288725Y194162D01*
X291123Y193853D01*
X292865Y193608D01*
X293516Y193516D01*
X293640Y193467D01*
X293765Y193424D01*
X294037Y192626D01*
X293809Y191726D01*
X293689Y191623D01*
X293624Y191574D01*
X293136Y191547D01*
X291753Y191617D01*
X289365Y191856D01*
X286712Y192160D01*
X285833Y192263D01*
X278308Y193169D01*
X277272Y192144D01*
X277006Y191883D01*
X275894Y191178D01*
X275037Y191265D01*
X274901Y191400D01*
X274755Y191547D01*
X274701Y192453D01*
X275579Y193728D01*
X275905Y194053D01*
G37*
G36*
X286468Y190586D02*X286723Y190657D01*
X288063Y190917D01*
X289121Y191037D01*
X289246Y191026D01*
X289425Y191021D01*
X289968Y190880D01*
X290130Y190500D01*
Y190174D01*
X289718Y189577D01*
X288248Y189143D01*
X287754Y189046D01*
X287526Y189002D01*
X286414Y188623D01*
X286522Y188590D01*
X287114Y187765D01*
X287477Y186762D01*
Y186067D01*
X287043Y184988D01*
X286175Y184125D01*
X285964Y184033D01*
X285665Y183913D01*
X284645Y183826D01*
X283419Y184174D01*
X282518Y184966D01*
X282171Y185796D01*
Y186257D01*
X282019Y186805D01*
X281661D01*
X280734Y186078D01*
X280571Y185959D01*
X279372Y185112D01*
X280028Y184597D01*
X280256Y184412D01*
X284146Y183034D01*
X284699Y182937D01*
X285101Y182872D01*
X286305Y182573D01*
X286593Y182145D01*
Y181868D01*
X286327Y181466D01*
X285009Y181401D01*
X284575Y181407D01*
X284010Y181418D01*
X281368Y181906D01*
X279209Y182921D01*
X278889Y183186D01*
X278737Y183316D01*
X277777Y183561D01*
X277679Y183496D01*
X277506Y183392D01*
X276768Y183371D01*
X276366Y183941D01*
Y184516D01*
X277343Y185671D01*
X279811Y187554D01*
X283088Y189344D01*
X285600Y190364D01*
X286468Y190586D01*
G37*
G36*
X323941Y205392D02*X323984Y205517D01*
X324690Y205756D01*
X325498Y205517D01*
X325601Y205392D01*
X325645Y205338D01*
X325758Y204562D01*
X325737Y204486D01*
X325699Y204383D01*
X324907Y204020D01*
X324749Y204031D01*
X324543Y204052D01*
X323930Y204454D01*
X323865Y205202D01*
X323941Y205392D01*
G37*
G36*
X325965Y203374D02*X325986Y203439D01*
X326692Y203694D01*
X326806Y203678D01*
X326947Y203667D01*
X327370Y203472D01*
X327500Y203000D01*
Y202685D01*
X327375Y202208D01*
X326903Y202083D01*
X326545D01*
X325943Y202436D01*
X325883Y203179D01*
X325965Y203374D01*
G37*
G36*
Y199332D02*X325986Y199397D01*
X326692Y199652D01*
X326806Y199636D01*
X326947Y199625D01*
X327370Y199435D01*
X327500Y198963D01*
Y198643D01*
X327375Y198171D01*
X326903Y198046D01*
X326545D01*
X325943Y198399D01*
X325883Y199137D01*
X325965Y199332D01*
G37*
G36*
X312857Y194466D02*X314235Y194639D01*
X318391Y195133D01*
X321245Y195312D01*
X322574Y194954D01*
X323317Y194254D01*
X323556Y194005D01*
X323876Y193668D01*
X324744Y192404D01*
X324684Y191541D01*
X324549Y191400D01*
X324408Y191265D01*
X323550Y191172D01*
X322438Y191872D01*
X322172Y192133D01*
X321114Y193169D01*
X313628Y192274D01*
X312890Y192187D01*
X310687Y191937D01*
X308229Y191682D01*
X306509Y191536D01*
X305831Y191498D01*
X305782Y191514D01*
X305647Y191569D01*
X305256Y192317D01*
X305327Y193153D01*
X305430Y193250D01*
X305484Y193310D01*
X307513Y193739D01*
X311712Y194330D01*
X312857Y194466D01*
G37*
G36*
X309369Y190950D02*X309504Y191091D01*
X310394Y191080D01*
X312336Y190711D01*
X314740Y189968D01*
X316563Y189246D01*
X317148Y188959D01*
X317724Y188682D01*
X320670Y186794D01*
X322715Y184998D01*
X322845Y184760D01*
X322943Y184581D01*
X322932Y183745D01*
X322378Y183273D01*
X322010D01*
X321456Y183490D01*
X321440Y183523D01*
X321418Y183561D01*
X320599Y183262D01*
X320480Y183170D01*
X320138Y182915D01*
X317979Y181917D01*
X315396Y181353D01*
X314848Y181315D01*
X314420Y181287D01*
X313145Y181277D01*
X312683Y181494D01*
X312656Y181580D01*
X312586Y181760D01*
X312846Y182465D01*
X314322Y182888D01*
X314826Y182958D01*
X315336Y183034D01*
X317968Y183832D01*
X319677Y184787D01*
X319726Y184939D01*
X319747Y185004D01*
X318760Y185970D01*
X317756Y186805D01*
X317387D01*
X317273Y186431D01*
Y185937D01*
X316785Y184846D01*
X315597Y183957D01*
X314110Y183794D01*
X312982Y184250D01*
X312721Y184510D01*
X312488Y184743D01*
X311951Y186301D01*
X312266Y187896D01*
X312466Y188145D01*
X312982Y188802D01*
X311517Y189084D01*
X311013Y189181D01*
X309520Y189566D01*
X309195Y190039D01*
Y190375D01*
X309341Y190928D01*
X309369Y190950D01*
G37*
G36*
X283283Y237716D02*X283332Y237858D01*
X284184Y238096D01*
X285020Y237760D01*
X285068Y237613D01*
X285133Y237407D01*
X284998Y236642D01*
X284303Y236344D01*
X284092Y236360D01*
X283886Y236382D01*
X283273Y236778D01*
X283208Y237527D01*
X283283Y237716D01*
G37*
G36*
X287830D02*X287873Y237836D01*
X288579Y238075D01*
X289382Y237836D01*
X289485Y237716D01*
X289528Y237662D01*
X289647Y236881D01*
X289626Y236805D01*
X289588Y236702D01*
X288796Y236344D01*
X288638Y236355D01*
X288432Y236376D01*
X287819Y236778D01*
X287754Y237527D01*
X287830Y237716D01*
G37*
G36*
X292382D02*X292431Y237847D01*
X293158Y238058D01*
X293939Y237733D01*
X294015Y237592D01*
X294102Y237429D01*
X293944Y236675D01*
X293228Y236311D01*
X293033Y236338D01*
X292876Y236366D01*
X292371Y236811D01*
X292317Y237548D01*
X292382Y237716D01*
G37*
G36*
X296923D02*X296944Y237782D01*
X297655Y238037D01*
X297769Y238020D01*
X297910Y238010D01*
X298328Y237820D01*
X298464Y237348D01*
Y237027D01*
X298339Y236556D01*
X297861Y236431D01*
X297503D01*
X296901Y236783D01*
X296841Y237521D01*
X296923Y237716D01*
G37*
G36*
X301469D02*X301491Y237782D01*
X302196Y238037D01*
X302310Y238020D01*
X302451Y238010D01*
X302874Y237820D01*
X303005Y237348D01*
Y237027D01*
X302880Y236556D01*
X302408Y236431D01*
X302050D01*
X301448Y236783D01*
X301388Y237521D01*
X301469Y237716D01*
G37*
G36*
X305907Y237689D02*X305951Y237749D01*
X306797Y238031D01*
X306895Y238020D01*
X307030Y238010D01*
X307426Y237820D01*
X307551Y237348D01*
Y237033D01*
X307421Y236566D01*
X306965Y236431D01*
X306574D01*
X305842Y236843D01*
X305793Y237559D01*
X305907Y237689D01*
G37*
G36*
X310351Y237613D02*X310378Y237706D01*
X311148Y238037D01*
X311300Y238020D01*
X311468Y238004D01*
X311962Y237830D01*
X312098Y237348D01*
Y237027D01*
X311956Y236550D01*
X311479Y236371D01*
X311316Y236355D01*
X311099Y236338D01*
X310410Y236642D01*
X310280Y237407D01*
X310351Y237613D01*
G37*
G36*
X314897D02*X314924Y237706D01*
X315694Y238037D01*
X315846Y238020D01*
X316015Y238004D01*
X316508Y237830D01*
X316644Y237348D01*
Y237027D01*
X316503Y236550D01*
X316025Y236371D01*
X315863Y236355D01*
X315646Y236338D01*
X314951Y236642D01*
X314826Y237407D01*
X314897Y237613D01*
G37*
G36*
X280755Y235698D02*X280810Y235839D01*
X281656Y236073D01*
X282491Y235742D01*
X282540Y235595D01*
X282605Y235389D01*
X282475Y234624D01*
X281781Y234320D01*
X281569Y234336D01*
X281363Y234358D01*
X280744Y234754D01*
X280679Y235503D01*
X280755Y235698D01*
G37*
G36*
X285307D02*X285351Y235818D01*
X286050Y236056D01*
X286859Y235818D01*
X286962Y235698D01*
X287005Y235644D01*
X287119Y234863D01*
X287098Y234787D01*
X287060Y234684D01*
X286273Y234320D01*
X286116Y234336D01*
X285909Y234358D01*
X285291Y234754D01*
X285231Y235503D01*
X285307Y235698D01*
G37*
G36*
X289854D02*X289902Y235828D01*
X290635Y236040D01*
X291416Y235709D01*
X291492Y235568D01*
X291579Y235405D01*
X291422Y234657D01*
X290700Y234293D01*
X290505Y234320D01*
X290347Y234347D01*
X289848Y234792D01*
X289788Y235530D01*
X289854Y235698D01*
G37*
G36*
X294400D02*X294422Y235763D01*
X295127Y236013D01*
X295241Y235997D01*
X295382Y235986D01*
X295805Y235796D01*
X295935Y235324D01*
Y235009D01*
X295811Y234532D01*
X295339Y234407D01*
X294981D01*
X294378Y234760D01*
X294319Y235503D01*
X294400Y235698D01*
G37*
G36*
X298941D02*X298963Y235763D01*
X299673Y236013D01*
X299787Y235997D01*
X299928Y235986D01*
X300352Y235796D01*
X300482Y235324D01*
Y235009D01*
X300357Y234532D01*
X299880Y234407D01*
X299522D01*
X298925Y234760D01*
X298865Y235503D01*
X298941Y235698D01*
G37*
G36*
X303384Y235671D02*X303428Y235731D01*
X304274Y236013D01*
X304372Y235997D01*
X304508Y235986D01*
X304903Y235796D01*
X305028Y235324D01*
Y235015D01*
X304898Y234543D01*
X304442Y234407D01*
X304046D01*
X303314Y234819D01*
X303270Y235536D01*
X303384Y235671D01*
G37*
G36*
X307828Y235595D02*X307855Y235687D01*
X308625Y236013D01*
X308777Y235997D01*
X308945Y235986D01*
X309439Y235812D01*
X309575Y235329D01*
Y235009D01*
X309434Y234526D01*
X308951Y234353D01*
X308788Y234336D01*
X308571Y234320D01*
X307882Y234624D01*
X307757Y235389D01*
X307828Y235595D01*
G37*
G36*
X312374D02*X312401Y235687D01*
X313172Y236013D01*
X313324Y235997D01*
X313486Y235986D01*
X313980Y235812D01*
X314116Y235329D01*
Y235009D01*
X313980Y234526D01*
X313497Y234353D01*
X313334Y234336D01*
X313118Y234320D01*
X312428Y234624D01*
X312304Y235389D01*
X312374Y235595D01*
G37*
G36*
X316866Y235698D02*X316921Y235839D01*
X317772Y236073D01*
X318603Y235742D01*
X318651Y235595D01*
X318716Y235389D01*
X318586Y234624D01*
X317892Y234320D01*
X317680Y234336D01*
X317474Y234358D01*
X316856Y234754D01*
X316790Y235503D01*
X316866Y235698D01*
G37*
G36*
X278786Y233577D02*X278813Y233669D01*
X279583Y233995D01*
X279735Y233978D01*
X279903Y233968D01*
X280397Y233794D01*
X280533Y233306D01*
Y232986D01*
X280392Y232508D01*
X279914Y232335D01*
X279752Y232318D01*
X279535Y232302D01*
X278840Y232600D01*
X278715Y233365D01*
X278786Y233577D01*
G37*
G36*
X292382Y233675D02*X292431Y233805D01*
X293158Y234016D01*
X293939Y233691D01*
X294015Y233550D01*
X294102Y233387D01*
X293944Y232633D01*
X293228Y232275D01*
X293033Y232302D01*
X292876Y232329D01*
X292371Y232769D01*
X292317Y233506D01*
X292382Y233675D01*
G37*
G36*
X296923D02*X296944Y233740D01*
X297655Y233995D01*
X297769Y233978D01*
X297910Y233968D01*
X298328Y233778D01*
X298464Y233306D01*
Y232986D01*
X298339Y232514D01*
X297861Y232389D01*
X297503D01*
X296901Y232741D01*
X296841Y233479D01*
X296923Y233675D01*
G37*
G36*
X301469D02*X301491Y233740D01*
X302196Y233995D01*
X302310Y233978D01*
X302451Y233968D01*
X302874Y233778D01*
X303005Y233306D01*
Y232986D01*
X302880Y232514D01*
X302408Y232389D01*
X302050D01*
X301448Y232741D01*
X301388Y233479D01*
X301469Y233675D01*
G37*
G36*
X305907Y233653D02*X305951Y233713D01*
X306797Y233989D01*
X306895Y233978D01*
X307030Y233968D01*
X307426Y233778D01*
X307551Y233306D01*
Y232991D01*
X307421Y232524D01*
X306965Y232389D01*
X306574D01*
X305842Y232801D01*
X305793Y233517D01*
X305907Y233653D01*
G37*
G36*
X319395Y233675D02*X319443Y233816D01*
X320295Y234054D01*
X321131Y233723D01*
X321180Y233577D01*
X321245Y233365D01*
X321109Y232600D01*
X320415Y232302D01*
X320203Y232318D01*
X319997Y232340D01*
X319384Y232736D01*
X319319Y233485D01*
X319395Y233675D01*
G37*
G36*
X276258Y231553D02*X276285Y231646D01*
X277061Y231976D01*
X277213Y231960D01*
X277375Y231944D01*
X277869Y231770D01*
X278005Y231287D01*
Y230967D01*
X277869Y230490D01*
X277386Y230311D01*
X277223Y230295D01*
X277006Y230278D01*
X276317Y230582D01*
X276187Y231347D01*
X276258Y231553D01*
G37*
G36*
X294400Y231656D02*X294422Y231721D01*
X295127Y231976D01*
X295241Y231960D01*
X295382Y231949D01*
X295805Y231754D01*
X295935Y231282D01*
Y230967D01*
X295811Y230490D01*
X295339Y230365D01*
X294981D01*
X294378Y230718D01*
X294319Y231461D01*
X294400Y231656D01*
G37*
G36*
X298941D02*X298963Y231721D01*
X299673Y231976D01*
X299787Y231960D01*
X299928Y231949D01*
X300352Y231754D01*
X300482Y231282D01*
Y230967D01*
X300357Y230490D01*
X299880Y230365D01*
X299522D01*
X298925Y230718D01*
X298865Y231461D01*
X298941Y231656D01*
G37*
G36*
X303384Y231629D02*X303428Y231689D01*
X304274Y231971D01*
X304372Y231960D01*
X304508Y231944D01*
X304903Y231754D01*
X305028Y231282D01*
Y230973D01*
X304898Y230501D01*
X304442Y230365D01*
X304046D01*
X303314Y230777D01*
X303270Y231494D01*
X303384Y231629D01*
G37*
G36*
X321418Y231656D02*X321462Y231776D01*
X322162Y232014D01*
X322970Y231776D01*
X323073Y231656D01*
X323116Y231602D01*
X323230Y230821D01*
X323209Y230745D01*
X323171Y230642D01*
X322384Y230284D01*
X322227Y230295D01*
X322020Y230316D01*
X321402Y230718D01*
X321342Y231466D01*
X321418Y231656D01*
G37*
G36*
X274359Y229633D02*X274397Y229687D01*
X275238Y229947D01*
X275330Y229937D01*
X275466Y229926D01*
X275862Y229736D01*
X275986Y229264D01*
Y228949D01*
X275851Y228466D01*
X275357Y228287D01*
X275189Y228271D01*
X275032Y228260D01*
X274250Y228624D01*
X274218Y228727D01*
X274191Y228803D01*
X274310Y229584D01*
X274359Y229633D01*
G37*
G36*
X323941D02*X323984Y229757D01*
X324690Y229996D01*
X325498Y229757D01*
X325601Y229633D01*
X325645Y229584D01*
X325758Y228803D01*
X325737Y228727D01*
X325699Y228624D01*
X324907Y228260D01*
X324749Y228276D01*
X324543Y228298D01*
X323930Y228694D01*
X323865Y229443D01*
X323941Y229633D01*
G37*
G36*
X271831Y227615D02*X271874Y227669D01*
X272715Y227929D01*
X272807Y227918D01*
X272943Y227902D01*
X273339Y227718D01*
X273464Y227246D01*
Y226926D01*
X273328Y226443D01*
X272834Y226269D01*
X272666Y226253D01*
X272509Y226242D01*
X271728Y226605D01*
X271695Y226708D01*
X271668Y226784D01*
X271782Y227560D01*
X271831Y227615D01*
G37*
G36*
X325965D02*X325986Y227680D01*
X326692Y227935D01*
X326806Y227918D01*
X326947Y227907D01*
X327370Y227718D01*
X327500Y227246D01*
Y226926D01*
X327375Y226453D01*
X326903Y226329D01*
X326545D01*
X325943Y226681D01*
X325883Y227419D01*
X325965Y227615D01*
G37*
G36*
X271831Y223573D02*X271874Y223627D01*
X272715Y223887D01*
X272807Y223876D01*
X272943Y223866D01*
X273464Y223258D01*
Y222889D01*
X273328Y222401D01*
X272834Y222227D01*
X272666Y222211D01*
X272509Y222200D01*
X271728Y222564D01*
X271695Y222667D01*
X271668Y222743D01*
X271782Y223518D01*
X271831Y223573D01*
G37*
G36*
X325965D02*X325986Y223638D01*
X326692Y223893D01*
X326806Y223876D01*
X326947Y223866D01*
X327370Y223676D01*
X327500Y223204D01*
Y222889D01*
X327375Y222412D01*
X326903Y222287D01*
X326545D01*
X325943Y222639D01*
X325883Y223377D01*
X325965Y223573D01*
G37*
G36*
X271831Y219536D02*X271874Y219590D01*
X272715Y219851D01*
X272807Y219840D01*
X272943Y219824D01*
X273464Y219216D01*
Y218847D01*
X273328Y218364D01*
X272834Y218185D01*
X272666Y218169D01*
X272509Y218158D01*
X271728Y218522D01*
X271695Y218625D01*
X271668Y218701D01*
X271782Y219482D01*
X271831Y219536D01*
G37*
G36*
X325965D02*X325986Y219601D01*
X326692Y219856D01*
X326806Y219840D01*
X326947Y219829D01*
X327370Y219634D01*
X327500Y219162D01*
Y218847D01*
X327375Y218370D01*
X326903Y218245D01*
X326545D01*
X325943Y218598D01*
X325883Y219341D01*
X325965Y219536D01*
G37*
G54D70*X112500Y22500D02*X117500D01*
X135000Y25000D02*Y20000D01*
X132500Y22500D02*X137500D01*
X152500D02*X157500D01*
X175000Y25000D02*Y20000D01*
X172500Y22500D02*X177500D01*
X192500D02*X197500D01*
X215000Y25000D02*Y20000D01*
X212500Y22500D02*X217500D01*
X232500D02*X237500D01*
X599500Y500D02*X500D01*
X55000Y25000D02*Y20000D01*
X52500Y22500D02*X57500D01*
X72500D02*X77500D01*
X95000Y25000D02*Y20000D01*
X15000Y25000D02*Y20000D01*
X12500Y22500D02*X17500D01*
X32500D02*X37500D01*
X5000Y27000D02*Y2500D01*
X16000Y72000D02*Y69000D01*
X14500Y70500D02*X17500D01*
X92500Y22500D02*X97500D01*
X96000Y72000D02*Y69000D01*
X94500Y70500D02*X97500D01*
X45000Y27000D02*Y2500D01*
X56000Y72000D02*Y69000D01*
X54500Y70500D02*X57500D01*
X85000Y27000D02*Y2500D01*
X500Y500D02*Y399500D01*
X427500Y13500D02*X432500D01*
X447500D02*X452500D01*
X450000Y16000D02*Y11000D01*
X475500Y45500D02*Y42500D01*
X474000Y44000D02*X477000D01*
X504000Y363000D02*X461000D01*
X458500Y365500D01*
X461000Y396000D02*X458500Y393500D01*
Y365500D02*Y393500D01*
X504000Y363000D02*X506500Y365500D01*
X504000Y396000D02*X461000D01*
X504000D02*X506500Y393500D01*
Y365500D02*Y393500D01*
X599500Y399500D02*Y500D01*
X335500Y363000D02*X292500D01*
X335500Y396000D02*X292500D01*
X290000Y393500D01*
X335500Y396000D02*X338000Y393500D01*
Y365500D02*Y393500D01*
X290000Y365500D02*Y393500D01*
X292500Y363000D02*X290000Y365500D01*
X335500Y363000D02*X338000Y365500D01*
X153500Y362500D02*X110500D01*
X108000Y365000D01*
X110500Y395500D02*X108000Y393000D01*
Y365000D02*Y393000D01*
X153500Y362500D02*X156000Y365000D01*
X153500Y395500D02*X110500D01*
X153500D02*X156000Y393000D01*
Y365000D02*Y393000D01*
X500Y399500D02*X599500D01*
X125000Y27000D02*Y2500D01*
X165000Y27000D02*Y2500D01*
X176000Y72000D02*Y69000D01*
X136000Y72000D02*Y69000D01*
X134500Y70500D02*X137500D01*
X205000Y27000D02*Y2500D01*
X245000Y27000D02*Y2500D01*
X216000Y72000D02*Y69000D01*
X214500Y70500D02*X217500D01*
X174500D02*X177500D01*
G54D71*X33320Y220340D02*X34150Y219510D01*
X30830Y220340D02*X33320D01*
X30000Y219510D02*X30830Y220340D01*
X30000Y219510D02*Y217850D01*
X30830Y217020D01*
X33320D01*
X34150Y216190D01*
Y214530D01*
X33320Y213700D02*X34150Y214530D01*
X30830Y213700D02*X33320D01*
X30000Y214530D02*X30830Y213700D01*
X36142Y220340D02*Y217020D01*
X36972Y213700D01*
X38632Y217020D01*
X40292Y213700D01*
X41122Y217020D01*
Y220340D02*Y217020D01*
X43114Y220340D02*X44774D01*
X43944D02*Y213700D01*
X43114D02*X44774D01*
X46766Y220340D02*X50086D01*
X48426D02*Y213700D01*
X53240D02*X55398D01*
X52078Y214862D02*X53240Y213700D01*
X52078Y219178D02*Y214862D01*
Y219178D02*X53240Y220340D01*
X55398D01*
X57390D02*Y213700D01*
X61540Y220340D02*Y213700D01*
X57390Y217020D02*X61540D01*
X66520Y216190D02*X69840D01*
X66520Y217850D02*X69840D01*
X69010Y218680D02*Y215360D01*
X67350Y218680D02*Y215360D01*
X71832Y219510D02*X72662Y220340D01*
X74322D01*
X75152Y219510D01*
X74322Y213700D02*X75152Y214530D01*
X72662Y213700D02*X74322D01*
X71832Y214530D02*X72662Y213700D01*
Y217352D02*X74322D01*
X75152Y219510D02*Y218182D01*
Y216522D02*Y214530D01*
Y216522D02*X74322Y217352D01*
X75152Y218182D02*X74322Y217352D01*
X13400Y16800D02*X14000Y16200D01*
X11600Y16800D02*X13400D01*
X11000Y16200D02*X11600Y16800D01*
X11000Y16200D02*Y15000D01*
X11600Y14400D01*
X13400D01*
X14000Y13800D01*
Y12600D01*
X13400Y12000D02*X14000Y12600D01*
X11600Y12000D02*X13400D01*
X11000Y12600D02*X11600Y12000D01*
X15440Y14400D02*Y12600D01*
X16040Y12000D01*
X16640D01*
X17240Y12600D01*
Y14400D02*Y12600D01*
X17840Y12000D01*
X18440D01*
X19040Y12600D01*
Y14400D02*Y12600D01*
X20480Y15600D02*Y15480D01*
Y13800D02*Y12000D01*
X22280Y16800D02*Y12600D01*
X22880Y12000D01*
X21680Y15000D02*X22880D01*
X24680Y14400D02*X26480D01*
X24080Y13800D02*X24680Y14400D01*
X24080Y13800D02*Y12600D01*
X24680Y12000D01*
X26480D01*
X27920Y16800D02*Y12000D01*
Y13800D02*X28520Y14400D01*
X29720D01*
X30320Y13800D01*
Y12000D01*
X33920Y13800D02*X36320D01*
X33920Y15000D02*X36320D01*
X35720Y15600D02*Y13200D01*
X34520Y15600D02*Y13200D01*
X37760Y16200D02*X38360Y16800D01*
X39560D01*
X40160Y16200D01*
X39560Y12000D02*X40160Y12600D01*
X38360Y12000D02*X39560D01*
X37760Y12600D02*X38360Y12000D01*
Y14640D02*X39560D01*
X40160Y16200D02*Y15240D01*
Y14040D02*Y12600D01*
Y14040D02*X39560Y14640D01*
X40160Y15240D02*X39560Y14640D01*
X53400Y16800D02*X54000Y16200D01*
X51600Y16800D02*X53400D01*
X51000Y16200D02*X51600Y16800D01*
X51000Y16200D02*Y15000D01*
X51600Y14400D01*
X53400D01*
X54000Y13800D01*
Y12600D01*
X53400Y12000D02*X54000Y12600D01*
X51600Y12000D02*X53400D01*
X51000Y12600D02*X51600Y12000D01*
X55440Y14400D02*Y12600D01*
X56040Y12000D01*
X56640D01*
X57240Y12600D01*
Y14400D02*Y12600D01*
X57840Y12000D01*
X58440D01*
X59040Y12600D01*
Y14400D02*Y12600D01*
X60480Y15600D02*Y15480D01*
Y13800D02*Y12000D01*
X62280Y16800D02*Y12600D01*
X62880Y12000D01*
X61680Y15000D02*X62880D01*
X64680Y14400D02*X66480D01*
X64080Y13800D02*X64680Y14400D01*
X64080Y13800D02*Y12600D01*
X64680Y12000D01*
X66480D01*
X67920Y16800D02*Y12000D01*
Y13800D02*X68520Y14400D01*
X69720D01*
X70320Y13800D01*
Y12000D01*
X73920Y13800D02*X76320D01*
X73920Y15000D02*X76320D01*
X75720Y15600D02*Y13200D01*
X74520Y15600D02*Y13200D01*
X77760Y16200D02*X78360Y16800D01*
X79560D01*
X80160Y16200D01*
X79560Y12000D02*X80160Y12600D01*
X78360Y12000D02*X79560D01*
X77760Y12600D02*X78360Y12000D01*
Y14640D02*X79560D01*
X80160Y16200D02*Y15240D01*
Y14040D02*Y12600D01*
Y14040D02*X79560Y14640D01*
X80160Y15240D02*X79560Y14640D01*
X93400Y16800D02*X94000Y16200D01*
X91600Y16800D02*X93400D01*
X91000Y16200D02*X91600Y16800D01*
X91000Y16200D02*Y15000D01*
X91600Y14400D01*
X93400D01*
X94000Y13800D01*
Y12600D01*
X93400Y12000D02*X94000Y12600D01*
X91600Y12000D02*X93400D01*
X91000Y12600D02*X91600Y12000D01*
X95440Y14400D02*Y12600D01*
X96040Y12000D01*
X96640D01*
X97240Y12600D01*
Y14400D02*Y12600D01*
X97840Y12000D01*
X98440D01*
X99040Y12600D01*
Y14400D02*Y12600D01*
X100480Y15600D02*Y15480D01*
Y13800D02*Y12000D01*
X102280Y16800D02*Y12600D01*
X102880Y12000D01*
X101680Y15000D02*X102880D01*
X104680Y14400D02*X106480D01*
X104080Y13800D02*X104680Y14400D01*
X104080Y13800D02*Y12600D01*
X104680Y12000D01*
X106480D01*
X107920Y16800D02*Y12000D01*
Y13800D02*X108520Y14400D01*
X109720D01*
X110320Y13800D01*
Y12000D01*
X113920Y13800D02*X116320D01*
X113920Y15000D02*X116320D01*
X115720Y15600D02*Y13200D01*
X114520Y15600D02*Y13200D01*
X117760Y16200D02*X118360Y16800D01*
X120160D01*
X120760Y16200D01*
Y15000D01*
X117760Y12000D02*X120760Y15000D01*
X117760Y12000D02*X120760D01*
X65680Y390160D02*X64850Y390990D01*
X65680Y390160D02*X68170D01*
X69000Y390990D02*X68170Y390160D01*
X69000Y392650D02*Y390990D01*
Y392650D02*X68170Y393480D01*
X65680D02*X68170D01*
X65680D02*X64850Y394310D01*
Y395970D02*Y394310D01*
X65680Y396800D02*X64850Y395970D01*
X65680Y396800D02*X68170D01*
X69000Y395970D02*X68170Y396800D01*
X62858Y395970D02*Y393480D01*
Y395970D02*X62028Y396800D01*
X61198D02*X62028D01*
X61198D02*X60368Y395970D01*
Y393480D01*
Y395970D02*X59538Y396800D01*
X58708D02*X59538D01*
X58708D02*X57878Y395970D01*
Y393480D01*
G54D72*X55886Y391986D02*Y391820D01*
G54D71*Y396800D02*Y394310D01*
X53396Y395970D02*Y390160D01*
Y395970D02*X52566Y396800D01*
Y392650D02*X54226D01*
X47586Y393480D02*X50076D01*
X50906Y394310D02*X50076Y393480D01*
X50906Y395970D02*Y394310D01*
Y395970D02*X50076Y396800D01*
X47586D02*X50076D01*
X45594D02*Y390160D01*
Y394310D02*X44764Y393480D01*
X43104D02*X44764D01*
X43104D02*X42274Y394310D01*
Y396800D02*Y394310D01*
X33974D02*X37294D01*
X33974Y392650D02*X37294D01*
X34804Y395140D02*Y391820D01*
X36464Y395140D02*Y391820D01*
X31982Y390990D02*X31152Y390160D01*
X29492D02*X31152D01*
X29492D02*X28662Y390990D01*
X29492Y396800D02*X28662Y395970D01*
X29492Y396800D02*X31152D01*
X31982Y395970D02*X31152Y396800D01*
X29492Y393148D02*X31152D01*
X28662Y392318D02*Y390990D01*
Y395970D02*Y393978D01*
X29492Y393148D01*
X28662Y392318D02*X29492Y393148D01*
X23682Y396800D02*Y391820D01*
X22520Y390160D01*
X20694D02*X22520D01*
X20694D02*X19532Y391820D01*
Y396800D02*Y391820D01*
Y393480D02*X23682D01*
X14220Y396800D02*X16378D01*
X17540Y395638D02*X16378Y396800D01*
X17540Y395638D02*Y391322D01*
X16378Y390160D01*
X14220D02*X16378D01*
X133400Y16800D02*X134000Y16200D01*
X131600Y16800D02*X133400D01*
X131000Y16200D02*X131600Y16800D01*
X131000Y16200D02*Y15000D01*
X131600Y14400D01*
X133400D01*
X134000Y13800D01*
Y12600D01*
X133400Y12000D02*X134000Y12600D01*
X131600Y12000D02*X133400D01*
X131000Y12600D02*X131600Y12000D01*
X135440Y14400D02*Y12600D01*
X136040Y12000D01*
X136640D01*
X137240Y12600D01*
Y14400D02*Y12600D01*
X137840Y12000D01*
X138440D01*
X139040Y12600D01*
Y14400D02*Y12600D01*
X140480Y15600D02*Y15480D01*
Y13800D02*Y12000D01*
X142280Y16800D02*Y12600D01*
X142880Y12000D01*
X141680Y15000D02*X142880D01*
X144680Y14400D02*X146480D01*
X144080Y13800D02*X144680Y14400D01*
X144080Y13800D02*Y12600D01*
X144680Y12000D01*
X146480D01*
X147920Y16800D02*Y12000D01*
Y13800D02*X148520Y14400D01*
X149720D01*
X150320Y13800D01*
Y12000D01*
X153920Y13800D02*X156320D01*
X153920Y15000D02*X156320D01*
X155720Y15600D02*Y13200D01*
X154520Y15600D02*Y13200D01*
X157760Y16200D02*X158360Y16800D01*
X160160D01*
X160760Y16200D01*
Y15000D01*
X157760Y12000D02*X160760Y15000D01*
X157760Y12000D02*X160760D01*
X133000Y8800D02*Y7600D01*
X134200Y8800D02*Y7600D01*
X135640Y8200D02*Y4600D01*
Y8200D02*X136240Y8800D01*
X137440D01*
X138040Y8200D01*
Y4600D01*
X137440Y4000D02*X138040Y4600D01*
X136240Y4000D02*X137440D01*
X135640Y4600D02*X136240Y4000D01*
X140080Y5800D02*Y4000D01*
Y5800D02*X140680Y6400D01*
X141280D01*
X141880Y5800D01*
Y4000D01*
X139480Y6400D02*X140080Y5800D01*
X143320Y8800D02*Y7600D01*
X144520Y8800D02*Y7600D01*
X148120Y8800D02*Y4000D01*
X150520D01*
X151960Y6640D02*X153760D01*
X151960Y4000D02*X154360D01*
X151960Y8800D02*Y4000D01*
Y8800D02*X154360D01*
X156400D02*Y4000D01*
X157960Y8800D02*X158800Y7960D01*
Y4840D01*
X157960Y4000D02*X158800Y4840D01*
X155800Y4000D02*X157960D01*
X155800Y8800D02*X157960D01*
X173400Y16800D02*X174000Y16200D01*
X171600Y16800D02*X173400D01*
X171000Y16200D02*X171600Y16800D01*
X171000Y16200D02*Y15000D01*
X171600Y14400D01*
X173400D01*
X174000Y13800D01*
Y12600D01*
X173400Y12000D02*X174000Y12600D01*
X171600Y12000D02*X173400D01*
X171000Y12600D02*X171600Y12000D01*
X175440Y14400D02*Y12600D01*
X176040Y12000D01*
X176640D01*
X177240Y12600D01*
Y14400D02*Y12600D01*
X177840Y12000D01*
X178440D01*
X179040Y12600D01*
Y14400D02*Y12600D01*
X180480Y15600D02*Y15480D01*
Y13800D02*Y12000D01*
X182280Y16800D02*Y12600D01*
X182880Y12000D01*
X181680Y15000D02*X182880D01*
X184680Y14400D02*X186480D01*
X184080Y13800D02*X184680Y14400D01*
X184080Y13800D02*Y12600D01*
X184680Y12000D01*
X186480D01*
X187920Y16800D02*Y12000D01*
Y13800D02*X188520Y14400D01*
X189720D01*
X190320Y13800D01*
Y12000D01*
X193920Y13800D02*X196320D01*
X193920Y15000D02*X196320D01*
X195720Y15600D02*Y13200D01*
X194520Y15600D02*Y13200D01*
X197760Y15840D02*X198720Y16800D01*
Y12000D01*
X197760D02*X199560D01*
X171500Y8800D02*Y7600D01*
X172700Y8800D02*Y7600D01*
X174140Y8200D02*Y4600D01*
Y8200D02*X174740Y8800D01*
X175940D01*
X176540Y8200D01*
Y4600D01*
X175940Y4000D02*X176540Y4600D01*
X174740Y4000D02*X175940D01*
X174140Y4600D02*X174740Y4000D01*
X178580Y8200D02*Y4000D01*
Y8200D02*X179180Y8800D01*
X179780D01*
X177980Y6400D02*X179180D01*
X181580Y8200D02*Y4000D01*
Y8200D02*X182180Y8800D01*
X182780D01*
X180980Y6400D02*X182180D01*
X183980Y8800D02*Y7600D01*
X185180Y8800D02*Y7600D01*
X188780Y8800D02*Y4000D01*
X191180D01*
X192620Y6640D02*X194420D01*
X192620Y4000D02*X195020D01*
X192620Y8800D02*Y4000D01*
Y8800D02*X195020D01*
X197060D02*Y4000D01*
X198620Y8800D02*X199460Y7960D01*
Y4840D01*
X198620Y4000D02*X199460Y4840D01*
X196460Y4000D02*X198620D01*
X196460Y8800D02*X198620D01*
X213400Y16800D02*X214000Y16200D01*
X211600Y16800D02*X213400D01*
X211000Y16200D02*X211600Y16800D01*
X211000Y16200D02*Y15000D01*
X211600Y14400D01*
X213400D01*
X214000Y13800D01*
Y12600D01*
X213400Y12000D02*X214000Y12600D01*
X211600Y12000D02*X213400D01*
X211000Y12600D02*X211600Y12000D01*
X215440Y14400D02*Y12600D01*
X216040Y12000D01*
X216640D01*
X217240Y12600D01*
Y14400D02*Y12600D01*
X217840Y12000D01*
X218440D01*
X219040Y12600D01*
Y14400D02*Y12600D01*
X220480Y15600D02*Y15480D01*
Y13800D02*Y12000D01*
X222280Y16800D02*Y12600D01*
X222880Y12000D01*
X221680Y15000D02*X222880D01*
X224680Y14400D02*X226480D01*
X224080Y13800D02*X224680Y14400D01*
X224080Y13800D02*Y12600D01*
X224680Y12000D01*
X226480D01*
X227920Y16800D02*Y12000D01*
Y13800D02*X228520Y14400D01*
X229720D01*
X230320Y13800D01*
Y12000D01*
X233920Y13800D02*X236320D01*
X233920Y15000D02*X236320D01*
X235720Y15600D02*Y13200D01*
X234520Y15600D02*Y13200D01*
X237760Y15840D02*X238720Y16800D01*
Y12000D01*
X237760D02*X239560D01*
X213000Y8800D02*Y7600D01*
X214200Y8800D02*Y7600D01*
X215640Y8200D02*Y4600D01*
Y8200D02*X216240Y8800D01*
X217440D01*
X218040Y8200D01*
Y4600D01*
X217440Y4000D02*X218040Y4600D01*
X216240Y4000D02*X217440D01*
X215640Y4600D02*X216240Y4000D01*
X220080Y5800D02*Y4000D01*
Y5800D02*X220680Y6400D01*
X221280D01*
X221880Y5800D01*
Y4000D01*
X219480Y6400D02*X220080Y5800D01*
X223320Y8800D02*Y7600D01*
X224520Y8800D02*Y7600D01*
X228120Y8800D02*Y4000D01*
X230520D01*
X231960Y6640D02*X233760D01*
X231960Y4000D02*X234360D01*
X231960Y8800D02*Y4000D01*
Y8800D02*X234360D01*
X236400D02*Y4000D01*
X237960Y8800D02*X238800Y7960D01*
Y4840D01*
X237960Y4000D02*X238800Y4840D01*
X235800Y4000D02*X237960D01*
X235800Y8800D02*X237960D01*
X247680Y390660D02*X246850Y391490D01*
X247680Y390660D02*X250170D01*
X251000Y391490D02*X250170Y390660D01*
X251000Y393150D02*Y391490D01*
Y393150D02*X250170Y393980D01*
X247680D02*X250170D01*
X247680D02*X246850Y394810D01*
Y396470D02*Y394810D01*
X247680Y397300D02*X246850Y396470D01*
X247680Y397300D02*X250170D01*
X251000Y396470D02*X250170Y397300D01*
X244858Y396470D02*Y393980D01*
Y396470D02*X244028Y397300D01*
X243198D02*X244028D01*
X243198D02*X242368Y396470D01*
Y393980D01*
Y396470D02*X241538Y397300D01*
X240708D02*X241538D01*
X240708D02*X239878Y396470D01*
Y393980D01*
G54D72*X237886Y392486D02*Y392320D01*
G54D71*Y397300D02*Y394810D01*
X235396Y396470D02*Y390660D01*
Y396470D02*X234566Y397300D01*
Y393150D02*X236226D01*
X229586Y393980D02*X232076D01*
X232906Y394810D02*X232076Y393980D01*
X232906Y396470D02*Y394810D01*
Y396470D02*X232076Y397300D01*
X229586D02*X232076D01*
X227594D02*Y390660D01*
Y394810D02*X226764Y393980D01*
X225104D02*X226764D01*
X225104D02*X224274Y394810D01*
Y397300D02*Y394810D01*
X215974D02*X219294D01*
X215974Y393150D02*X219294D01*
X216804Y395640D02*Y392320D01*
X218464Y395640D02*Y392320D01*
X213982Y391490D02*X213152Y390660D01*
X210662D02*X213152D01*
X210662D02*X209832Y391490D01*
Y393150D02*Y391490D01*
X213982Y397300D02*X209832Y393150D01*
Y397300D02*X213982D01*
X204852D02*Y392320D01*
X203690Y390660D01*
X201864D02*X203690D01*
X201864D02*X200702Y392320D01*
Y397300D02*Y392320D01*
Y393980D02*X204852D01*
X195390Y397300D02*X197548D01*
X198710Y396138D02*X197548Y397300D01*
X198710Y396138D02*Y391822D01*
X197548Y390660D01*
X195390D02*X197548D01*
X11500Y8800D02*Y7600D01*
X12700Y8800D02*Y7600D01*
X14140Y8200D02*Y4600D01*
Y8200D02*X14740Y8800D01*
X15940D01*
X16540Y8200D01*
Y4600D01*
X15940Y4000D02*X16540Y4600D01*
X14740Y4000D02*X15940D01*
X14140Y4600D02*X14740Y4000D01*
X18580Y8200D02*Y4000D01*
Y8200D02*X19180Y8800D01*
X19780D01*
X17980Y6400D02*X19180D01*
X21580Y8200D02*Y4000D01*
Y8200D02*X22180Y8800D01*
X22780D01*
X20980Y6400D02*X22180D01*
X23980Y8800D02*Y7600D01*
X25180Y8800D02*Y7600D01*
X28780Y8800D02*Y4000D01*
X31180D01*
X32620Y6640D02*X34420D01*
X32620Y4000D02*X35020D01*
X32620Y8800D02*Y4000D01*
Y8800D02*X35020D01*
X37060D02*Y4000D01*
X38620Y8800D02*X39460Y7960D01*
Y4840D01*
X38620Y4000D02*X39460Y4840D01*
X36460Y4000D02*X38620D01*
X36460Y8800D02*X38620D01*
X53000D02*Y7600D01*
X54200Y8800D02*Y7600D01*
X55640Y8200D02*Y4600D01*
Y8200D02*X56240Y8800D01*
X57440D01*
X58040Y8200D01*
Y4600D01*
X57440Y4000D02*X58040Y4600D01*
X56240Y4000D02*X57440D01*
X55640Y4600D02*X56240Y4000D01*
X60080Y5800D02*Y4000D01*
Y5800D02*X60680Y6400D01*
X61280D01*
X61880Y5800D01*
Y4000D01*
X59480Y6400D02*X60080Y5800D01*
X63320Y8800D02*Y7600D01*
X64520Y8800D02*Y7600D01*
X68120Y8800D02*Y4000D01*
X70520D01*
X71960Y6640D02*X73760D01*
X71960Y4000D02*X74360D01*
X71960Y8800D02*Y4000D01*
Y8800D02*X74360D01*
X76400D02*Y4000D01*
X77960Y8800D02*X78800Y7960D01*
Y4840D01*
X77960Y4000D02*X78800Y4840D01*
X75800Y4000D02*X77960D01*
X75800Y8800D02*X77960D01*
X91500D02*Y7600D01*
X92700Y8800D02*Y7600D01*
X94140Y8200D02*Y4600D01*
Y8200D02*X94740Y8800D01*
X95940D01*
X96540Y8200D01*
Y4600D01*
X95940Y4000D02*X96540Y4600D01*
X94740Y4000D02*X95940D01*
X94140Y4600D02*X94740Y4000D01*
X98580Y8200D02*Y4000D01*
Y8200D02*X99180Y8800D01*
X99780D01*
X97980Y6400D02*X99180D01*
X101580Y8200D02*Y4000D01*
Y8200D02*X102180Y8800D01*
X102780D01*
X100980Y6400D02*X102180D01*
X103980Y8800D02*Y7600D01*
X105180Y8800D02*Y7600D01*
X108780Y8800D02*Y4000D01*
X111180D01*
X112620Y6640D02*X114420D01*
X112620Y4000D02*X115020D01*
X112620Y8800D02*Y4000D01*
Y8800D02*X115020D01*
X117060D02*Y4000D01*
X118620Y8800D02*X119460Y7960D01*
Y4840D01*
X118620Y4000D02*X119460Y4840D01*
X116460Y4000D02*X118620D01*
X116460Y8800D02*X118620D01*
X151670Y372300D02*Y365660D01*
X149512D02*X148350Y366822D01*
Y371138D02*Y366822D01*
X149512Y372300D02*X148350Y371138D01*
X149512Y372300D02*X152500D01*
X149512Y365660D02*X152500D01*
X146358Y372300D02*Y367320D01*
X145196Y365660D01*
X143370D02*X145196D01*
X143370D02*X142208Y367320D01*
Y372300D02*Y367320D01*
Y368980D02*X146358D01*
X140216Y372300D02*Y365660D01*
X136066Y372300D01*
Y365660D01*
X130754D02*X129924Y366490D01*
X130754Y365660D02*X133244D01*
X134074Y366490D02*X133244Y365660D01*
X134074Y371470D02*Y366490D01*
Y371470D02*X133244Y372300D01*
X130754D02*X133244D01*
X130754D02*X129924Y371470D01*
Y369810D01*
X130754Y368980D02*X129924Y369810D01*
X130754Y368980D02*X132414D01*
X125442Y368648D02*X127932D01*
X124612Y372300D02*X127932D01*
Y365660D01*
X124612D02*X127932D01*
X119300D02*X122620D01*
X119300D02*X118470Y366490D01*
Y368150D02*Y366490D01*
X119300Y368980D02*X118470Y368150D01*
X119300Y368980D02*X121790D01*
Y372300D02*Y365660D01*
X120462Y368980D02*X118470Y372300D01*
X116478D02*Y371470D01*
Y369810D02*Y365660D01*
X114486Y372300D02*Y371470D01*
Y369810D02*Y365660D01*
X112494Y372300D02*Y371470D01*
Y369810D02*Y365660D01*
X143000Y382300D02*Y375660D01*
X138850Y382300D02*Y375660D01*
Y378980D02*X143000D01*
X135198Y375660D02*X136858D01*
X136028Y382300D02*Y375660D01*
X135198Y382300D02*X136858D01*
X129886Y375660D02*X129056Y376490D01*
X129886Y375660D02*X132376D01*
X133206Y376490D02*X132376Y375660D01*
X133206Y381470D02*Y376490D01*
Y381470D02*X132376Y382300D01*
X129886D02*X132376D01*
X129886D02*X129056Y381470D01*
Y379810D01*
X129886Y378980D02*X129056Y379810D01*
X129886Y378980D02*X131546D01*
X127064Y382300D02*Y375660D01*
X122914Y382300D02*Y375660D01*
Y378980D02*X127064D01*
X150500Y385660D02*X148840Y392300D01*
X147180Y385660D01*
X145188Y391470D02*Y386490D01*
X144358Y385660D01*
X142698D02*X144358D01*
X142698D02*X141868Y386490D01*
Y391470D02*Y386490D01*
X142698Y392300D02*X141868Y391470D01*
X142698Y392300D02*X144358D01*
X145188Y391470D02*X144358Y392300D01*
X139876D02*Y385660D01*
X136556Y392300D02*X139876D01*
X131244Y385660D02*X134564D01*
X132904Y392300D02*Y385660D01*
X129252Y392300D02*Y387320D01*
X128090Y385660D01*
X126264D02*X128090D01*
X126264D02*X125102Y387320D01*
Y392300D02*Y387320D01*
Y388980D02*X129252D01*
X119790Y385660D02*X118960Y386490D01*
X119790Y385660D02*X122280D01*
X123110Y386490D02*X122280Y385660D01*
X123110Y391470D02*Y386490D01*
Y391470D02*X122280Y392300D01*
X119790D02*X122280D01*
X119790D02*X118960Y391470D01*
Y389810D01*
X119790Y388980D02*X118960Y389810D01*
X119790Y388980D02*X121450D01*
X114478Y388648D02*X116968D01*
X113648Y392300D02*X116968D01*
Y385660D01*
X113648D02*X116968D01*
X531820Y221340D02*X532650Y220510D01*
X529330Y221340D02*X531820D01*
X528500Y220510D02*X529330Y221340D01*
X528500Y220510D02*Y218850D01*
X529330Y218020D01*
X531820D01*
X532650Y217190D01*
Y215530D01*
X531820Y214700D02*X532650Y215530D01*
X529330Y214700D02*X531820D01*
X528500Y215530D02*X529330Y214700D01*
X534642Y221340D02*Y218020D01*
X535472Y214700D01*
X537132Y218020D01*
X538792Y214700D01*
X539622Y218020D01*
Y221340D02*Y218020D01*
X541614Y221340D02*X543274D01*
X542444D02*Y214700D01*
X541614D02*X543274D01*
X545266Y221340D02*X548586D01*
X546926D02*Y214700D01*
X551740D02*X553898D01*
X550578Y215862D02*X551740Y214700D01*
X550578Y220178D02*Y215862D01*
Y220178D02*X551740Y221340D01*
X553898D01*
X555890D02*Y214700D01*
X560040Y221340D02*Y214700D01*
X555890Y218020D02*X560040D01*
X565020Y217190D02*X568340D01*
X565020Y218850D02*X568340D01*
X567510Y219680D02*Y216360D01*
X565850Y219680D02*Y216360D01*
X570332Y220012D02*X571660Y221340D01*
Y214700D01*
X570332D02*X572822D01*
X281320Y67340D02*X282150Y66510D01*
X278830Y67340D02*X281320D01*
X278000Y66510D02*X278830Y67340D01*
X278000Y66510D02*Y64850D01*
X278830Y64020D01*
X281320D01*
X282150Y63190D01*
Y61530D01*
X281320Y60700D02*X282150Y61530D01*
X278830Y60700D02*X281320D01*
X278000Y61530D02*X278830Y60700D01*
X284142Y67340D02*Y64020D01*
X284972Y60700D01*
X286632Y64020D01*
X288292Y60700D01*
X289122Y64020D01*
Y67340D02*Y64020D01*
X291114Y67340D02*X292774D01*
X291944D02*Y60700D01*
X291114D02*X292774D01*
X294766Y67340D02*X298086D01*
X296426D02*Y60700D01*
X301240D02*X303398D01*
X300078Y61862D02*X301240Y60700D01*
X300078Y66178D02*Y61862D01*
Y66178D02*X301240Y67340D01*
X303398D01*
X305390D02*Y60700D01*
X309540Y67340D02*Y60700D01*
X305390Y64020D02*X309540D01*
X314520Y63190D02*X317840D01*
X314520Y64850D02*X317840D01*
X317010Y65680D02*Y62360D01*
X315350Y65680D02*Y62360D01*
X319832Y66510D02*X320662Y67340D01*
X323152D01*
X323982Y66510D01*
Y64850D01*
X319832Y60700D02*X323982Y64850D01*
X319832Y60700D02*X323982D01*
X425500Y9300D02*X427900D01*
X425500D02*Y6900D01*
X426100Y7500D01*
X427300D01*
X427900Y6900D01*
Y5100D01*
X427300Y4500D02*X427900Y5100D01*
X426100Y4500D02*X427300D01*
X425500Y5100D02*X426100Y4500D01*
X429340Y9300D02*X430540Y4500D01*
X431740Y9300D01*
X435940D02*Y4500D01*
X435340Y9300D02*X437740D01*
X438340Y8700D01*
Y7500D01*
X437740Y6900D02*X438340Y7500D01*
X435940Y6900D02*X437740D01*
X439780Y6300D02*Y5100D01*
Y6300D02*X440380Y6900D01*
X441580D01*
X442180Y6300D01*
Y5100D01*
X441580Y4500D02*X442180Y5100D01*
X440380Y4500D02*X441580D01*
X439780Y5100D02*X440380Y4500D01*
X443620Y6900D02*Y5100D01*
X444220Y4500D01*
X444820D01*
X445420Y5100D01*
Y6900D02*Y5100D01*
X446020Y4500D01*
X446620D01*
X447220Y5100D01*
Y6900D02*Y5100D01*
X449260Y4500D02*X451060D01*
X448660Y5100D02*X449260Y4500D01*
X448660Y6300D02*Y5100D01*
Y6300D02*X449260Y6900D01*
X450460D01*
X451060Y6300D01*
X448660Y5700D02*X451060D01*
Y6300D02*Y5700D01*
X453100Y6300D02*Y4500D01*
Y6300D02*X453700Y6900D01*
X454900D01*
X452500D02*X453100Y6300D01*
X291500Y113340D02*X293160Y106700D01*
X294820Y113340D01*
X296812Y112012D02*X298140Y113340D01*
Y106700D01*
X296812D02*X299302D01*
X301294D02*X302124D01*
X304116Y107530D02*X304946Y106700D01*
X304116Y112510D02*Y107530D01*
Y112510D02*X304946Y113340D01*
X306606D01*
X307436Y112510D01*
Y107530D01*
X306606Y106700D02*X307436Y107530D01*
X304946Y106700D02*X306606D01*
X304116Y108360D02*X307436Y111680D01*
X429680Y391160D02*X428850Y391990D01*
X429680Y391160D02*X432170D01*
X433000Y391990D02*X432170Y391160D01*
X433000Y393650D02*Y391990D01*
Y393650D02*X432170Y394480D01*
X429680D02*X432170D01*
X429680D02*X428850Y395310D01*
Y396970D02*Y395310D01*
X429680Y397800D02*X428850Y396970D01*
X429680Y397800D02*X432170D01*
X433000Y396970D02*X432170Y397800D01*
X426858Y396970D02*Y394480D01*
Y396970D02*X426028Y397800D01*
X425198D02*X426028D01*
X425198D02*X424368Y396970D01*
Y394480D01*
Y396970D02*X423538Y397800D01*
X422708D02*X423538D01*
X422708D02*X421878Y396970D01*
Y394480D01*
G54D72*X419886Y392986D02*Y392820D01*
G54D71*Y397800D02*Y395310D01*
X417396Y396970D02*Y391160D01*
Y396970D02*X416566Y397800D01*
Y393650D02*X418226D01*
X411586Y394480D02*X414076D01*
X414906Y395310D02*X414076Y394480D01*
X414906Y396970D02*Y395310D01*
Y396970D02*X414076Y397800D01*
X411586D02*X414076D01*
X409594D02*Y391160D01*
Y395310D02*X408764Y394480D01*
X407104D02*X408764D01*
X407104D02*X406274Y395310D01*
Y397800D02*Y395310D01*
X397974D02*X401294D01*
X397974Y393650D02*X401294D01*
X398804Y396140D02*Y392820D01*
X400464Y396140D02*Y392820D01*
X395982Y392488D02*X394654Y391160D01*
Y397800D02*Y391160D01*
X393492Y397800D02*X395982D01*
X388512D02*Y392820D01*
X387350Y391160D01*
X385524D02*X387350D01*
X385524D02*X384362Y392820D01*
Y397800D02*Y392820D01*
Y394480D02*X388512D01*
X379050Y397800D02*X381208D01*
X382370Y396638D02*X381208Y397800D01*
X382370Y396638D02*Y392322D01*
X381208Y391160D01*
X379050D02*X381208D01*
X575000Y396970D02*X574170Y397800D01*
X575000Y391990D02*X574170Y391160D01*
X575000Y396970D02*Y391990D01*
X572178Y397800D02*Y391160D01*
X568028Y397800D01*
Y391160D01*
X566036D02*X565206Y391990D01*
Y396970D02*Y391990D01*
X566036Y397800D02*X565206Y396970D01*
X554250Y397800D02*Y392820D01*
X553088Y391160D01*
X551262D02*X553088D01*
X551262D02*X550100Y392820D01*
Y397800D02*Y392820D01*
Y394480D02*X554250D01*
X544788Y397800D02*X546946D01*
X548108Y396638D02*X546946Y397800D01*
X548108Y396638D02*Y392322D01*
X546946Y391160D01*
X544788D02*X546946D01*
X533832Y396970D02*X533002Y397800D01*
X533832Y391990D02*X533002Y391160D01*
X533832Y396970D02*Y391990D01*
X531010Y397800D02*Y391160D01*
X527690Y397800D02*X531010D01*
X525698Y391160D02*X524868Y391990D01*
Y396970D02*Y391990D01*
X525698Y397800D02*X524868Y396970D01*
X502170Y372800D02*Y366160D01*
X500012D02*X498850Y367322D01*
Y371638D02*Y367322D01*
X500012Y372800D02*X498850Y371638D01*
X500012Y372800D02*X503000D01*
X500012Y366160D02*X503000D01*
X496858Y372800D02*Y367820D01*
X495696Y366160D01*
X493870D02*X495696D01*
X493870D02*X492708Y367820D01*
Y372800D02*Y367820D01*
Y369480D02*X496858D01*
X490716Y372800D02*Y366160D01*
X486566Y372800D01*
Y366160D01*
X481254D02*X480424Y366990D01*
X481254Y366160D02*X483744D01*
X484574Y366990D02*X483744Y366160D01*
X484574Y371970D02*Y366990D01*
Y371970D02*X483744Y372800D01*
X481254D02*X483744D01*
X481254D02*X480424Y371970D01*
Y370310D01*
X481254Y369480D02*X480424Y370310D01*
X481254Y369480D02*X482914D01*
X475942Y369148D02*X478432D01*
X475112Y372800D02*X478432D01*
Y366160D01*
X475112D02*X478432D01*
X469800D02*X473120D01*
X469800D02*X468970Y366990D01*
Y368650D02*Y366990D01*
X469800Y369480D02*X468970Y368650D01*
X469800Y369480D02*X472290D01*
Y372800D02*Y366160D01*
X470962Y369480D02*X468970Y372800D01*
X466978D02*Y371970D01*
Y370310D02*Y366160D01*
X464986Y372800D02*Y371970D01*
Y370310D02*Y366160D01*
X462994Y372800D02*Y371970D01*
Y370310D02*Y366160D01*
X493500Y382800D02*Y376160D01*
X489350Y382800D02*Y376160D01*
Y379480D02*X493500D01*
X485698Y376160D02*X487358D01*
X486528Y382800D02*Y376160D01*
X485698Y382800D02*X487358D01*
X480386Y376160D02*X479556Y376990D01*
X480386Y376160D02*X482876D01*
X483706Y376990D02*X482876Y376160D01*
X483706Y381970D02*Y376990D01*
Y381970D02*X482876Y382800D01*
X480386D02*X482876D01*
X480386D02*X479556Y381970D01*
Y380310D01*
X480386Y379480D02*X479556Y380310D01*
X480386Y379480D02*X482046D01*
X477564Y382800D02*Y376160D01*
X473414Y382800D02*Y376160D01*
Y379480D02*X477564D01*
X501000Y386160D02*X499340Y392800D01*
X497680Y386160D01*
X495688Y391970D02*Y386990D01*
X494858Y386160D01*
X493198D02*X494858D01*
X493198D02*X492368Y386990D01*
Y391970D02*Y386990D01*
X493198Y392800D02*X492368Y391970D01*
X493198Y392800D02*X494858D01*
X495688Y391970D02*X494858Y392800D01*
X490376D02*Y386160D01*
X487056Y392800D02*X490376D01*
X481744Y386160D02*X485064D01*
X483404Y392800D02*Y386160D01*
X479752Y392800D02*Y387820D01*
X478590Y386160D01*
X476764D02*X478590D01*
X476764D02*X475602Y387820D01*
Y392800D02*Y387820D01*
Y389480D02*X479752D01*
X470290Y386160D02*X469460Y386990D01*
X470290Y386160D02*X472780D01*
X473610Y386990D02*X472780Y386160D01*
X473610Y391970D02*Y386990D01*
Y391970D02*X472780Y392800D01*
X470290D02*X472780D01*
X470290D02*X469460Y391970D01*
Y390310D01*
X470290Y389480D02*X469460Y390310D01*
X470290Y389480D02*X471950D01*
X464978Y389148D02*X467468D01*
X464148Y392800D02*X467468D01*
Y386160D01*
X464148D02*X467468D01*
X333670Y372800D02*Y366160D01*
X331512D02*X330350Y367322D01*
Y371638D02*Y367322D01*
X331512Y372800D02*X330350Y371638D01*
X331512Y372800D02*X334500D01*
X331512Y366160D02*X334500D01*
X328358Y372800D02*Y367820D01*
X327196Y366160D01*
X325370D02*X327196D01*
X325370D02*X324208Y367820D01*
Y372800D02*Y367820D01*
Y369480D02*X328358D01*
X322216Y372800D02*Y366160D01*
X318066Y372800D01*
Y366160D01*
X312754D02*X311924Y366990D01*
X312754Y366160D02*X315244D01*
X316074Y366990D02*X315244Y366160D01*
X316074Y371970D02*Y366990D01*
Y371970D02*X315244Y372800D01*
X312754D02*X315244D01*
X312754D02*X311924Y371970D01*
Y370310D01*
X312754Y369480D02*X311924Y370310D01*
X312754Y369480D02*X314414D01*
X307442Y369148D02*X309932D01*
X306612Y372800D02*X309932D01*
Y366160D01*
X306612D02*X309932D01*
X301300D02*X304620D01*
X301300D02*X300470Y366990D01*
Y368650D02*Y366990D01*
X301300Y369480D02*X300470Y368650D01*
X301300Y369480D02*X303790D01*
Y372800D02*Y366160D01*
X302462Y369480D02*X300470Y372800D01*
X298478D02*Y371970D01*
Y370310D02*Y366160D01*
X296486Y372800D02*Y371970D01*
Y370310D02*Y366160D01*
X294494Y372800D02*Y371970D01*
Y370310D02*Y366160D01*
X325000Y382800D02*Y376160D01*
X320850Y382800D02*Y376160D01*
Y379480D02*X325000D01*
X317198Y376160D02*X318858D01*
X318028Y382800D02*Y376160D01*
X317198Y382800D02*X318858D01*
X311886Y376160D02*X311056Y376990D01*
X311886Y376160D02*X314376D01*
X315206Y376990D02*X314376Y376160D01*
X315206Y381970D02*Y376990D01*
Y381970D02*X314376Y382800D01*
X311886D02*X314376D01*
X311886D02*X311056Y381970D01*
Y380310D01*
X311886Y379480D02*X311056Y380310D01*
X311886Y379480D02*X313546D01*
X309064Y382800D02*Y376160D01*
X304914Y382800D02*Y376160D01*
Y379480D02*X309064D01*
X332500Y386160D02*X330840Y392800D01*
X329180Y386160D01*
X327188Y391970D02*Y386990D01*
X326358Y386160D01*
X324698D02*X326358D01*
X324698D02*X323868Y386990D01*
Y391970D02*Y386990D01*
X324698Y392800D02*X323868Y391970D01*
X324698Y392800D02*X326358D01*
X327188Y391970D02*X326358Y392800D01*
X321876D02*Y386160D01*
X318556Y392800D02*X321876D01*
X313244Y386160D02*X316564D01*
X314904Y392800D02*Y386160D01*
X311252Y392800D02*Y387820D01*
X310090Y386160D01*
X308264D02*X310090D01*
X308264D02*X307102Y387820D01*
Y392800D02*Y387820D01*
Y389480D02*X311252D01*
X301790Y386160D02*X300960Y386990D01*
X301790Y386160D02*X304280D01*
X305110Y386990D02*X304280Y386160D01*
X305110Y391970D02*Y386990D01*
Y391970D02*X304280Y392800D01*
X301790D02*X304280D01*
X301790D02*X300960Y391970D01*
Y390310D01*
X301790Y389480D02*X300960Y390310D01*
X301790Y389480D02*X303450D01*
X296478Y389148D02*X298968D01*
X295648Y392800D02*X298968D01*
Y386160D01*
X295648D02*X298968D01*
G54D70*X505000Y156500D02*Y46500D01*
X595000D01*
Y156500D02*Y46500D01*
X505000Y156500D02*X595000D01*
X496245Y24393D02*Y23607D01*
X501755Y24393D02*Y23607D01*
X531496Y36835D02*X537992D01*
X512008D02*X518504D01*
X512008D02*Y17347D01*
X537992Y36835D02*Y17347D01*
X512008D02*X518504Y10851D01*
X537992Y17347D02*X531496Y10851D01*
X531000Y17843D02*X535000D01*
X533000Y19843D02*Y15843D01*
X376000Y346500D02*X496000D01*
X376000D02*Y296500D01*
X496000D01*
Y346500D02*Y326500D01*
Y316500D02*Y296500D01*
Y326500D02*G75*G03X496000Y316500I0J-5000D01*G01*
X514800Y332000D02*Y311000D01*
X505200Y332000D02*Y311000D01*
X514800D01*
X505200Y332000D02*X514800D01*
X505200Y319000D02*X514800D01*
X376000Y388200D02*X436000D01*
X376000Y352800D02*X436000D01*
X376000Y357700D02*X436000D01*
Y388200D02*Y352800D01*
X376000Y388200D02*Y352800D01*
X520000Y388200D02*X580000D01*
X520000Y352800D02*X580000D01*
X520000Y357700D02*X580000D01*
Y388200D02*Y352800D01*
X520000Y388200D02*Y352800D01*
X420000Y18200D02*X460000D01*
X420000Y48200D02*X460000D01*
X420000Y43800D02*X460000D01*
X420000Y48200D02*Y18200D01*
X460000Y48200D02*Y18200D01*
X471607Y40755D02*X472393D01*
X471607Y35245D02*X472393D01*
X471607Y25745D02*X472393D01*
X471607Y31255D02*X472393D01*
X194000Y346000D02*X314000D01*
X194000D02*Y296000D01*
X314000D01*
Y346000D02*Y326000D01*
Y316000D02*Y296000D01*
Y326000D02*G75*G03X314000Y316000I0J-5000D01*G01*
X332800Y331500D02*Y310500D01*
X323200Y331500D02*Y310500D01*
X332800D01*
X323200Y331500D02*X332800D01*
X323200Y318500D02*X332800D01*
X150800Y331000D02*Y310000D01*
X141200Y331000D02*Y310000D01*
X150800D01*
X141200Y331000D02*X150800D01*
X141200Y318000D02*X150800D01*
X194000Y387700D02*X254000D01*
X194000Y352300D02*X254000D01*
X194000Y357200D02*X254000D01*
Y387700D02*Y352300D01*
X194000Y387700D02*Y352300D01*
X12000Y345500D02*X132000D01*
X12000D02*Y295500D01*
X132000D01*
Y345500D02*Y325500D01*
Y315500D02*Y295500D01*
Y325500D02*G75*G03X132000Y315500I0J-5000D01*G01*
X12000Y387200D02*X72000D01*
X12000Y351800D02*X72000D01*
X12000Y356700D02*X72000D01*
Y387200D02*Y351800D01*
X12000Y387200D02*Y351800D01*
X45000Y27200D02*X85000D01*
X45000Y57200D02*X85000D01*
X45000Y52800D02*X85000D01*
X45000Y57200D02*Y27200D01*
X85000Y57200D02*Y27200D01*
X5000D02*X45000D01*
X5000Y57200D02*X45000D01*
X5000Y52800D02*X45000D01*
X5000Y57200D02*Y27200D01*
X45000Y57200D02*Y27200D01*
X125000D02*X165000D01*
X125000Y57200D02*X165000D01*
X125000Y52800D02*X165000D01*
X125000Y57200D02*Y27200D01*
X165000Y57200D02*Y27200D01*
X85000D02*X125000D01*
X85000Y57200D02*X125000D01*
X85000Y52800D02*X125000D01*
X85000Y57200D02*Y27200D01*
X125000Y57200D02*Y27200D01*
X205000D02*X245000D01*
X205000Y57200D02*X245000D01*
X205000Y52800D02*X245000D01*
X205000Y57200D02*Y27200D01*
X245000Y57200D02*Y27200D01*
X165000D02*X205000D01*
X165000Y57200D02*X205000D01*
X165000Y52800D02*X205000D01*
X165000Y57200D02*Y27200D01*
X205000Y57200D02*Y27200D01*
X24607Y94755D02*X25393D01*
X24607Y89245D02*X25393D01*
X24607Y84255D02*X25393D01*
X24607Y78745D02*X25393D01*
X24607Y67745D02*X25393D01*
X24607Y73255D02*X25393D01*
X64607Y94755D02*X65393D01*
X64607Y89245D02*X65393D01*
X64607Y84255D02*X65393D01*
X64607Y78745D02*X65393D01*
X64607Y67745D02*X65393D01*
X64607Y73255D02*X65393D01*
X104607Y94755D02*X105393D01*
X104607Y89245D02*X105393D01*
X104607Y67745D02*X105393D01*
X104607Y73255D02*X105393D01*
X104607Y84255D02*X105393D01*
X104607Y78745D02*X105393D01*
X224607Y94755D02*X225393D01*
X224607Y89245D02*X225393D01*
X224607Y84255D02*X225393D01*
X224607Y78745D02*X225393D01*
X224607Y67745D02*X225393D01*
X224607Y73255D02*X225393D01*
X184607Y84255D02*X185393D01*
X184607Y78745D02*X185393D01*
X144607Y94755D02*X145393D01*
X144607Y89245D02*X145393D01*
X144607Y84255D02*X145393D01*
X144607Y78745D02*X145393D01*
X144607Y67745D02*X145393D01*
X144607Y73255D02*X145393D01*
X184607Y94755D02*X185393D01*
X184607Y89245D02*X185393D01*
X184607Y67745D02*X185393D01*
X184607Y73255D02*X185393D01*
G54D71*X548500Y101500D02*Y98000D01*
X549000Y97500D01*
X550000D01*
X550500Y98000D01*
Y101500D02*Y98000D01*
X551700Y100700D02*X552500Y101500D01*
Y97500D01*
X551700D02*X553200D01*
X495000Y352000D02*Y348000D01*
Y350000D02*X493000Y348000D01*
X495000Y350000D02*X493000Y352000D01*
X491800Y348800D02*X491000Y348000D01*
Y352000D02*Y348000D01*
X490300Y352000D02*X491800D01*
X489100Y351500D02*X488600Y352000D01*
X489100Y351500D02*Y348500D01*
X488600Y348000D01*
X487600D02*X488600D01*
X487600D02*X487100Y348500D01*
Y351500D02*Y348500D01*
X487600Y352000D02*X487100Y351500D01*
X487600Y352000D02*X488600D01*
X489100Y351000D02*X487100Y349000D01*
X506000Y338500D02*Y334500D01*
X507300Y338500D02*X508000Y337800D01*
Y335200D01*
X507300Y334500D02*X508000Y335200D01*
X505500Y334500D02*X507300D01*
X505500Y338500D02*X507300D01*
X509200Y337700D02*X510000Y338500D01*
Y334500D01*
X509200D02*X510700D01*
X511900Y335000D02*X512400Y334500D01*
X511900Y338000D02*Y335000D01*
Y338000D02*X512400Y338500D01*
X513400D01*
X513900Y338000D01*
Y335000D01*
X513400Y334500D02*X513900Y335000D01*
X512400Y334500D02*X513400D01*
X511900Y335500D02*X513900Y337500D01*
X445000Y369000D02*X445800D01*
X445000Y372500D02*Y369000D01*
X445500Y373000D02*X445000Y372500D01*
X445500Y373000D02*X446000D01*
X446500Y372500D02*X446000Y373000D01*
X446500Y372500D02*Y372000D01*
X443800Y369800D02*X443000Y369000D01*
Y373000D02*Y369000D01*
X442300Y373000D02*X443800D01*
X441100Y372500D02*X440600Y373000D01*
X441100Y372500D02*Y369500D01*
X440600Y369000D01*
X439600D02*X440600D01*
X439600D02*X439100Y369500D01*
Y372500D02*Y369500D01*
X439600Y373000D02*X439100Y372500D01*
X439600Y373000D02*X440600D01*
X441100Y372000D02*X439100Y370000D01*
X589000Y369000D02*X589800D01*
X589000Y372500D02*Y369000D01*
X589500Y373000D02*X589000Y372500D01*
X589500Y373000D02*X590000D01*
X590500Y372500D02*X590000Y373000D01*
X590500Y372500D02*Y372000D01*
X587800Y369800D02*X587000Y369000D01*
Y373000D02*Y369000D01*
X586300Y373000D02*X587800D01*
X503300Y237500D02*X504100D01*
Y234000D01*
X503600Y233500D02*X504100Y234000D01*
X503100Y233500D02*X503600D01*
X502600Y234000D02*X503100Y233500D01*
X502600Y234500D02*Y234000D01*
X505800Y237500D02*Y233500D01*
X505300Y237500D02*X507300D01*
X507800Y237000D01*
Y236000D01*
X507300Y235500D02*X507800Y236000D01*
X505800Y235500D02*X507300D01*
X509000Y236700D02*X509800Y237500D01*
Y233500D01*
X509000D02*X510500D01*
X511700Y237000D02*X512200Y237500D01*
X513200D01*
X513700Y237000D01*
X513200Y233500D02*X513700Y234000D01*
X512200Y233500D02*X513200D01*
X511700Y234000D02*X512200Y233500D01*
Y235700D02*X513200D01*
X513700Y237000D02*Y236200D01*
Y235200D02*Y234000D01*
Y235200D02*X513200Y235700D01*
X513700Y236200D02*X513200Y235700D01*
X503300Y251500D02*X504100D01*
Y248000D01*
X503600Y247500D02*X504100Y248000D01*
X503100Y247500D02*X503600D01*
X502600Y248000D02*X503100Y247500D01*
X502600Y248500D02*Y248000D01*
X505800Y251500D02*Y247500D01*
X505300Y251500D02*X507300D01*
X507800Y251000D01*
Y250000D01*
X507300Y249500D02*X507800Y250000D01*
X505800Y249500D02*X507300D01*
X509000Y250700D02*X509800Y251500D01*
Y247500D01*
X509000D02*X510500D01*
X511700Y251000D02*X512200Y251500D01*
X513700D01*
X514200Y251000D01*
Y250000D01*
X511700Y247500D02*X514200Y250000D01*
X511700Y247500D02*X514200D01*
X503300Y279500D02*X504100D01*
Y276000D01*
X503600Y275500D02*X504100Y276000D01*
X503100Y275500D02*X503600D01*
X502600Y276000D02*X503100Y275500D01*
X502600Y276500D02*Y276000D01*
X505800Y279500D02*Y275500D01*
X505300Y279500D02*X507300D01*
X507800Y279000D01*
Y278000D01*
X507300Y277500D02*X507800Y278000D01*
X505800Y277500D02*X507300D01*
X509000Y278700D02*X509800Y279500D01*
Y275500D01*
X509000D02*X510500D01*
X511700Y276000D02*X512200Y275500D01*
X511700Y279000D02*Y276000D01*
Y279000D02*X512200Y279500D01*
X513200D01*
X513700Y279000D01*
Y276000D01*
X513200Y275500D02*X513700Y276000D01*
X512200Y275500D02*X513200D01*
X511700Y276500D02*X513700Y278500D01*
X503300Y265500D02*X504100D01*
Y262000D01*
X503600Y261500D02*X504100Y262000D01*
X503100Y261500D02*X503600D01*
X502600Y262000D02*X503100Y261500D01*
X502600Y262500D02*Y262000D01*
X505800Y265500D02*Y261500D01*
X505300Y265500D02*X507300D01*
X507800Y265000D01*
Y264000D01*
X507300Y263500D02*X507800Y264000D01*
X505800Y263500D02*X507300D01*
X509000Y264700D02*X509800Y265500D01*
Y261500D01*
X509000D02*X510500D01*
X511700Y264700D02*X512500Y265500D01*
Y261500D01*
X511700D02*X513200D01*
X86300Y238000D02*X87100D01*
Y234500D01*
X86600Y234000D02*X87100Y234500D01*
X86100Y234000D02*X86600D01*
X85600Y234500D02*X86100Y234000D01*
X85600Y235000D02*Y234500D01*
X88800Y238000D02*Y234000D01*
X88300Y238000D02*X90300D01*
X90800Y237500D01*
Y236500D01*
X90300Y236000D02*X90800Y236500D01*
X88800Y236000D02*X90300D01*
X92000Y237500D02*X92500Y238000D01*
X93500D01*
X94000Y237500D01*
X93500Y234000D02*X94000Y234500D01*
X92500Y234000D02*X93500D01*
X92000Y234500D02*X92500Y234000D01*
Y236200D02*X93500D01*
X94000Y237500D02*Y236700D01*
Y235700D02*Y234500D01*
Y235700D02*X93500Y236200D01*
X94000Y236700D02*X93500Y236200D01*
X95200Y237500D02*X95700Y238000D01*
X96700D01*
X97200Y237500D01*
X96700Y234000D02*X97200Y234500D01*
X95700Y234000D02*X96700D01*
X95200Y234500D02*X95700Y234000D01*
Y236200D02*X96700D01*
X97200Y237500D02*Y236700D01*
Y235700D02*Y234500D01*
Y235700D02*X96700Y236200D01*
X97200Y236700D02*X96700Y236200D01*
X86300Y252000D02*X87100D01*
Y248500D01*
X86600Y248000D02*X87100Y248500D01*
X86100Y248000D02*X86600D01*
X85600Y248500D02*X86100Y248000D01*
X85600Y249000D02*Y248500D01*
X88800Y252000D02*Y248000D01*
X88300Y252000D02*X90300D01*
X90800Y251500D01*
Y250500D01*
X90300Y250000D02*X90800Y250500D01*
X88800Y250000D02*X90300D01*
X92000Y251500D02*X92500Y252000D01*
X93500D01*
X94000Y251500D01*
X93500Y248000D02*X94000Y248500D01*
X92500Y248000D02*X93500D01*
X92000Y248500D02*X92500Y248000D01*
Y250200D02*X93500D01*
X94000Y251500D02*Y250700D01*
Y249700D02*Y248500D01*
Y249700D02*X93500Y250200D01*
X94000Y250700D02*X93500Y250200D01*
X95200Y251500D02*X95700Y252000D01*
X97200D01*
X97700Y251500D01*
Y250500D01*
X95200Y248000D02*X97700Y250500D01*
X95200Y248000D02*X97700D01*
X86300Y280000D02*X87100D01*
Y276500D01*
X86600Y276000D02*X87100Y276500D01*
X86100Y276000D02*X86600D01*
X85600Y276500D02*X86100Y276000D01*
X85600Y277000D02*Y276500D01*
X88800Y280000D02*Y276000D01*
X88300Y280000D02*X90300D01*
X90800Y279500D01*
Y278500D01*
X90300Y278000D02*X90800Y278500D01*
X88800Y278000D02*X90300D01*
X92000Y279500D02*X92500Y280000D01*
X93500D01*
X94000Y279500D01*
X93500Y276000D02*X94000Y276500D01*
X92500Y276000D02*X93500D01*
X92000Y276500D02*X92500Y276000D01*
Y278200D02*X93500D01*
X94000Y279500D02*Y278700D01*
Y277700D02*Y276500D01*
Y277700D02*X93500Y278200D01*
X94000Y278700D02*X93500Y278200D01*
X95200Y276500D02*X95700Y276000D01*
X95200Y279500D02*Y276500D01*
Y279500D02*X95700Y280000D01*
X96700D01*
X97200Y279500D01*
Y276500D01*
X96700Y276000D02*X97200Y276500D01*
X95700Y276000D02*X96700D01*
X95200Y277000D02*X97200Y279000D01*
X86300Y266000D02*X87100D01*
Y262500D01*
X86600Y262000D02*X87100Y262500D01*
X86100Y262000D02*X86600D01*
X85600Y262500D02*X86100Y262000D01*
X85600Y263000D02*Y262500D01*
X88800Y266000D02*Y262000D01*
X88300Y266000D02*X90300D01*
X90800Y265500D01*
Y264500D01*
X90300Y264000D02*X90800Y264500D01*
X88800Y264000D02*X90300D01*
X92000Y265500D02*X92500Y266000D01*
X93500D01*
X94000Y265500D01*
X93500Y262000D02*X94000Y262500D01*
X92500Y262000D02*X93500D01*
X92000Y262500D02*X92500Y262000D01*
Y264200D02*X93500D01*
X94000Y265500D02*Y264700D01*
Y263700D02*Y262500D01*
Y263700D02*X93500Y264200D01*
X94000Y264700D02*X93500Y264200D01*
X95200Y265200D02*X96000Y266000D01*
Y262000D01*
X95200D02*X96700D01*
X313000Y352000D02*Y348000D01*
Y350000D02*X311000Y348000D01*
X313000Y350000D02*X311000Y352000D01*
X309800Y348500D02*X309300Y348000D01*
X307800D02*X309300D01*
X307800D02*X307300Y348500D01*
Y349500D02*Y348500D01*
X309800Y352000D02*X307300Y349500D01*
Y352000D02*X309800D01*
X306100Y351500D02*X305600Y352000D01*
X306100Y351500D02*Y348500D01*
X305600Y348000D01*
X304600D02*X305600D01*
X304600D02*X304100Y348500D01*
Y351500D02*Y348500D01*
X304600Y352000D02*X304100Y351500D01*
X304600Y352000D02*X305600D01*
X306100Y351000D02*X304100Y349000D01*
X324000Y338000D02*Y334000D01*
X325300Y338000D02*X326000Y337300D01*
Y334700D01*
X325300Y334000D02*X326000Y334700D01*
X323500Y334000D02*X325300D01*
X323500Y338000D02*X325300D01*
X327200Y337500D02*X327700Y338000D01*
X329200D01*
X329700Y337500D01*
Y336500D01*
X327200Y334000D02*X329700Y336500D01*
X327200Y334000D02*X329700D01*
X330900Y334500D02*X331400Y334000D01*
X330900Y337500D02*Y334500D01*
Y337500D02*X331400Y338000D01*
X332400D01*
X332900Y337500D01*
Y334500D01*
X332400Y334000D02*X332900Y334500D01*
X331400Y334000D02*X332400D01*
X330900Y335000D02*X332900Y337000D01*
X263000Y368500D02*X263800D01*
X263000Y372000D02*Y368500D01*
X263500Y372500D02*X263000Y372000D01*
X263500Y372500D02*X264000D01*
X264500Y372000D02*X264000Y372500D01*
X264500Y372000D02*Y371500D01*
X261800Y369000D02*X261300Y368500D01*
X259800D02*X261300D01*
X259800D02*X259300Y369000D01*
Y370000D02*Y369000D01*
X261800Y372500D02*X259300Y370000D01*
Y372500D02*X261800D01*
X258100Y372000D02*X257600Y372500D01*
X258100Y372000D02*Y369000D01*
X257600Y368500D01*
X256600D02*X257600D01*
X256600D02*X256100Y369000D01*
Y372000D02*Y369000D01*
X256600Y372500D02*X256100Y372000D01*
X256600Y372500D02*X257600D01*
X258100Y371500D02*X256100Y369500D01*
X131000Y352000D02*Y348000D01*
Y350000D02*X129000Y348000D01*
X131000Y350000D02*X129000Y352000D01*
X127800Y348500D02*X127300Y348000D01*
X126300D02*X127300D01*
X126300D02*X125800Y348500D01*
X126300Y352000D02*X125800Y351500D01*
X126300Y352000D02*X127300D01*
X127800Y351500D02*X127300Y352000D01*
X126300Y349800D02*X127300D01*
X125800Y349300D02*Y348500D01*
Y351500D02*Y350300D01*
X126300Y349800D01*
X125800Y349300D02*X126300Y349800D01*
X124600Y351500D02*X124100Y352000D01*
X124600Y351500D02*Y348500D01*
X124100Y348000D01*
X123100D02*X124100D01*
X123100D02*X122600Y348500D01*
Y351500D02*Y348500D01*
X123100Y352000D02*X122600Y351500D01*
X123100Y352000D02*X124100D01*
X124600Y351000D02*X122600Y349000D01*
X81000Y368000D02*X81800D01*
X81000Y371500D02*Y368000D01*
X81500Y372000D02*X81000Y371500D01*
X81500Y372000D02*X82000D01*
X82500Y371500D02*X82000Y372000D01*
X82500Y371500D02*Y371000D01*
X79800Y368500D02*X79300Y368000D01*
X78300D02*X79300D01*
X78300D02*X77800Y368500D01*
X78300Y372000D02*X77800Y371500D01*
X78300Y372000D02*X79300D01*
X79800Y371500D02*X79300Y372000D01*
X78300Y369800D02*X79300D01*
X77800Y369300D02*Y368500D01*
Y371500D02*Y370300D01*
X78300Y369800D01*
X77800Y369300D02*X78300Y369800D01*
X76600Y371500D02*X76100Y372000D01*
X76600Y371500D02*Y368500D01*
X76100Y368000D01*
X75100D02*X76100D01*
X75100D02*X74600Y368500D01*
Y371500D02*Y368500D01*
X75100Y372000D02*X74600Y371500D01*
X75100Y372000D02*X76100D01*
X76600Y371000D02*X74600Y369000D01*
X142000Y337500D02*Y333500D01*
X143300Y337500D02*X144000Y336800D01*
Y334200D01*
X143300Y333500D02*X144000Y334200D01*
X141500Y333500D02*X143300D01*
X141500Y337500D02*X143300D01*
X145200Y337000D02*X145700Y337500D01*
X146700D01*
X147200Y337000D01*
X146700Y333500D02*X147200Y334000D01*
X145700Y333500D02*X146700D01*
X145200Y334000D02*X145700Y333500D01*
Y335700D02*X146700D01*
X147200Y337000D02*Y336200D01*
Y335200D02*Y334000D01*
Y335200D02*X146700Y335700D01*
X147200Y336200D02*X146700Y335700D01*
X148400Y334000D02*X148900Y333500D01*
X148400Y337000D02*Y334000D01*
Y337000D02*X148900Y337500D01*
X149900D01*
X150400Y337000D01*
Y334000D01*
X149900Y333500D02*X150400Y334000D01*
X148900Y333500D02*X149900D01*
X148400Y334500D02*X150400Y336500D01*
X61200Y63500D02*X62000D01*
Y60000D01*
X61500Y59500D02*X62000Y60000D01*
X61000Y59500D02*X61500D01*
X60500Y60000D02*X61000Y59500D01*
X60500Y60500D02*Y60000D01*
X63200Y63000D02*X63700Y63500D01*
X64700D01*
X65200Y63000D01*
X64700Y59500D02*X65200Y60000D01*
X63700Y59500D02*X64700D01*
X63200Y60000D02*X63700Y59500D01*
Y61700D02*X64700D01*
X65200Y63000D02*Y62200D01*
Y61200D02*Y60000D01*
Y61200D02*X64700Y61700D01*
X65200Y62200D02*X64700Y61700D01*
X66400Y63000D02*X66900Y63500D01*
X68400D01*
X68900Y63000D01*
Y62000D01*
X66400Y59500D02*X68900Y62000D01*
X66400Y59500D02*X68900D01*
X21700Y63500D02*X22500D01*
Y60000D01*
X22000Y59500D02*X22500Y60000D01*
X21500Y59500D02*X22000D01*
X21000Y60000D02*X21500Y59500D01*
X21000Y60500D02*Y60000D01*
X23700Y63000D02*X24200Y63500D01*
X25200D01*
X25700Y63000D01*
X25200Y59500D02*X25700Y60000D01*
X24200Y59500D02*X25200D01*
X23700Y60000D02*X24200Y59500D01*
Y61700D02*X25200D01*
X25700Y63000D02*Y62200D01*
Y61200D02*Y60000D01*
Y61200D02*X25200Y61700D01*
X25700Y62200D02*X25200Y61700D01*
X26900Y62700D02*X27700Y63500D01*
Y59500D01*
X26900D02*X28400D01*
X32850Y93650D02*X34850D01*
X35350Y93150D01*
Y92150D01*
X34850Y91650D02*X35350Y92150D01*
X33350Y91650D02*X34850D01*
X33350Y93650D02*Y89650D01*
X34150Y91650D02*X35350Y89650D01*
X36550Y93150D02*X37050Y93650D01*
X38050D01*
X38550Y93150D01*
X38050Y89650D02*X38550Y90150D01*
X37050Y89650D02*X38050D01*
X36550Y90150D02*X37050Y89650D01*
Y91850D02*X38050D01*
X38550Y93150D02*Y92350D01*
Y91350D02*Y90150D01*
Y91350D02*X38050Y91850D01*
X38550Y92350D02*X38050Y91850D01*
X39750Y90150D02*X40250Y89650D01*
X39750Y93150D02*Y90150D01*
Y93150D02*X40250Y93650D01*
X41250D01*
X41750Y93150D01*
Y90150D01*
X41250Y89650D02*X41750Y90150D01*
X40250Y89650D02*X41250D01*
X39750Y90650D02*X41750Y92650D01*
X32850Y83650D02*X34850D01*
X35350Y83150D01*
Y82150D01*
X34850Y81650D02*X35350Y82150D01*
X33350Y81650D02*X34850D01*
X33350Y83650D02*Y79650D01*
X34150Y81650D02*X35350Y79650D01*
X36550Y83150D02*X37050Y83650D01*
X38050D01*
X38550Y83150D01*
X38050Y79650D02*X38550Y80150D01*
X37050Y79650D02*X38050D01*
X36550Y80150D02*X37050Y79650D01*
Y81850D02*X38050D01*
X38550Y83150D02*Y82350D01*
Y81350D02*Y80150D01*
Y81350D02*X38050Y81850D01*
X38550Y82350D02*X38050Y81850D01*
X39750Y82850D02*X40550Y83650D01*
Y79650D01*
X39750D02*X41250D01*
X33936Y72650D02*Y68650D01*
X35236Y72650D02*X35936Y71950D01*
Y69350D01*
X35236Y68650D02*X35936Y69350D01*
X33436Y68650D02*X35236D01*
X33436Y72650D02*X35236D01*
X37136Y72150D02*X37636Y72650D01*
X38636D01*
X39136Y72150D01*
X38636Y68650D02*X39136Y69150D01*
X37636Y68650D02*X38636D01*
X37136Y69150D02*X37636Y68650D01*
Y70850D02*X38636D01*
X39136Y72150D02*Y71350D01*
Y70350D02*Y69150D01*
Y70350D02*X38636Y70850D01*
X39136Y71350D02*X38636Y70850D01*
X40336Y71850D02*X41136Y72650D01*
Y68650D01*
X40336D02*X41836D01*
X33800Y104500D02*X34600D01*
Y101000D01*
X34100Y100500D02*X34600Y101000D01*
X33600Y100500D02*X34100D01*
X33100Y101000D02*X33600Y100500D01*
X33100Y101500D02*Y101000D01*
X36300Y104500D02*Y100500D01*
X35800Y104500D02*X37800D01*
X38300Y104000D01*
Y103000D01*
X37800Y102500D02*X38300Y103000D01*
X36300Y102500D02*X37800D01*
X39500Y104000D02*X40000Y104500D01*
X41000D01*
X41500Y104000D01*
X41000Y100500D02*X41500Y101000D01*
X40000Y100500D02*X41000D01*
X39500Y101000D02*X40000Y100500D01*
Y102700D02*X41000D01*
X41500Y104000D02*Y103200D01*
Y102200D02*Y101000D01*
Y102200D02*X41000Y102700D01*
X41500Y103200D02*X41000Y102700D01*
X42700Y102000D02*X44700Y104500D01*
X42700Y102000D02*X45200D01*
X44700Y104500D02*Y100500D01*
X72850Y93650D02*X74850D01*
X75350Y93150D01*
Y92150D01*
X74850Y91650D02*X75350Y92150D01*
X73350Y91650D02*X74850D01*
X73350Y93650D02*Y89650D01*
X74150Y91650D02*X75350Y89650D01*
X76550Y93150D02*X77050Y93650D01*
X78050D01*
X78550Y93150D01*
X78050Y89650D02*X78550Y90150D01*
X77050Y89650D02*X78050D01*
X76550Y90150D02*X77050Y89650D01*
Y91850D02*X78050D01*
X78550Y93150D02*Y92350D01*
Y91350D02*Y90150D01*
Y91350D02*X78050Y91850D01*
X78550Y92350D02*X78050Y91850D01*
X79750Y93150D02*X80250Y93650D01*
X81750D01*
X82250Y93150D01*
Y92150D01*
X79750Y89650D02*X82250Y92150D01*
X79750Y89650D02*X82250D01*
X72850Y83650D02*X74850D01*
X75350Y83150D01*
Y82150D01*
X74850Y81650D02*X75350Y82150D01*
X73350Y81650D02*X74850D01*
X73350Y83650D02*Y79650D01*
X74150Y81650D02*X75350Y79650D01*
X76550Y83150D02*X77050Y83650D01*
X78050D01*
X78550Y83150D01*
X78050Y79650D02*X78550Y80150D01*
X77050Y79650D02*X78050D01*
X76550Y80150D02*X77050Y79650D01*
Y81850D02*X78050D01*
X78550Y83150D02*Y82350D01*
Y81350D02*Y80150D01*
Y81350D02*X78050Y81850D01*
X78550Y82350D02*X78050Y81850D01*
X79750Y83150D02*X80250Y83650D01*
X81250D01*
X81750Y83150D01*
X81250Y79650D02*X81750Y80150D01*
X80250Y79650D02*X81250D01*
X79750Y80150D02*X80250Y79650D01*
Y81850D02*X81250D01*
X81750Y83150D02*Y82350D01*
Y81350D02*Y80150D01*
Y81350D02*X81250Y81850D01*
X81750Y82350D02*X81250Y81850D01*
X73936Y72650D02*Y68650D01*
X75236Y72650D02*X75936Y71950D01*
Y69350D01*
X75236Y68650D02*X75936Y69350D01*
X73436Y68650D02*X75236D01*
X73436Y72650D02*X75236D01*
X77136Y72150D02*X77636Y72650D01*
X78636D01*
X79136Y72150D01*
X78636Y68650D02*X79136Y69150D01*
X77636Y68650D02*X78636D01*
X77136Y69150D02*X77636Y68650D01*
Y70850D02*X78636D01*
X79136Y72150D02*Y71350D01*
Y70350D02*Y69150D01*
Y70350D02*X78636Y70850D01*
X79136Y71350D02*X78636Y70850D01*
X80336Y72150D02*X80836Y72650D01*
X82336D01*
X82836Y72150D01*
Y71150D01*
X80336Y68650D02*X82836Y71150D01*
X80336Y68650D02*X82836D01*
X73800Y104500D02*X74600D01*
Y101000D01*
X74100Y100500D02*X74600Y101000D01*
X73600Y100500D02*X74100D01*
X73100Y101000D02*X73600Y100500D01*
X73100Y101500D02*Y101000D01*
X76300Y104500D02*Y100500D01*
X75800Y104500D02*X77800D01*
X78300Y104000D01*
Y103000D01*
X77800Y102500D02*X78300Y103000D01*
X76300Y102500D02*X77800D01*
X79500Y104000D02*X80000Y104500D01*
X81000D01*
X81500Y104000D01*
X81000Y100500D02*X81500Y101000D01*
X80000Y100500D02*X81000D01*
X79500Y101000D02*X80000Y100500D01*
Y102700D02*X81000D01*
X81500Y104000D02*Y103200D01*
Y102200D02*Y101000D01*
Y102200D02*X81000Y102700D01*
X81500Y103200D02*X81000Y102700D01*
X82700Y104500D02*X84700D01*
X82700D02*Y102500D01*
X83200Y103000D01*
X84200D01*
X84700Y102500D01*
Y101000D01*
X84200Y100500D02*X84700Y101000D01*
X83200Y100500D02*X84200D01*
X82700Y101000D02*X83200Y100500D01*
X141200Y63500D02*X142000D01*
Y60000D01*
X141500Y59500D02*X142000Y60000D01*
X141000Y59500D02*X141500D01*
X140500Y60000D02*X141000Y59500D01*
X140500Y60500D02*Y60000D01*
X143200Y63000D02*X143700Y63500D01*
X145200D01*
X145700Y63000D01*
Y62000D01*
X143200Y59500D02*X145700Y62000D01*
X143200Y59500D02*X145700D01*
X146900Y63000D02*X147400Y63500D01*
X148900D01*
X149400Y63000D01*
Y62000D01*
X146900Y59500D02*X149400Y62000D01*
X146900Y59500D02*X149400D01*
X101700Y63500D02*X102500D01*
Y60000D01*
X102000Y59500D02*X102500Y60000D01*
X101500Y59500D02*X102000D01*
X101000Y60000D02*X101500Y59500D01*
X101000Y60500D02*Y60000D01*
X103700Y63000D02*X104200Y63500D01*
X105700D01*
X106200Y63000D01*
Y62000D01*
X103700Y59500D02*X106200Y62000D01*
X103700Y59500D02*X106200D01*
X107400Y62700D02*X108200Y63500D01*
Y59500D01*
X107400D02*X108900D01*
X221200Y63500D02*X222000D01*
Y60000D01*
X221500Y59500D02*X222000Y60000D01*
X221000Y59500D02*X221500D01*
X220500Y60000D02*X221000Y59500D01*
X220500Y60500D02*Y60000D01*
X223200Y62700D02*X224000Y63500D01*
Y59500D01*
X223200D02*X224700D01*
X225900Y63000D02*X226400Y63500D01*
X227900D01*
X228400Y63000D01*
Y62000D01*
X225900Y59500D02*X228400Y62000D01*
X225900Y59500D02*X228400D01*
X181700Y63500D02*X182500D01*
Y60000D01*
X182000Y59500D02*X182500Y60000D01*
X181500Y59500D02*X182000D01*
X181000Y60000D02*X181500Y59500D01*
X181000Y60500D02*Y60000D01*
X183700Y62700D02*X184500Y63500D01*
Y59500D01*
X183700D02*X185200D01*
X186400Y62700D02*X187200Y63500D01*
Y59500D01*
X186400D02*X187900D01*
X112850Y93650D02*X114850D01*
X115350Y93150D01*
Y92150D01*
X114850Y91650D02*X115350Y92150D01*
X113350Y91650D02*X114850D01*
X113350Y93650D02*Y89650D01*
X114150Y91650D02*X115350Y89650D01*
X116550Y93150D02*X117050Y93650D01*
X118550D01*
X119050Y93150D01*
Y92150D01*
X116550Y89650D02*X119050Y92150D01*
X116550Y89650D02*X119050D01*
X120250Y90150D02*X120750Y89650D01*
X120250Y93150D02*Y90150D01*
Y93150D02*X120750Y93650D01*
X121750D01*
X122250Y93150D01*
Y90150D01*
X121750Y89650D02*X122250Y90150D01*
X120750Y89650D02*X121750D01*
X120250Y90650D02*X122250Y92650D01*
X113800Y104500D02*X114600D01*
Y101000D01*
X114100Y100500D02*X114600Y101000D01*
X113600Y100500D02*X114100D01*
X113100Y101000D02*X113600Y100500D01*
X113100Y101500D02*Y101000D01*
X116300Y104500D02*Y100500D01*
X115800Y104500D02*X117800D01*
X118300Y104000D01*
Y103000D01*
X117800Y102500D02*X118300Y103000D01*
X116300Y102500D02*X117800D01*
X119500Y104000D02*X120000Y104500D01*
X121500D01*
X122000Y104000D01*
Y103000D01*
X119500Y100500D02*X122000Y103000D01*
X119500Y100500D02*X122000D01*
X123200Y102000D02*X125200Y104500D01*
X123200Y102000D02*X125700D01*
X125200Y104500D02*Y100500D01*
X112850Y83650D02*X114850D01*
X115350Y83150D01*
Y82150D01*
X114850Y81650D02*X115350Y82150D01*
X113350Y81650D02*X114850D01*
X113350Y83650D02*Y79650D01*
X114150Y81650D02*X115350Y79650D01*
X116550Y83150D02*X117050Y83650D01*
X118550D01*
X119050Y83150D01*
Y82150D01*
X116550Y79650D02*X119050Y82150D01*
X116550Y79650D02*X119050D01*
X120250Y82850D02*X121050Y83650D01*
Y79650D01*
X120250D02*X121750D01*
X113936Y72650D02*Y68650D01*
X115236Y72650D02*X115936Y71950D01*
Y69350D01*
X115236Y68650D02*X115936Y69350D01*
X113436Y68650D02*X115236D01*
X113436Y72650D02*X115236D01*
X117136Y72150D02*X117636Y72650D01*
X119136D01*
X119636Y72150D01*
Y71150D01*
X117136Y68650D02*X119636Y71150D01*
X117136Y68650D02*X119636D01*
X120836Y71850D02*X121636Y72650D01*
Y68650D01*
X120836D02*X122336D01*
X153936Y72650D02*Y68650D01*
X155236Y72650D02*X155936Y71950D01*
Y69350D01*
X155236Y68650D02*X155936Y69350D01*
X153436Y68650D02*X155236D01*
X153436Y72650D02*X155236D01*
X157136Y72150D02*X157636Y72650D01*
X159136D01*
X159636Y72150D01*
Y71150D01*
X157136Y68650D02*X159636Y71150D01*
X157136Y68650D02*X159636D01*
X160836Y72150D02*X161336Y72650D01*
X162836D01*
X163336Y72150D01*
Y71150D01*
X160836Y68650D02*X163336Y71150D01*
X160836Y68650D02*X163336D01*
X152850Y93650D02*X154850D01*
X155350Y93150D01*
Y92150D01*
X154850Y91650D02*X155350Y92150D01*
X153350Y91650D02*X154850D01*
X153350Y93650D02*Y89650D01*
X154150Y91650D02*X155350Y89650D01*
X156550Y93150D02*X157050Y93650D01*
X158550D01*
X159050Y93150D01*
Y92150D01*
X156550Y89650D02*X159050Y92150D01*
X156550Y89650D02*X159050D01*
X160250Y93150D02*X160750Y93650D01*
X162250D01*
X162750Y93150D01*
Y92150D01*
X160250Y89650D02*X162750Y92150D01*
X160250Y89650D02*X162750D01*
X152850Y83650D02*X154850D01*
X155350Y83150D01*
Y82150D01*
X154850Y81650D02*X155350Y82150D01*
X153350Y81650D02*X154850D01*
X153350Y83650D02*Y79650D01*
X154150Y81650D02*X155350Y79650D01*
X156550Y83150D02*X157050Y83650D01*
X158550D01*
X159050Y83150D01*
Y82150D01*
X156550Y79650D02*X159050Y82150D01*
X156550Y79650D02*X159050D01*
X160250Y83150D02*X160750Y83650D01*
X161750D01*
X162250Y83150D01*
X161750Y79650D02*X162250Y80150D01*
X160750Y79650D02*X161750D01*
X160250Y80150D02*X160750Y79650D01*
Y81850D02*X161750D01*
X162250Y83150D02*Y82350D01*
Y81350D02*Y80150D01*
Y81350D02*X161750Y81850D01*
X162250Y82350D02*X161750Y81850D01*
X153800Y104500D02*X154600D01*
Y101000D01*
X154100Y100500D02*X154600Y101000D01*
X153600Y100500D02*X154100D01*
X153100Y101000D02*X153600Y100500D01*
X153100Y101500D02*Y101000D01*
X156300Y104500D02*Y100500D01*
X155800Y104500D02*X157800D01*
X158300Y104000D01*
Y103000D01*
X157800Y102500D02*X158300Y103000D01*
X156300Y102500D02*X157800D01*
X159500Y104000D02*X160000Y104500D01*
X161500D01*
X162000Y104000D01*
Y103000D01*
X159500Y100500D02*X162000Y103000D01*
X159500Y100500D02*X162000D01*
X163200Y104500D02*X165200D01*
X163200D02*Y102500D01*
X163700Y103000D01*
X164700D01*
X165200Y102500D01*
Y101000D01*
X164700Y100500D02*X165200Y101000D01*
X163700Y100500D02*X164700D01*
X163200Y101000D02*X163700Y100500D01*
X192850Y93650D02*X194850D01*
X195350Y93150D01*
Y92150D01*
X194850Y91650D02*X195350Y92150D01*
X193350Y91650D02*X194850D01*
X193350Y93650D02*Y89650D01*
X194150Y91650D02*X195350Y89650D01*
X196550Y92850D02*X197350Y93650D01*
Y89650D01*
X196550D02*X198050D01*
X199250Y90150D02*X199750Y89650D01*
X199250Y93150D02*Y90150D01*
Y93150D02*X199750Y93650D01*
X200750D01*
X201250Y93150D01*
Y90150D01*
X200750Y89650D02*X201250Y90150D01*
X199750Y89650D02*X200750D01*
X199250Y90650D02*X201250Y92650D01*
X192850Y83650D02*X194850D01*
X195350Y83150D01*
Y82150D01*
X194850Y81650D02*X195350Y82150D01*
X193350Y81650D02*X194850D01*
X193350Y83650D02*Y79650D01*
X194150Y81650D02*X195350Y79650D01*
X196550Y82850D02*X197350Y83650D01*
Y79650D01*
X196550D02*X198050D01*
X199250Y82850D02*X200050Y83650D01*
Y79650D01*
X199250D02*X200750D01*
X193936Y72650D02*Y68650D01*
X195236Y72650D02*X195936Y71950D01*
Y69350D01*
X195236Y68650D02*X195936Y69350D01*
X193436Y68650D02*X195236D01*
X193436Y72650D02*X195236D01*
X197136Y71850D02*X197936Y72650D01*
Y68650D01*
X197136D02*X198636D01*
X199836Y71850D02*X200636Y72650D01*
Y68650D01*
X199836D02*X201336D01*
X233936Y72650D02*Y68650D01*
X235236Y72650D02*X235936Y71950D01*
Y69350D01*
X235236Y68650D02*X235936Y69350D01*
X233436Y68650D02*X235236D01*
X233436Y72650D02*X235236D01*
X237136Y71850D02*X237936Y72650D01*
Y68650D01*
X237136D02*X238636D01*
X239836Y72150D02*X240336Y72650D01*
X241836D01*
X242336Y72150D01*
Y71150D01*
X239836Y68650D02*X242336Y71150D01*
X239836Y68650D02*X242336D01*
X193800Y104500D02*X194600D01*
Y101000D01*
X194100Y100500D02*X194600Y101000D01*
X193600Y100500D02*X194100D01*
X193100Y101000D02*X193600Y100500D01*
X193100Y101500D02*Y101000D01*
X196300Y104500D02*Y100500D01*
X195800Y104500D02*X197800D01*
X198300Y104000D01*
Y103000D01*
X197800Y102500D02*X198300Y103000D01*
X196300Y102500D02*X197800D01*
X199500Y103700D02*X200300Y104500D01*
Y100500D01*
X199500D02*X201000D01*
X202200Y102000D02*X204200Y104500D01*
X202200Y102000D02*X204700D01*
X204200Y104500D02*Y100500D01*
X232850Y93650D02*X234850D01*
X235350Y93150D01*
Y92150D01*
X234850Y91650D02*X235350Y92150D01*
X233350Y91650D02*X234850D01*
X233350Y93650D02*Y89650D01*
X234150Y91650D02*X235350Y89650D01*
X236550Y92850D02*X237350Y93650D01*
Y89650D01*
X236550D02*X238050D01*
X239250Y93150D02*X239750Y93650D01*
X241250D01*
X241750Y93150D01*
Y92150D01*
X239250Y89650D02*X241750Y92150D01*
X239250Y89650D02*X241750D01*
X232850Y83650D02*X234850D01*
X235350Y83150D01*
Y82150D01*
X234850Y81650D02*X235350Y82150D01*
X233350Y81650D02*X234850D01*
X233350Y83650D02*Y79650D01*
X234150Y81650D02*X235350Y79650D01*
X236550Y82850D02*X237350Y83650D01*
Y79650D01*
X236550D02*X238050D01*
X239250Y83150D02*X239750Y83650D01*
X240750D01*
X241250Y83150D01*
X240750Y79650D02*X241250Y80150D01*
X239750Y79650D02*X240750D01*
X239250Y80150D02*X239750Y79650D01*
Y81850D02*X240750D01*
X241250Y83150D02*Y82350D01*
Y81350D02*Y80150D01*
Y81350D02*X240750Y81850D01*
X241250Y82350D02*X240750Y81850D01*
X233800Y104500D02*X234600D01*
Y101000D01*
X234100Y100500D02*X234600Y101000D01*
X233600Y100500D02*X234100D01*
X233100Y101000D02*X233600Y100500D01*
X233100Y101500D02*Y101000D01*
X236300Y104500D02*Y100500D01*
X235800Y104500D02*X237800D01*
X238300Y104000D01*
Y103000D01*
X237800Y102500D02*X238300Y103000D01*
X236300Y102500D02*X237800D01*
X239500Y103700D02*X240300Y104500D01*
Y100500D01*
X239500D02*X241000D01*
X242200Y104500D02*X244200D01*
X242200D02*Y102500D01*
X242700Y103000D01*
X243700D01*
X244200Y102500D01*
Y101000D01*
X243700Y100500D02*X244200Y101000D01*
X242700Y100500D02*X243700D01*
X242200Y101000D02*X242700Y100500D01*
X412700Y33000D02*X413500D01*
Y29500D01*
X413000Y29000D02*X413500Y29500D01*
X412500Y29000D02*X413000D01*
X412000Y29500D02*X412500Y29000D01*
X412000Y30000D02*Y29500D01*
X414700Y32500D02*X415200Y33000D01*
X416700D01*
X417200Y32500D01*
Y31500D01*
X414700Y29000D02*X417200Y31500D01*
X414700Y29000D02*X417200D01*
X496750Y12150D02*X498050D01*
X496050Y12850D02*X496750Y12150D01*
X496050Y15450D02*Y12850D01*
Y15450D02*X496750Y16150D01*
X498050D01*
X499250Y15650D02*X499750Y16150D01*
X501250D01*
X501750Y15650D01*
Y14650D01*
X499250Y12150D02*X501750Y14650D01*
X499250Y12150D02*X501750D01*
X536543Y9000D02*X537843D01*
X535843Y9700D02*X536543Y9000D01*
X535843Y12300D02*Y9700D01*
Y12300D02*X536543Y13000D01*
X537843D01*
X539043Y12200D02*X539843Y13000D01*
Y9000D01*
X539043D02*X540543D01*
X480850Y40150D02*Y36150D01*
X482150Y40150D02*X482850Y39450D01*
Y36850D01*
X482150Y36150D02*X482850Y36850D01*
X480350Y36150D02*X482150D01*
X480350Y40150D02*X482150D01*
X484050Y39350D02*X484850Y40150D01*
Y36150D01*
X484050D02*X485550D01*
X479893Y30650D02*X481893D01*
X482393Y30150D01*
Y29150D01*
X481893Y28650D02*X482393Y29150D01*
X480393Y28650D02*X481893D01*
X480393Y30650D02*Y26650D01*
X481193Y28650D02*X482393Y26650D01*
X483593Y29850D02*X484393Y30650D01*
Y26650D01*
X483593D02*X485093D01*
X336300Y21500D02*X337100D01*
Y18000D01*
X336600Y17500D02*X337100Y18000D01*
X336100Y17500D02*X336600D01*
X335600Y18000D02*X336100Y17500D01*
X335600Y18500D02*Y18000D01*
X338800Y21500D02*Y17500D01*
X338300Y21500D02*X340300D01*
X340800Y21000D01*
Y20000D01*
X340300Y19500D02*X340800Y20000D01*
X338800Y19500D02*X340300D01*
X342000Y21000D02*X342500Y21500D01*
X344000D01*
X344500Y21000D01*
Y20000D01*
X342000Y17500D02*X344500Y20000D01*
X342000Y17500D02*X344500D01*
X345700Y21000D02*X346200Y21500D01*
X347200D01*
X347700Y21000D01*
X347200Y17500D02*X347700Y18000D01*
X346200Y17500D02*X347200D01*
X345700Y18000D02*X346200Y17500D01*
Y19700D02*X347200D01*
X347700Y21000D02*Y20200D01*
Y19200D02*Y18000D01*
Y19200D02*X347200Y19700D01*
X347700Y20200D02*X347200Y19700D01*
X336300Y49500D02*X337100D01*
Y46000D01*
X336600Y45500D02*X337100Y46000D01*
X336100Y45500D02*X336600D01*
X335600Y46000D02*X336100Y45500D01*
X335600Y46500D02*Y46000D01*
X338800Y49500D02*Y45500D01*
X338300Y49500D02*X340300D01*
X340800Y49000D01*
Y48000D01*
X340300Y47500D02*X340800Y48000D01*
X338800Y47500D02*X340300D01*
X342000Y49000D02*X342500Y49500D01*
X344000D01*
X344500Y49000D01*
Y48000D01*
X342000Y45500D02*X344500Y48000D01*
X342000Y45500D02*X344500D01*
X345700Y48700D02*X346500Y49500D01*
Y45500D01*
X345700D02*X347200D01*
X336300Y63500D02*X337100D01*
Y60000D01*
X336600Y59500D02*X337100Y60000D01*
X336100Y59500D02*X336600D01*
X335600Y60000D02*X336100Y59500D01*
X335600Y60500D02*Y60000D01*
X338800Y63500D02*Y59500D01*
X338300Y63500D02*X340300D01*
X340800Y63000D01*
Y62000D01*
X340300Y61500D02*X340800Y62000D01*
X338800Y61500D02*X340300D01*
X342000Y63000D02*X342500Y63500D01*
X344000D01*
X344500Y63000D01*
Y62000D01*
X342000Y59500D02*X344500Y62000D01*
X342000Y59500D02*X344500D01*
X345700Y60000D02*X346200Y59500D01*
X345700Y63000D02*Y60000D01*
Y63000D02*X346200Y63500D01*
X347200D01*
X347700Y63000D01*
Y60000D01*
X347200Y59500D02*X347700Y60000D01*
X346200Y59500D02*X347200D01*
X345700Y60500D02*X347700Y62500D01*
X336300Y35500D02*X337100D01*
Y32000D01*
X336600Y31500D02*X337100Y32000D01*
X336100Y31500D02*X336600D01*
X335600Y32000D02*X336100Y31500D01*
X335600Y32500D02*Y32000D01*
X338800Y35500D02*Y31500D01*
X338300Y35500D02*X340300D01*
X340800Y35000D01*
Y34000D01*
X340300Y33500D02*X340800Y34000D01*
X338800Y33500D02*X340300D01*
X342000Y35000D02*X342500Y35500D01*
X344000D01*
X344500Y35000D01*
Y34000D01*
X342000Y31500D02*X344500Y34000D01*
X342000Y31500D02*X344500D01*
X345700Y35000D02*X346200Y35500D01*
X347700D01*
X348200Y35000D01*
Y34000D01*
X345700Y31500D02*X348200Y34000D01*
X345700Y31500D02*X348200D01*
M02*
