G04 start of page 12 for group -3984 idx -3984 *
G04 Title: (unknown), fab *
G04 Creator: pcb 20140316 *
G04 CreationDate: Wed 29 Apr 2020 12:31:51 AM GMT UTC *
G04 For: railfan *
G04 Format: Gerber/RS-274X *
G04 PCB-Dimensions (mil): 6000.00 4000.00 *
G04 PCB-Coordinate-Origin: lower left *
%MOIN*%
%FSLAX25Y25*%
%LNFAB*%
%ADD84C,0.0100*%
%ADD83C,0.0075*%
%ADD82C,0.0060*%
%ADD81C,0.0001*%
%ADD80R,0.0080X0.0080*%
G54D80*X300000Y32000D02*Y28800D01*
G54D81*G36*
X299454Y32147D02*X302920Y34146D01*
X303320Y33453D01*
X299853Y31454D01*
X299454Y32147D01*
G37*
G36*
X300147Y31454D02*X296680Y33453D01*
X297080Y34146D01*
X300546Y32147D01*
X300147Y31454D01*
G37*
G54D80*X298400Y32000D02*G75*G03X301600Y32000I1600J0D01*G01*
G75*G03X298400Y32000I-1600J0D01*G01*
X308000Y45856D02*Y42656D01*
G54D81*G36*
X307453Y46003D02*X310920Y48003D01*
X311319Y47310D01*
X307853Y45310D01*
X307453Y46003D01*
G37*
G36*
X308146Y45310D02*X304680Y47310D01*
X305080Y48003D01*
X308546Y46003D01*
X308146Y45310D01*
G37*
G54D80*X306400Y45856D02*G75*G03X309600Y45856I1600J0D01*G01*
G75*G03X306400Y45856I-1600J0D01*G01*
X292000D02*Y42656D01*
G54D81*G36*
X291454Y46003D02*X294920Y48003D01*
X295320Y47310D01*
X291853Y45310D01*
X291454Y46003D01*
G37*
G36*
X292147Y45310D02*X288680Y47310D01*
X289080Y48003D01*
X292546Y46003D01*
X292147Y45310D01*
G37*
G54D80*X290400Y45856D02*G75*G03X293600Y45856I1600J0D01*G01*
G75*G03X290400Y45856I-1600J0D01*G01*
X284000Y32000D02*Y28800D01*
G54D81*G36*
X283454Y32147D02*X286920Y34147D01*
X287320Y33454D01*
X283854Y31454D01*
X283454Y32147D01*
G37*
G36*
X284147Y31454D02*X280681Y33454D01*
X281080Y34147D01*
X284547Y32147D01*
X284147Y31454D01*
G37*
G54D80*X282400Y32000D02*G75*G03X285600Y32000I1600J0D01*G01*
G75*G03X282400Y32000I-1600J0D01*G01*
X292000Y18144D02*Y14944D01*
G54D81*G36*
X291454Y18290D02*X294920Y20290D01*
X295320Y19597D01*
X291854Y17597D01*
X291454Y18290D01*
G37*
G36*
X292147Y17597D02*X288681Y19597D01*
X289080Y20290D01*
X292547Y18290D01*
X292147Y17597D01*
G37*
G54D80*X290400Y18144D02*G75*G03X293600Y18144I1600J0D01*G01*
G75*G03X290400Y18144I-1600J0D01*G01*
X308000D02*Y14944D01*
G54D81*G36*
X307454Y18290D02*X310920Y20290D01*
X311320Y19597D01*
X307853Y17597D01*
X307454Y18290D01*
G37*
G36*
X308147Y17597D02*X304680Y19597D01*
X305080Y20290D01*
X308546Y18290D01*
X308147Y17597D01*
G37*
G54D80*X306400Y18144D02*G75*G03X309600Y18144I1600J0D01*G01*
G75*G03X306400Y18144I-1600J0D01*G01*
X316000Y32000D02*Y28800D01*
G54D81*G36*
X315453Y32146D02*X318920Y34146D01*
X319319Y33453D01*
X315853Y31453D01*
X315453Y32146D01*
G37*
G36*
X316146Y31453D02*X312680Y33453D01*
X313080Y34146D01*
X316546Y32146D01*
X316146Y31453D01*
G37*
G54D80*X314400Y32000D02*G75*G03X317600Y32000I1600J0D01*G01*
G75*G03X314400Y32000I-1600J0D01*G01*
X50000Y250000D02*Y246800D01*
G54D81*G36*
X49454Y250147D02*X52920Y252146D01*
X53320Y251453D01*
X49853Y249454D01*
X49454Y250147D01*
G37*
G36*
X50147Y249454D02*X46680Y251453D01*
X47080Y252146D01*
X50546Y250147D01*
X50147Y249454D01*
G37*
G54D80*X48400Y250000D02*G75*G03X51600Y250000I1600J0D01*G01*
G75*G03X48400Y250000I-1600J0D01*G01*
X58000Y263856D02*Y260656D01*
G54D81*G36*
X57453Y264003D02*X60920Y266003D01*
X61319Y265310D01*
X57853Y263310D01*
X57453Y264003D01*
G37*
G36*
X58146Y263310D02*X54680Y265310D01*
X55080Y266003D01*
X58546Y264003D01*
X58146Y263310D01*
G37*
G54D80*X56400Y263856D02*G75*G03X59600Y263856I1600J0D01*G01*
G75*G03X56400Y263856I-1600J0D01*G01*
X42000D02*Y260656D01*
G54D81*G36*
X41454Y264003D02*X44920Y266003D01*
X45320Y265310D01*
X41853Y263310D01*
X41454Y264003D01*
G37*
G36*
X42147Y263310D02*X38680Y265310D01*
X39080Y266003D01*
X42546Y264003D01*
X42147Y263310D01*
G37*
G54D80*X40400Y263856D02*G75*G03X43600Y263856I1600J0D01*G01*
G75*G03X40400Y263856I-1600J0D01*G01*
X34000Y250000D02*Y246800D01*
G54D81*G36*
X33454Y250147D02*X36920Y252147D01*
X37320Y251454D01*
X33854Y249454D01*
X33454Y250147D01*
G37*
G36*
X34147Y249454D02*X30681Y251454D01*
X31080Y252147D01*
X34547Y250147D01*
X34147Y249454D01*
G37*
G54D80*X32400Y250000D02*G75*G03X35600Y250000I1600J0D01*G01*
G75*G03X32400Y250000I-1600J0D01*G01*
X42000Y236144D02*Y232944D01*
G54D81*G36*
X41454Y236290D02*X44920Y238290D01*
X45320Y237597D01*
X41854Y235597D01*
X41454Y236290D01*
G37*
G36*
X42147Y235597D02*X38681Y237597D01*
X39080Y238290D01*
X42547Y236290D01*
X42147Y235597D01*
G37*
G54D80*X40400Y236144D02*G75*G03X43600Y236144I1600J0D01*G01*
G75*G03X40400Y236144I-1600J0D01*G01*
X58000D02*Y232944D01*
G54D81*G36*
X57454Y236290D02*X60920Y238290D01*
X61320Y237597D01*
X57853Y235597D01*
X57454Y236290D01*
G37*
G36*
X58147Y235597D02*X54680Y237597D01*
X55080Y238290D01*
X58546Y236290D01*
X58147Y235597D01*
G37*
G54D80*X56400Y236144D02*G75*G03X59600Y236144I1600J0D01*G01*
G75*G03X56400Y236144I-1600J0D01*G01*
X66000Y250000D02*Y246800D01*
G54D81*G36*
X65453Y250146D02*X68920Y252146D01*
X69319Y251453D01*
X65853Y249453D01*
X65453Y250146D01*
G37*
G36*
X66146Y249453D02*X62680Y251453D01*
X63080Y252146D01*
X66546Y250146D01*
X66146Y249453D01*
G37*
G54D80*X64400Y250000D02*G75*G03X67600Y250000I1600J0D01*G01*
G75*G03X64400Y250000I-1600J0D01*G01*
X550000Y250000D02*Y246800D01*
G54D81*G36*
X549454Y250147D02*X552920Y252146D01*
X553320Y251453D01*
X549853Y249454D01*
X549454Y250147D01*
G37*
G36*
X550147Y249454D02*X546680Y251453D01*
X547080Y252146D01*
X550546Y250147D01*
X550147Y249454D01*
G37*
G54D80*X548400Y250000D02*G75*G03X551600Y250000I1600J0D01*G01*
G75*G03X548400Y250000I-1600J0D01*G01*
X558000Y263856D02*Y260656D01*
G54D81*G36*
X557453Y264003D02*X560920Y266003D01*
X561319Y265310D01*
X557853Y263310D01*
X557453Y264003D01*
G37*
G36*
X558146Y263310D02*X554680Y265310D01*
X555080Y266003D01*
X558546Y264003D01*
X558146Y263310D01*
G37*
G54D80*X556400Y263856D02*G75*G03X559600Y263856I1600J0D01*G01*
G75*G03X556400Y263856I-1600J0D01*G01*
X542000D02*Y260656D01*
G54D81*G36*
X541454Y264003D02*X544920Y266003D01*
X545320Y265310D01*
X541853Y263310D01*
X541454Y264003D01*
G37*
G36*
X542147Y263310D02*X538680Y265310D01*
X539080Y266003D01*
X542546Y264003D01*
X542147Y263310D01*
G37*
G54D80*X540400Y263856D02*G75*G03X543600Y263856I1600J0D01*G01*
G75*G03X540400Y263856I-1600J0D01*G01*
X534000Y250000D02*Y246800D01*
G54D81*G36*
X533454Y250147D02*X536920Y252147D01*
X537320Y251454D01*
X533854Y249454D01*
X533454Y250147D01*
G37*
G36*
X534147Y249454D02*X530681Y251454D01*
X531080Y252147D01*
X534547Y250147D01*
X534147Y249454D01*
G37*
G54D80*X532400Y250000D02*G75*G03X535600Y250000I1600J0D01*G01*
G75*G03X532400Y250000I-1600J0D01*G01*
X542000Y236144D02*Y232944D01*
G54D81*G36*
X541454Y236290D02*X544920Y238290D01*
X545320Y237597D01*
X541854Y235597D01*
X541454Y236290D01*
G37*
G36*
X542147Y235597D02*X538681Y237597D01*
X539080Y238290D01*
X542547Y236290D01*
X542147Y235597D01*
G37*
G54D80*X540400Y236144D02*G75*G03X543600Y236144I1600J0D01*G01*
G75*G03X540400Y236144I-1600J0D01*G01*
X558000D02*Y232944D01*
G54D81*G36*
X557454Y236290D02*X560920Y238290D01*
X561320Y237597D01*
X557853Y235597D01*
X557454Y236290D01*
G37*
G36*
X558147Y235597D02*X554680Y237597D01*
X555080Y238290D01*
X558546Y236290D01*
X558147Y235597D01*
G37*
G54D80*X556400Y236144D02*G75*G03X559600Y236144I1600J0D01*G01*
G75*G03X556400Y236144I-1600J0D01*G01*
X566000Y250000D02*Y246800D01*
G54D81*G36*
X565453Y250146D02*X568920Y252146D01*
X569319Y251453D01*
X565853Y249453D01*
X565453Y250146D01*
G37*
G36*
X566146Y249453D02*X562680Y251453D01*
X563080Y252146D01*
X566546Y250146D01*
X566146Y249453D01*
G37*
G54D80*X564400Y250000D02*G75*G03X567600Y250000I1600J0D01*G01*
G75*G03X564400Y250000I-1600J0D01*G01*
X15000Y411250D02*Y408050D01*
G54D81*G36*
X14454Y411397D02*X17920Y413396D01*
X18320Y412703D01*
X14853Y410704D01*
X14454Y411397D01*
G37*
G36*
X15147Y410704D02*X11680Y412703D01*
X12080Y413396D01*
X15546Y411397D01*
X15147Y410704D01*
G37*
G54D80*X13400Y411250D02*G75*G03X16600Y411250I1600J0D01*G01*
G75*G03X13400Y411250I-1600J0D01*G01*
G54D82*X135000Y413500D02*X136500Y410500D01*
X138000Y413500D01*
X136500Y410500D02*Y407500D01*
X139800Y410800D02*X142050D01*
X139800Y407500D02*X142800D01*
X139800Y413500D02*Y407500D01*
Y413500D02*X142800D01*
X147600D02*X148350Y412750D01*
X145350Y413500D02*X147600D01*
X144600Y412750D02*X145350Y413500D01*
X144600Y412750D02*Y411250D01*
X145350Y410500D01*
X147600D01*
X148350Y409750D01*
Y408250D01*
X147600Y407500D02*X148350Y408250D01*
X145350Y407500D02*X147600D01*
X144600Y408250D02*X145350Y407500D01*
X98000Y412750D02*X98750Y413500D01*
X101000D01*
X101750Y412750D01*
Y411250D01*
X98000Y407500D02*X101750Y411250D01*
X98000Y407500D02*X101750D01*
X103550Y412300D02*X104750Y413500D01*
Y407500D01*
X103550D02*X105800D01*
X45000Y408250D02*X45750Y407500D01*
X45000Y412750D02*Y408250D01*
Y412750D02*X45750Y413500D01*
X47250D01*
X48000Y412750D01*
Y408250D01*
X47250Y407500D02*X48000Y408250D01*
X45750Y407500D02*X47250D01*
X45000Y409000D02*X48000Y412000D01*
X49800Y407500D02*X50550D01*
X52350Y408250D02*X53100Y407500D01*
X52350Y412750D02*Y408250D01*
Y412750D02*X53100Y413500D01*
X54600D01*
X55350Y412750D01*
Y408250D01*
X54600Y407500D02*X55350Y408250D01*
X53100Y407500D02*X54600D01*
X52350Y409000D02*X55350Y412000D01*
X57900Y407500D02*X60900Y413500D01*
X57150D02*X60900D01*
X62700D02*X65700D01*
X62700D02*Y410500D01*
X63450Y411250D01*
X64950D01*
X65700Y410500D01*
Y408250D01*
X64950Y407500D02*X65700Y408250D01*
X63450Y407500D02*X64950D01*
X62700Y408250D02*X63450Y407500D01*
X60400Y371100D02*X63600D01*
X60400D02*Y367900D01*
X63600D01*
Y371100D02*Y367900D01*
X40400Y371100D02*X43600D01*
X40400D02*Y367900D01*
X43600D01*
Y371100D02*Y367900D01*
X20400Y371100D02*X23600D01*
X20400D02*Y367900D01*
X23600D01*
Y371100D02*Y367900D01*
X242400Y371600D02*X245600D01*
X242400D02*Y368400D01*
X245600D01*
Y371600D02*Y368400D01*
X222400Y371600D02*X225600D01*
X222400D02*Y368400D01*
X225600D01*
Y371600D02*Y368400D01*
X202400Y371600D02*X205600D01*
X202400D02*Y368400D01*
X205600D01*
Y371600D02*Y368400D01*
X424400Y372100D02*X427600D01*
X424400D02*Y368900D01*
X427600D01*
Y372100D02*Y368900D01*
X404400Y372100D02*X407600D01*
X404400D02*Y368900D01*
X407600D01*
Y372100D02*Y368900D01*
X384400Y372100D02*X387600D01*
X384400D02*Y368900D01*
X387600D01*
Y372100D02*Y368900D01*
X568400Y372100D02*X571600D01*
X568400D02*Y368900D01*
X571600D01*
Y372100D02*Y368900D01*
X548400Y372100D02*X551600D01*
X548400D02*Y368900D01*
X551600D01*
Y372100D02*Y368900D01*
X528400Y372100D02*X531600D01*
X528400D02*Y368900D01*
X531600D01*
Y372100D02*Y368900D01*
X13400Y427850D02*X16600D01*
X13400D02*Y424650D01*
X16600D01*
Y427850D02*Y424650D01*
X135000Y428500D02*X136500Y425500D01*
X138000Y428500D01*
X136500Y425500D02*Y422500D01*
X139800Y425800D02*X142050D01*
X139800Y422500D02*X142800D01*
X139800Y428500D02*Y422500D01*
Y428500D02*X142800D01*
X147600D02*X148350Y427750D01*
X145350Y428500D02*X147600D01*
X144600Y427750D02*X145350Y428500D01*
X144600Y427750D02*Y426250D01*
X145350Y425500D01*
X147600D01*
X148350Y424750D01*
Y423250D01*
X147600Y422500D02*X148350Y423250D01*
X145350Y422500D02*X147600D01*
X144600Y423250D02*X145350Y422500D01*
X98000Y427300D02*X99200Y428500D01*
Y422500D01*
X98000D02*X100250D01*
X102050Y427750D02*X102800Y428500D01*
X105050D01*
X105800Y427750D01*
Y426250D01*
X102050Y422500D02*X105800Y426250D01*
X102050Y422500D02*X105800D01*
X45000Y423250D02*X45750Y422500D01*
X45000Y427750D02*Y423250D01*
Y427750D02*X45750Y428500D01*
X47250D01*
X48000Y427750D01*
Y423250D01*
X47250Y422500D02*X48000Y423250D01*
X45750Y422500D02*X47250D01*
X45000Y424000D02*X48000Y427000D01*
X49800Y422500D02*X50550D01*
X52350Y423250D02*X53100Y422500D01*
X52350Y427750D02*Y423250D01*
Y427750D02*X53100Y428500D01*
X54600D01*
X55350Y427750D01*
Y423250D01*
X54600Y422500D02*X55350Y423250D01*
X53100Y422500D02*X54600D01*
X52350Y424000D02*X55350Y427000D01*
X57150Y428500D02*X60150D01*
X57150D02*Y425500D01*
X57900Y426250D01*
X59400D01*
X60150Y425500D01*
Y423250D01*
X59400Y422500D02*X60150Y423250D01*
X57900Y422500D02*X59400D01*
X57150Y423250D02*X57900Y422500D01*
X61950Y428500D02*X64950D01*
X61950D02*Y425500D01*
X62700Y426250D01*
X64200D01*
X64950Y425500D01*
Y423250D01*
X64200Y422500D02*X64950Y423250D01*
X62700Y422500D02*X64200D01*
X61950Y423250D02*X62700Y422500D01*
X121200Y335500D02*G75*G03X122800Y335500I800J0D01*G01*
G75*G03X121200Y335500I-800J0D01*G01*
X61200D02*G75*G03X62800Y335500I800J0D01*G01*
G75*G03X61200Y335500I-800J0D01*G01*
X41200D02*G75*G03X42800Y335500I800J0D01*G01*
G75*G03X41200Y335500I-800J0D01*G01*
X21200D02*G75*G03X22800Y335500I800J0D01*G01*
G75*G03X21200Y335500I-800J0D01*G01*
Y305500D02*G75*G03X22800Y305500I800J0D01*G01*
G75*G03X21200Y305500I-800J0D01*G01*
X41200D02*G75*G03X42800Y305500I800J0D01*G01*
G75*G03X41200Y305500I-800J0D01*G01*
X61200D02*G75*G03X62800Y305500I800J0D01*G01*
G75*G03X61200Y305500I-800J0D01*G01*
X121200D02*G75*G03X122800Y305500I800J0D01*G01*
G75*G03X121200Y305500I-800J0D01*G01*
X303200Y336000D02*G75*G03X304800Y336000I800J0D01*G01*
G75*G03X303200Y336000I-800J0D01*G01*
X243200D02*G75*G03X244800Y336000I800J0D01*G01*
G75*G03X243200Y336000I-800J0D01*G01*
X223200D02*G75*G03X224800Y336000I800J0D01*G01*
G75*G03X223200Y336000I-800J0D01*G01*
X203200D02*G75*G03X204800Y336000I800J0D01*G01*
G75*G03X203200Y336000I-800J0D01*G01*
Y306000D02*G75*G03X204800Y306000I800J0D01*G01*
G75*G03X203200Y306000I-800J0D01*G01*
X223200D02*G75*G03X224800Y306000I800J0D01*G01*
G75*G03X223200Y306000I-800J0D01*G01*
X243200D02*G75*G03X244800Y306000I800J0D01*G01*
G75*G03X243200Y306000I-800J0D01*G01*
X303200D02*G75*G03X304800Y306000I800J0D01*G01*
G75*G03X303200Y306000I-800J0D01*G01*
X485200Y336500D02*G75*G03X486800Y336500I800J0D01*G01*
G75*G03X485200Y336500I-800J0D01*G01*
X425200D02*G75*G03X426800Y336500I800J0D01*G01*
G75*G03X425200Y336500I-800J0D01*G01*
X405200D02*G75*G03X406800Y336500I800J0D01*G01*
G75*G03X405200Y336500I-800J0D01*G01*
X385200D02*G75*G03X386800Y336500I800J0D01*G01*
G75*G03X385200Y336500I-800J0D01*G01*
Y306500D02*G75*G03X386800Y306500I800J0D01*G01*
G75*G03X385200Y306500I-800J0D01*G01*
X405200D02*G75*G03X406800Y306500I800J0D01*G01*
G75*G03X405200Y306500I-800J0D01*G01*
X425200D02*G75*G03X426800Y306500I800J0D01*G01*
G75*G03X425200Y306500I-800J0D01*G01*
X485200D02*G75*G03X486800Y306500I800J0D01*G01*
G75*G03X485200Y306500I-800J0D01*G01*
X14200Y441250D02*G75*G03X15800Y441250I800J0D01*G01*
G75*G03X14200Y441250I-800J0D01*G01*
X135000Y443500D02*X136500Y440500D01*
X138000Y443500D01*
X136500Y440500D02*Y437500D01*
X139800Y440800D02*X142050D01*
X139800Y437500D02*X142800D01*
X139800Y443500D02*Y437500D01*
Y443500D02*X142800D01*
X147600D02*X148350Y442750D01*
X145350Y443500D02*X147600D01*
X144600Y442750D02*X145350Y443500D01*
X144600Y442750D02*Y441250D01*
X145350Y440500D01*
X147600D01*
X148350Y439750D01*
Y438250D01*
X147600Y437500D02*X148350Y438250D01*
X145350Y437500D02*X147600D01*
X144600Y438250D02*X145350Y437500D01*
X98000Y442750D02*X98750Y443500D01*
X101000D01*
X101750Y442750D01*
Y441250D01*
X98000Y437500D02*X101750Y441250D01*
X98000Y437500D02*X101750D01*
X103550Y439750D02*X106550Y443500D01*
X103550Y439750D02*X107300D01*
X106550Y443500D02*Y437500D01*
X45000Y438250D02*X45750Y437500D01*
X45000Y442750D02*Y438250D01*
Y442750D02*X45750Y443500D01*
X47250D01*
X48000Y442750D01*
Y438250D01*
X47250Y437500D02*X48000Y438250D01*
X45750Y437500D02*X47250D01*
X45000Y439000D02*X48000Y442000D01*
X49800Y437500D02*X50550D01*
X52350Y438250D02*X53100Y437500D01*
X52350Y442750D02*Y438250D01*
Y442750D02*X53100Y443500D01*
X54600D01*
X55350Y442750D01*
Y438250D01*
X54600Y437500D02*X55350Y438250D01*
X53100Y437500D02*X54600D01*
X52350Y439000D02*X55350Y442000D01*
X57150Y443500D02*X60150D01*
X57150D02*Y440500D01*
X57900Y441250D01*
X59400D01*
X60150Y440500D01*
Y438250D01*
X59400Y437500D02*X60150Y438250D01*
X57900Y437500D02*X59400D01*
X57150Y438250D02*X57900Y437500D01*
X61950Y442750D02*X62700Y443500D01*
X64950D01*
X65700Y442750D01*
Y441250D01*
X61950Y437500D02*X65700Y441250D01*
X61950Y437500D02*X65700D01*
X428800Y32200D02*X431200Y29800D01*
X428800D02*X431200Y32200D01*
X448800D02*X451200Y29800D01*
X448800D02*X451200Y32200D01*
X53800Y41200D02*X56200Y38800D01*
X53800D02*X56200Y41200D01*
X73800D02*X76200Y38800D01*
X73800D02*X76200Y41200D01*
X13800D02*X16200Y38800D01*
X13800D02*X16200Y41200D01*
X33800D02*X36200Y38800D01*
X33800D02*X36200Y41200D01*
X133800D02*X136200Y38800D01*
X133800D02*X136200Y41200D01*
X153800D02*X156200Y38800D01*
X153800D02*X156200Y41200D01*
X93800D02*X96200Y38800D01*
X93800D02*X96200Y41200D01*
X113800D02*X116200Y38800D01*
X113800D02*X116200Y41200D01*
X213800D02*X216200Y38800D01*
X213800D02*X216200Y41200D01*
X233800D02*X236200Y38800D01*
X233800D02*X236200Y41200D01*
X173800D02*X176200Y38800D01*
X173800D02*X176200Y41200D01*
X193800D02*X196200Y38800D01*
X193800D02*X196200Y41200D01*
X13800Y457450D02*X16200Y455050D01*
X13800D02*X16200Y457450D01*
X135000Y458500D02*X136500Y455500D01*
X138000Y458500D01*
X136500Y455500D02*Y452500D01*
X139800Y455800D02*X142050D01*
X139800Y452500D02*X142800D01*
X139800Y458500D02*Y452500D01*
Y458500D02*X142800D01*
X147600D02*X148350Y457750D01*
X145350Y458500D02*X147600D01*
X144600Y457750D02*X145350Y458500D01*
X144600Y457750D02*Y456250D01*
X145350Y455500D01*
X147600D01*
X148350Y454750D01*
Y453250D01*
X147600Y452500D02*X148350Y453250D01*
X145350Y452500D02*X147600D01*
X144600Y453250D02*X145350Y452500D01*
X98000Y457300D02*X99200Y458500D01*
Y452500D01*
X98000D02*X100250D01*
X102050Y454750D02*X105050Y458500D01*
X102050Y454750D02*X105800D01*
X105050Y458500D02*Y452500D01*
X45000Y453250D02*X45750Y452500D01*
X45000Y457750D02*Y453250D01*
Y457750D02*X45750Y458500D01*
X47250D01*
X48000Y457750D01*
Y453250D01*
X47250Y452500D02*X48000Y453250D01*
X45750Y452500D02*X47250D01*
X45000Y454000D02*X48000Y457000D01*
X49800Y452500D02*X50550D01*
X52350Y453250D02*X53100Y452500D01*
X52350Y457750D02*Y453250D01*
Y457750D02*X53100Y458500D01*
X54600D01*
X55350Y457750D01*
Y453250D01*
X54600Y452500D02*X55350Y453250D01*
X53100Y452500D02*X54600D01*
X52350Y454000D02*X55350Y457000D01*
X57150Y454750D02*X60150Y458500D01*
X57150Y454750D02*X60900D01*
X60150Y458500D02*Y452500D01*
X62700Y453250D02*X63450Y452500D01*
X62700Y454450D02*Y453250D01*
Y454450D02*X63750Y455500D01*
X64650D01*
X65700Y454450D01*
Y453250D01*
X64950Y452500D02*X65700Y453250D01*
X63450Y452500D02*X64950D01*
X62700Y456550D02*X63750Y455500D01*
X62700Y457750D02*Y456550D01*
Y457750D02*X63450Y458500D01*
X64950D01*
X65700Y457750D01*
Y456550D01*
X64650Y455500D02*X65700Y456550D01*
X515000Y148100D02*Y144900D01*
X513400Y146500D02*X516600D01*
X525000Y58100D02*Y54900D01*
X523400Y56500D02*X526600D01*
X585000Y58100D02*Y54900D01*
X583400Y56500D02*X586600D01*
X585000Y148100D02*Y144900D01*
X583400Y146500D02*X586600D01*
X15000Y472850D02*Y469650D01*
X13400Y471250D02*X16600D01*
X135000Y473500D02*X136500Y470500D01*
X138000Y473500D01*
X136500Y470500D02*Y467500D01*
X139800Y470800D02*X142050D01*
X139800Y467500D02*X142800D01*
X139800Y473500D02*Y467500D01*
Y473500D02*X142800D01*
X147600D02*X148350Y472750D01*
X145350Y473500D02*X147600D01*
X144600Y472750D02*X145350Y473500D01*
X144600Y472750D02*Y471250D01*
X145350Y470500D01*
X147600D01*
X148350Y469750D01*
Y468250D01*
X147600Y467500D02*X148350Y468250D01*
X145350Y467500D02*X147600D01*
X144600Y468250D02*X145350Y467500D01*
X98000Y469750D02*X101000Y473500D01*
X98000Y469750D02*X101750D01*
X101000Y473500D02*Y467500D01*
X45000Y468250D02*X45750Y467500D01*
X45000Y472750D02*Y468250D01*
Y472750D02*X45750Y473500D01*
X47250D01*
X48000Y472750D01*
Y468250D01*
X47250Y467500D02*X48000Y468250D01*
X45750Y467500D02*X47250D01*
X45000Y469000D02*X48000Y472000D01*
X49800Y467500D02*X50550D01*
X52350Y468250D02*X53100Y467500D01*
X52350Y472750D02*Y468250D01*
Y472750D02*X53100Y473500D01*
X54600D01*
X55350Y472750D01*
Y468250D01*
X54600Y467500D02*X55350Y468250D01*
X53100Y467500D02*X54600D01*
X52350Y469000D02*X55350Y472000D01*
X57150Y472750D02*X57900Y473500D01*
X59400D01*
X60150Y472750D01*
X59400Y467500D02*X60150Y468250D01*
X57900Y467500D02*X59400D01*
X57150Y468250D02*X57900Y467500D01*
Y470800D02*X59400D01*
X60150Y472750D02*Y471550D01*
Y470050D02*Y468250D01*
Y470050D02*X59400Y470800D01*
X60150Y471550D02*X59400Y470800D01*
X61950Y468250D02*X62700Y467500D01*
X61950Y472750D02*Y468250D01*
Y472750D02*X62700Y473500D01*
X64200D01*
X64950Y472750D01*
Y468250D01*
X64200Y467500D02*X64950Y468250D01*
X62700Y467500D02*X64200D01*
X61950Y469000D02*X64950Y472000D01*
X108500Y271000D02*Y269400D01*
Y271000D02*X109887Y271800D01*
X108500Y271000D02*X107113Y271800D01*
X108500Y243000D02*Y241400D01*
Y243000D02*X109887Y243800D01*
X108500Y243000D02*X107113Y243800D01*
X103000Y257000D02*Y255400D01*
Y257000D02*X104387Y257800D01*
X103000Y257000D02*X101613Y257800D01*
X103000Y229000D02*Y227400D01*
Y229000D02*X104387Y229800D01*
X103000Y229000D02*X101613Y229800D01*
X491500Y271000D02*Y269400D01*
Y271000D02*X492887Y271800D01*
X491500Y271000D02*X490113Y271800D01*
X491500Y243000D02*Y241400D01*
Y243000D02*X492887Y243800D01*
X491500Y243000D02*X490113Y243800D01*
X497000Y257000D02*Y255400D01*
Y257000D02*X498387Y257800D01*
X497000Y257000D02*X495613Y257800D01*
X497000Y229000D02*Y227400D01*
Y229000D02*X498387Y229800D01*
X497000Y229000D02*X495613Y229800D01*
X460500Y9500D02*Y7900D01*
Y9500D02*X461887Y10300D01*
X460500Y9500D02*X459113Y10300D01*
X466000Y9500D02*Y7900D01*
Y9500D02*X467387Y10300D01*
X466000Y9500D02*X464613Y10300D01*
X45000Y70500D02*Y68900D01*
Y70500D02*X46387Y71300D01*
X45000Y70500D02*X43613Y71300D01*
X45000Y205000D02*Y203400D01*
Y205000D02*X46387Y205800D01*
X45000Y205000D02*X43613Y205800D01*
X108500Y205000D02*Y203400D01*
Y205000D02*X109887Y205800D01*
X108500Y205000D02*X107113Y205800D01*
X85000Y70500D02*Y68900D01*
Y70500D02*X86387Y71300D01*
X85000Y70500D02*X83613Y71300D01*
X85000Y200000D02*Y198400D01*
Y200000D02*X86387Y200800D01*
X85000Y200000D02*X83613Y200800D01*
X103000Y200000D02*Y198400D01*
Y200000D02*X104387Y200800D01*
X103000Y200000D02*X101613Y200800D01*
X125000Y70500D02*Y68900D01*
Y70500D02*X126387Y71300D01*
X125000Y70500D02*X123613Y71300D01*
X165000Y70500D02*Y68900D01*
Y70500D02*X166387Y71300D01*
X165000Y70500D02*X163613Y71300D01*
X205000Y70500D02*Y68900D01*
Y70500D02*X206387Y71300D01*
X205000Y70500D02*X203613Y71300D01*
X245000Y70500D02*Y68900D01*
Y70500D02*X246387Y71300D01*
X245000Y70500D02*X243613Y71300D01*
X125000Y120000D02*Y118400D01*
Y120000D02*X126387Y120800D01*
X125000Y120000D02*X123613Y120800D01*
X358500Y120000D02*Y118400D01*
Y120000D02*X359887Y120800D01*
X358500Y120000D02*X357113Y120800D01*
X165000Y125000D02*Y123400D01*
Y125000D02*X166387Y125800D01*
X165000Y125000D02*X163613Y125800D01*
X353000Y125000D02*Y123400D01*
Y125000D02*X354387Y125800D01*
X353000Y125000D02*X351613Y125800D01*
X205000Y205000D02*Y203400D01*
Y205000D02*X206387Y205800D01*
X205000Y205000D02*X203613Y205800D01*
X245000Y200000D02*Y198400D01*
Y200000D02*X246387Y200800D01*
X245000Y200000D02*X243613Y200800D01*
X445500Y246500D02*Y244900D01*
Y246500D02*X446887Y247300D01*
X445500Y246500D02*X444113Y247300D01*
X450000Y246500D02*Y244900D01*
Y246500D02*X451387Y247300D01*
X450000Y246500D02*X448613Y247300D01*
X454500Y246500D02*Y244900D01*
Y246500D02*X455887Y247300D01*
X454500Y246500D02*X453113Y247300D01*
X255000Y110000D02*Y108400D01*
Y110000D02*X256387Y110800D01*
X255000Y110000D02*X253613Y110800D01*
X255000Y105500D02*Y103900D01*
Y105500D02*X256387Y106300D01*
X255000Y105500D02*X253613Y106300D01*
X462500Y205000D02*Y203400D01*
Y205000D02*X463887Y205800D01*
X462500Y205000D02*X461113Y205800D01*
X462500Y200000D02*Y198400D01*
Y200000D02*X463887Y200800D01*
X462500Y200000D02*X461113Y200800D01*
X358500Y54500D02*Y52900D01*
Y54500D02*X359887Y55300D01*
X358500Y54500D02*X357113Y55300D01*
X358500Y26500D02*Y24900D01*
Y26500D02*X359887Y27300D01*
X358500Y26500D02*X357113Y27300D01*
X353000Y40500D02*Y38900D01*
Y40500D02*X354387Y41300D01*
X353000Y40500D02*X351613Y41300D01*
X353000Y12500D02*Y10900D01*
Y12500D02*X354387Y13300D01*
X353000Y12500D02*X351613Y13300D01*
X15000Y486250D02*Y484650D01*
Y486250D02*X16387Y487050D01*
X15000Y486250D02*X13613Y487050D01*
X135000Y488500D02*X136500Y485500D01*
X138000Y488500D01*
X136500Y485500D02*Y482500D01*
X139800Y485800D02*X142050D01*
X139800Y482500D02*X142800D01*
X139800Y488500D02*Y482500D01*
Y488500D02*X142800D01*
X147600D02*X148350Y487750D01*
X145350Y488500D02*X147600D01*
X144600Y487750D02*X145350Y488500D01*
X144600Y487750D02*Y486250D01*
X145350Y485500D01*
X147600D01*
X148350Y484750D01*
Y483250D01*
X147600Y482500D02*X148350Y483250D01*
X145350Y482500D02*X147600D01*
X144600Y483250D02*X145350Y482500D01*
X98000Y487750D02*X98750Y488500D01*
X100250D01*
X101000Y487750D01*
X100250Y482500D02*X101000Y483250D01*
X98750Y482500D02*X100250D01*
X98000Y483250D02*X98750Y482500D01*
Y485800D02*X100250D01*
X101000Y487750D02*Y486550D01*
Y485050D02*Y483250D01*
Y485050D02*X100250Y485800D01*
X101000Y486550D02*X100250Y485800D01*
X103550Y482500D02*X106550Y488500D01*
X102800D02*X106550D01*
X45000Y483250D02*X45750Y482500D01*
X45000Y487750D02*Y483250D01*
Y487750D02*X45750Y488500D01*
X47250D01*
X48000Y487750D01*
Y483250D01*
X47250Y482500D02*X48000Y483250D01*
X45750Y482500D02*X47250D01*
X45000Y484000D02*X48000Y487000D01*
X49800Y482500D02*X50550D01*
X52350Y483250D02*X53100Y482500D01*
X52350Y487750D02*Y483250D01*
Y487750D02*X53100Y488500D01*
X54600D01*
X55350Y487750D01*
Y483250D01*
X54600Y482500D02*X55350Y483250D01*
X53100Y482500D02*X54600D01*
X52350Y484000D02*X55350Y487000D01*
X57150Y487750D02*X57900Y488500D01*
X60150D01*
X60900Y487750D01*
Y486250D01*
X57150Y482500D02*X60900Y486250D01*
X57150Y482500D02*X60900D01*
X62700Y483250D02*X63450Y482500D01*
X62700Y487750D02*Y483250D01*
Y487750D02*X63450Y488500D01*
X64950D01*
X65700Y487750D01*
Y483250D01*
X64950Y482500D02*X65700Y483250D01*
X63450Y482500D02*X64950D01*
X62700Y484000D02*X65700Y487000D01*
X3000Y503500D02*X3750Y502750D01*
X750Y503500D02*X3000D01*
X0Y502750D02*X750Y503500D01*
X0Y502750D02*Y501250D01*
X750Y500500D01*
X3000D01*
X3750Y499750D01*
Y498250D01*
X3000Y497500D02*X3750Y498250D01*
X750Y497500D02*X3000D01*
X0Y498250D02*X750Y497500D01*
X5550Y500500D02*Y498250D01*
X6300Y497500D01*
X8550Y500500D02*Y496000D01*
X7800Y495250D02*X8550Y496000D01*
X6300Y495250D02*X7800D01*
X5550Y496000D02*X6300Y495250D01*
Y497500D02*X7800D01*
X8550Y498250D01*
X11100Y499750D02*Y497500D01*
Y499750D02*X11850Y500500D01*
X12600D01*
X13350Y499750D01*
Y497500D01*
Y499750D02*X14100Y500500D01*
X14850D01*
X15600Y499750D01*
Y497500D01*
X10350Y500500D02*X11100Y499750D01*
X17400Y503500D02*Y497500D01*
Y498250D02*X18150Y497500D01*
X19650D01*
X20400Y498250D01*
Y499750D02*Y498250D01*
X19650Y500500D02*X20400Y499750D01*
X18150Y500500D02*X19650D01*
X17400Y499750D02*X18150Y500500D01*
X22200Y499750D02*Y498250D01*
Y499750D02*X22950Y500500D01*
X24450D01*
X25200Y499750D01*
Y498250D01*
X24450Y497500D02*X25200Y498250D01*
X22950Y497500D02*X24450D01*
X22200Y498250D02*X22950Y497500D01*
X27000Y503500D02*Y498250D01*
X27750Y497500D01*
X0Y494250D02*X29250D01*
X41750Y503500D02*Y497500D01*
X43700Y503500D02*X44750Y502450D01*
Y498550D01*
X43700Y497500D02*X44750Y498550D01*
X41000Y497500D02*X43700D01*
X41000Y503500D02*X43700D01*
G54D83*X46550Y502000D02*Y501850D01*
G54D82*Y499750D02*Y497500D01*
X50300Y500500D02*X51050Y499750D01*
X48800Y500500D02*X50300D01*
X48050Y499750D02*X48800Y500500D01*
X48050Y499750D02*Y498250D01*
X48800Y497500D01*
X51050Y500500D02*Y498250D01*
X51800Y497500D01*
X48800D02*X50300D01*
X51050Y498250D01*
X54350Y499750D02*Y497500D01*
Y499750D02*X55100Y500500D01*
X55850D01*
X56600Y499750D01*
Y497500D01*
Y499750D02*X57350Y500500D01*
X58100D01*
X58850Y499750D01*
Y497500D01*
X53600Y500500D02*X54350Y499750D01*
X60650Y497500D02*X61400D01*
X65900Y498250D02*X66650Y497500D01*
X65900Y502750D02*X66650Y503500D01*
X65900Y502750D02*Y498250D01*
X68450Y503500D02*X69950D01*
X69200D02*Y497500D01*
X68450D02*X69950D01*
X72500Y499750D02*Y497500D01*
Y499750D02*X73250Y500500D01*
X74000D01*
X74750Y499750D01*
Y497500D01*
X71750Y500500D02*X72500Y499750D01*
X77300Y500500D02*X79550D01*
X76550Y499750D02*X77300Y500500D01*
X76550Y499750D02*Y498250D01*
X77300Y497500D01*
X79550D01*
X81350Y503500D02*Y497500D01*
Y499750D02*X82100Y500500D01*
X83600D01*
X84350Y499750D01*
Y497500D01*
X86150Y503500D02*X86900Y502750D01*
Y498250D01*
X86150Y497500D02*X86900Y498250D01*
X41000Y494250D02*X88700D01*
X96050Y497500D02*X98000D01*
X95000Y498550D02*X96050Y497500D01*
X95000Y502450D02*Y498550D01*
Y502450D02*X96050Y503500D01*
X98000D01*
X99800Y499750D02*Y498250D01*
Y499750D02*X100550Y500500D01*
X102050D01*
X102800Y499750D01*
Y498250D01*
X102050Y497500D02*X102800Y498250D01*
X100550Y497500D02*X102050D01*
X99800Y498250D02*X100550Y497500D01*
X104600Y500500D02*Y498250D01*
X105350Y497500D01*
X106850D01*
X107600Y498250D01*
Y500500D02*Y498250D01*
X110150Y499750D02*Y497500D01*
Y499750D02*X110900Y500500D01*
X111650D01*
X112400Y499750D01*
Y497500D01*
X109400Y500500D02*X110150Y499750D01*
X114950Y503500D02*Y498250D01*
X115700Y497500D01*
X114200Y501250D02*X115700D01*
X95000Y494250D02*X117200D01*
X130750Y503500D02*Y497500D01*
X130000Y503500D02*X133000D01*
X133750Y502750D01*
Y501250D01*
X133000Y500500D02*X133750Y501250D01*
X130750Y500500D02*X133000D01*
X135550Y503500D02*Y498250D01*
X136300Y497500D01*
X140050Y500500D02*X140800Y499750D01*
X138550Y500500D02*X140050D01*
X137800Y499750D02*X138550Y500500D01*
X137800Y499750D02*Y498250D01*
X138550Y497500D01*
X140800Y500500D02*Y498250D01*
X141550Y497500D01*
X138550D02*X140050D01*
X140800Y498250D01*
X144100Y503500D02*Y498250D01*
X144850Y497500D01*
X143350Y501250D02*X144850D01*
X147100Y497500D02*X149350D01*
X146350Y498250D02*X147100Y497500D01*
X146350Y499750D02*Y498250D01*
Y499750D02*X147100Y500500D01*
X148600D01*
X149350Y499750D01*
X146350Y499000D02*X149350D01*
Y499750D02*Y499000D01*
X154150Y503500D02*Y497500D01*
X153400D02*X154150Y498250D01*
X151900Y497500D02*X153400D01*
X151150Y498250D02*X151900Y497500D01*
X151150Y499750D02*Y498250D01*
Y499750D02*X151900Y500500D01*
X153400D01*
X154150Y499750D01*
X157450Y500500D02*Y499750D01*
Y498250D02*Y497500D01*
X155950Y502750D02*Y502000D01*
Y502750D02*X156700Y503500D01*
X158200D01*
X158950Y502750D01*
Y502000D01*
X157450Y500500D02*X158950Y502000D01*
X130000Y494250D02*X160750D01*
X0Y518500D02*X3000D01*
X1500D02*Y512500D01*
X4800Y518500D02*Y512500D01*
Y514750D02*X5550Y515500D01*
X7050D01*
X7800Y514750D01*
Y512500D01*
X10350D02*X12600D01*
X9600Y513250D02*X10350Y512500D01*
X9600Y514750D02*Y513250D01*
Y514750D02*X10350Y515500D01*
X11850D01*
X12600Y514750D01*
X9600Y514000D02*X12600D01*
Y514750D02*Y514000D01*
X15150Y514750D02*Y512500D01*
Y514750D02*X15900Y515500D01*
X17400D01*
X14400D02*X15150Y514750D01*
X19950Y512500D02*X22200D01*
X19200Y513250D02*X19950Y512500D01*
X19200Y514750D02*Y513250D01*
Y514750D02*X19950Y515500D01*
X21450D01*
X22200Y514750D01*
X19200Y514000D02*X22200D01*
Y514750D02*Y514000D01*
X28950Y515500D02*X29700Y514750D01*
X27450Y515500D02*X28950D01*
X26700Y514750D02*X27450Y515500D01*
X26700Y514750D02*Y513250D01*
X27450Y512500D01*
X29700Y515500D02*Y513250D01*
X30450Y512500D01*
X27450D02*X28950D01*
X29700Y513250D01*
X33000Y514750D02*Y512500D01*
Y514750D02*X33750Y515500D01*
X35250D01*
X32250D02*X33000Y514750D01*
X37800Y512500D02*X40050D01*
X37050Y513250D02*X37800Y512500D01*
X37050Y514750D02*Y513250D01*
Y514750D02*X37800Y515500D01*
X39300D01*
X40050Y514750D01*
X37050Y514000D02*X40050D01*
Y514750D02*Y514000D01*
X46800Y518500D02*X47550Y517750D01*
X45300Y518500D02*X46800D01*
X44550Y517750D02*X45300Y518500D01*
X44550Y517750D02*Y513250D01*
X45300Y512500D01*
X46800Y515800D02*X47550Y515050D01*
X44550Y515800D02*X46800D01*
X45300Y512500D02*X46800D01*
X47550Y513250D01*
Y515050D02*Y513250D01*
X55050Y518500D02*Y512500D01*
X54300D02*X55050Y513250D01*
X52800Y512500D02*X54300D01*
X52050Y513250D02*X52800Y512500D01*
X52050Y514750D02*Y513250D01*
Y514750D02*X52800Y515500D01*
X54300D01*
X55050Y514750D01*
G54D83*X56850Y517000D02*Y516850D01*
G54D82*Y514750D02*Y512500D01*
X59100Y517750D02*Y512500D01*
Y517750D02*X59850Y518500D01*
X60600D01*
X58350Y515500D02*X59850D01*
X62850Y517750D02*Y512500D01*
Y517750D02*X63600Y518500D01*
X64350D01*
X62100Y515500D02*X63600D01*
X66600Y512500D02*X68850D01*
X65850Y513250D02*X66600Y512500D01*
X65850Y514750D02*Y513250D01*
Y514750D02*X66600Y515500D01*
X68100D01*
X68850Y514750D01*
X65850Y514000D02*X68850D01*
Y514750D02*Y514000D01*
X71400Y514750D02*Y512500D01*
Y514750D02*X72150Y515500D01*
X73650D01*
X70650D02*X71400Y514750D01*
X76200Y512500D02*X78450D01*
X75450Y513250D02*X76200Y512500D01*
X75450Y514750D02*Y513250D01*
Y514750D02*X76200Y515500D01*
X77700D01*
X78450Y514750D01*
X75450Y514000D02*X78450D01*
Y514750D02*Y514000D01*
X81000Y514750D02*Y512500D01*
Y514750D02*X81750Y515500D01*
X82500D01*
X83250Y514750D01*
Y512500D01*
X80250Y515500D02*X81000Y514750D01*
X85800Y518500D02*Y513250D01*
X86550Y512500D01*
X85050Y516250D02*X86550D01*
X93750Y518500D02*Y512500D01*
X93000D02*X93750Y513250D01*
X91500Y512500D02*X93000D01*
X90750Y513250D02*X91500Y512500D01*
X90750Y514750D02*Y513250D01*
Y514750D02*X91500Y515500D01*
X93000D01*
X93750Y514750D01*
X96300D02*Y512500D01*
Y514750D02*X97050Y515500D01*
X98550D01*
X95550D02*X96300Y514750D01*
G54D83*X100350Y517000D02*Y516850D01*
G54D82*Y514750D02*Y512500D01*
X101850Y518500D02*Y513250D01*
X102600Y512500D01*
X104100Y518500D02*Y513250D01*
X104850Y512500D01*
X109800D02*X112050D01*
X112800Y513250D01*
X112050Y514000D02*X112800Y513250D01*
X109800Y514000D02*X112050D01*
X109050Y514750D02*X109800Y514000D01*
X109050Y514750D02*X109800Y515500D01*
X112050D01*
X112800Y514750D01*
X109050Y513250D02*X109800Y512500D01*
G54D83*X114600Y517000D02*Y516850D01*
G54D82*Y514750D02*Y512500D01*
X116100Y515500D02*X119100D01*
X116100Y512500D02*X119100Y515500D01*
X116100Y512500D02*X119100D01*
X121650D02*X123900D01*
X120900Y513250D02*X121650Y512500D01*
X120900Y514750D02*Y513250D01*
Y514750D02*X121650Y515500D01*
X123150D01*
X123900Y514750D01*
X120900Y514000D02*X123900D01*
Y514750D02*Y514000D01*
X126450Y512500D02*X128700D01*
X129450Y513250D01*
X128700Y514000D02*X129450Y513250D01*
X126450Y514000D02*X128700D01*
X125700Y514750D02*X126450Y514000D01*
X125700Y514750D02*X126450Y515500D01*
X128700D01*
X129450Y514750D01*
X125700Y513250D02*X126450Y512500D01*
X133950Y515500D02*Y513250D01*
X134700Y512500D01*
X136200D01*
X136950Y513250D01*
Y515500D02*Y513250D01*
X139500Y512500D02*X141750D01*
X142500Y513250D01*
X141750Y514000D02*X142500Y513250D01*
X139500Y514000D02*X141750D01*
X138750Y514750D02*X139500Y514000D01*
X138750Y514750D02*X139500Y515500D01*
X141750D01*
X142500Y514750D01*
X138750Y513250D02*X139500Y512500D01*
X145050D02*X147300D01*
X144300Y513250D02*X145050Y512500D01*
X144300Y514750D02*Y513250D01*
Y514750D02*X145050Y515500D01*
X146550D01*
X147300Y514750D01*
X144300Y514000D02*X147300D01*
Y514750D02*Y514000D01*
X152100Y518500D02*Y512500D01*
X151350D02*X152100Y513250D01*
X149850Y512500D02*X151350D01*
X149100Y513250D02*X149850Y512500D01*
X149100Y514750D02*Y513250D01*
Y514750D02*X149850Y515500D01*
X151350D01*
X152100Y514750D01*
G54D83*X156600Y517000D02*Y516850D01*
G54D82*Y514750D02*Y512500D01*
X158850Y514750D02*Y512500D01*
Y514750D02*X159600Y515500D01*
X160350D01*
X161100Y514750D01*
Y512500D01*
X158100Y515500D02*X158850Y514750D01*
X166350Y518500D02*Y513250D01*
X167100Y512500D01*
X165600Y516250D02*X167100D01*
X168600Y518500D02*Y512500D01*
Y514750D02*X169350Y515500D01*
X170850D01*
X171600Y514750D01*
Y512500D01*
G54D83*X173400Y517000D02*Y516850D01*
G54D82*Y514750D02*Y512500D01*
X175650D02*X177900D01*
X178650Y513250D01*
X177900Y514000D02*X178650Y513250D01*
X175650Y514000D02*X177900D01*
X174900Y514750D02*X175650Y514000D01*
X174900Y514750D02*X175650Y515500D01*
X177900D01*
X178650Y514750D01*
X174900Y513250D02*X175650Y512500D01*
X183150Y518500D02*Y513250D01*
X183900Y512500D01*
X187650Y515500D02*X188400Y514750D01*
X186150Y515500D02*X187650D01*
X185400Y514750D02*X186150Y515500D01*
X185400Y514750D02*Y513250D01*
X186150Y512500D01*
X188400Y515500D02*Y513250D01*
X189150Y512500D01*
X186150D02*X187650D01*
X188400Y513250D01*
X190950Y515500D02*Y513250D01*
X191700Y512500D01*
X193950Y515500D02*Y511000D01*
X193200Y510250D02*X193950Y511000D01*
X191700Y510250D02*X193200D01*
X190950Y511000D02*X191700Y510250D01*
Y512500D02*X193200D01*
X193950Y513250D01*
X195750Y514750D02*Y513250D01*
Y514750D02*X196500Y515500D01*
X198000D01*
X198750Y514750D01*
Y513250D01*
X198000Y512500D02*X198750Y513250D01*
X196500Y512500D02*X198000D01*
X195750Y513250D02*X196500Y512500D01*
X200550Y515500D02*Y513250D01*
X201300Y512500D01*
X202800D01*
X203550Y513250D01*
Y515500D02*Y513250D01*
X206100Y518500D02*Y513250D01*
X206850Y512500D01*
X205350Y516250D02*X206850D01*
X208350Y511000D02*X209850Y512500D01*
X214350Y517300D02*X215550Y518500D01*
Y512500D01*
X214350D02*X216600D01*
X218400Y517300D02*X219600Y518500D01*
Y512500D01*
X218400D02*X220650D01*
X222450Y517750D02*X223200Y518500D01*
X225450D01*
X226200Y517750D01*
Y516250D01*
X222450Y512500D02*X226200Y516250D01*
X222450Y512500D02*X226200D01*
X230700Y518500D02*Y512500D01*
Y514750D02*X231450Y515500D01*
X232950D01*
X233700Y514750D01*
Y512500D01*
X235500Y514750D02*Y513250D01*
Y514750D02*X236250Y515500D01*
X237750D01*
X238500Y514750D01*
Y513250D01*
X237750Y512500D02*X238500Y513250D01*
X236250Y512500D02*X237750D01*
X235500Y513250D02*X236250Y512500D01*
X240300Y518500D02*Y513250D01*
X241050Y512500D01*
X243300D02*X245550D01*
X242550Y513250D02*X243300Y512500D01*
X242550Y514750D02*Y513250D01*
Y514750D02*X243300Y515500D01*
X244800D01*
X245550Y514750D01*
X242550Y514000D02*X245550D01*
Y514750D02*Y514000D01*
X248100Y512500D02*X250350D01*
X251100Y513250D01*
X250350Y514000D02*X251100Y513250D01*
X248100Y514000D02*X250350D01*
X247350Y514750D02*X248100Y514000D01*
X247350Y514750D02*X248100Y515500D01*
X250350D01*
X251100Y514750D01*
X247350Y513250D02*X248100Y512500D01*
X256350Y518500D02*Y513250D01*
X257100Y512500D01*
X255600Y516250D02*X257100D01*
X258600Y514750D02*Y513250D01*
Y514750D02*X259350Y515500D01*
X260850D01*
X261600Y514750D01*
Y513250D01*
X260850Y512500D02*X261600Y513250D01*
X259350Y512500D02*X260850D01*
X258600Y513250D02*X259350Y512500D01*
X264150Y518500D02*Y513250D01*
X264900Y512500D01*
X263400Y516250D02*X264900D01*
X268650Y515500D02*X269400Y514750D01*
X267150Y515500D02*X268650D01*
X266400Y514750D02*X267150Y515500D01*
X266400Y514750D02*Y513250D01*
X267150Y512500D01*
X269400Y515500D02*Y513250D01*
X270150Y512500D01*
X267150D02*X268650D01*
X269400Y513250D01*
X271950Y518500D02*Y513250D01*
X272700Y512500D01*
G54D84*X0Y400000D02*X600000D01*
Y0D01*
X0D01*
Y400000D01*
G54D82*X213675Y-9500D02*X216675D01*
X217425Y-8750D01*
Y-6950D02*Y-8750D01*
X216675Y-6200D02*X217425Y-6950D01*
X214425Y-6200D02*X216675D01*
X214425Y-3500D02*Y-9500D01*
X213675Y-3500D02*X216675D01*
X217425Y-4250D01*
Y-5450D01*
X216675Y-6200D02*X217425Y-5450D01*
X219225Y-7250D02*Y-8750D01*
Y-7250D02*X219975Y-6500D01*
X221475D01*
X222225Y-7250D01*
Y-8750D01*
X221475Y-9500D02*X222225Y-8750D01*
X219975Y-9500D02*X221475D01*
X219225Y-8750D02*X219975Y-9500D01*
X226275Y-6500D02*X227025Y-7250D01*
X224775Y-6500D02*X226275D01*
X224025Y-7250D02*X224775Y-6500D01*
X224025Y-7250D02*Y-8750D01*
X224775Y-9500D01*
X227025Y-6500D02*Y-8750D01*
X227775Y-9500D01*
X224775D02*X226275D01*
X227025Y-8750D01*
X230325Y-7250D02*Y-9500D01*
Y-7250D02*X231075Y-6500D01*
X232575D01*
X229575D02*X230325Y-7250D01*
X237375Y-3500D02*Y-9500D01*
X236625D02*X237375Y-8750D01*
X235125Y-9500D02*X236625D01*
X234375Y-8750D02*X235125Y-9500D01*
X234375Y-7250D02*Y-8750D01*
Y-7250D02*X235125Y-6500D01*
X236625D01*
X237375Y-7250D01*
X241875D02*Y-8750D01*
Y-7250D02*X242625Y-6500D01*
X244125D01*
X244875Y-7250D01*
Y-8750D01*
X244125Y-9500D02*X244875Y-8750D01*
X242625Y-9500D02*X244125D01*
X241875Y-8750D02*X242625Y-9500D01*
X246675Y-6500D02*Y-8750D01*
X247425Y-9500D01*
X248925D01*
X249675Y-8750D01*
Y-6500D02*Y-8750D01*
X252225Y-3500D02*Y-8750D01*
X252975Y-9500D01*
X251475Y-5750D02*X252975D01*
X254475Y-3500D02*Y-8750D01*
X255225Y-9500D01*
G54D83*X256725Y-5000D02*Y-5150D01*
G54D82*Y-7250D02*Y-9500D01*
X258975Y-7250D02*Y-9500D01*
Y-7250D02*X259725Y-6500D01*
X260475D01*
X261225Y-7250D01*
Y-9500D01*
X258225Y-6500D02*X258975Y-7250D01*
X263775Y-9500D02*X266025D01*
X263025Y-8750D02*X263775Y-9500D01*
X263025Y-7250D02*Y-8750D01*
Y-7250D02*X263775Y-6500D01*
X265275D01*
X266025Y-7250D01*
X263025Y-8000D02*X266025D01*
Y-7250D02*Y-8000D01*
G54D83*X270525Y-5000D02*Y-5150D01*
G54D82*Y-7250D02*Y-9500D01*
X272775D02*X275025D01*
X275775Y-8750D01*
X275025Y-8000D02*X275775Y-8750D01*
X272775Y-8000D02*X275025D01*
X272025Y-7250D02*X272775Y-8000D01*
X272025Y-7250D02*X272775Y-6500D01*
X275025D01*
X275775Y-7250D01*
X272025Y-8750D02*X272775Y-9500D01*
X281025Y-3500D02*Y-8750D01*
X281775Y-9500D01*
X280275Y-5750D02*X281775D01*
X283275Y-3500D02*Y-9500D01*
Y-7250D02*X284025Y-6500D01*
X285525D01*
X286275Y-7250D01*
Y-9500D01*
X288825D02*X291075D01*
X288075Y-8750D02*X288825Y-9500D01*
X288075Y-7250D02*Y-8750D01*
Y-7250D02*X288825Y-6500D01*
X290325D01*
X291075Y-7250D01*
X288075Y-8000D02*X291075D01*
Y-7250D02*Y-8000D01*
X296325Y-6500D02*X298575D01*
X295575Y-7250D02*X296325Y-6500D01*
X295575Y-7250D02*Y-8750D01*
X296325Y-9500D01*
X298575D01*
X301125D02*X303375D01*
X300375Y-8750D02*X301125Y-9500D01*
X300375Y-7250D02*Y-8750D01*
Y-7250D02*X301125Y-6500D01*
X302625D01*
X303375Y-7250D01*
X300375Y-8000D02*X303375D01*
Y-7250D02*Y-8000D01*
X305925Y-7250D02*Y-9500D01*
Y-7250D02*X306675Y-6500D01*
X307425D01*
X308175Y-7250D01*
Y-9500D01*
X305175Y-6500D02*X305925Y-7250D01*
X310725Y-3500D02*Y-8750D01*
X311475Y-9500D01*
X309975Y-5750D02*X311475D01*
X313725Y-9500D02*X315975D01*
X312975Y-8750D02*X313725Y-9500D01*
X312975Y-7250D02*Y-8750D01*
Y-7250D02*X313725Y-6500D01*
X315225D01*
X315975Y-7250D01*
X312975Y-8000D02*X315975D01*
Y-7250D02*Y-8000D01*
X318525Y-7250D02*Y-9500D01*
Y-7250D02*X319275Y-6500D01*
X320775D01*
X317775D02*X318525Y-7250D01*
X322575Y-3500D02*Y-8750D01*
X323325Y-9500D01*
G54D83*X324825Y-5000D02*Y-5150D01*
G54D82*Y-7250D02*Y-9500D01*
X327075Y-7250D02*Y-9500D01*
Y-7250D02*X327825Y-6500D01*
X328575D01*
X329325Y-7250D01*
Y-9500D01*
X326325Y-6500D02*X327075Y-7250D01*
X331875Y-9500D02*X334125D01*
X331125Y-8750D02*X331875Y-9500D01*
X331125Y-7250D02*Y-8750D01*
Y-7250D02*X331875Y-6500D01*
X333375D01*
X334125Y-7250D01*
X331125Y-8000D02*X334125D01*
Y-7250D02*Y-8000D01*
X338625Y-7250D02*Y-8750D01*
Y-7250D02*X339375Y-6500D01*
X340875D01*
X341625Y-7250D01*
Y-8750D01*
X340875Y-9500D02*X341625Y-8750D01*
X339375Y-9500D02*X340875D01*
X338625Y-8750D02*X339375Y-9500D01*
X344175Y-4250D02*Y-9500D01*
Y-4250D02*X344925Y-3500D01*
X345675D01*
X343425Y-6500D02*X344925D01*
X350625Y-3500D02*Y-8750D01*
X351375Y-9500D01*
X349875Y-5750D02*X351375D01*
X352875Y-3500D02*Y-9500D01*
Y-7250D02*X353625Y-6500D01*
X355125D01*
X355875Y-7250D01*
Y-9500D01*
G54D83*X357675Y-5000D02*Y-5150D01*
G54D82*Y-7250D02*Y-9500D01*
X359925D02*X362175D01*
X362925Y-8750D01*
X362175Y-8000D02*X362925Y-8750D01*
X359925Y-8000D02*X362175D01*
X359175Y-7250D02*X359925Y-8000D01*
X359175Y-7250D02*X359925Y-6500D01*
X362175D01*
X362925Y-7250D01*
X359175Y-8750D02*X359925Y-9500D01*
X368175Y-7250D02*Y-11750D01*
X367425Y-6500D02*X368175Y-7250D01*
X368925Y-6500D01*
X370425D01*
X371175Y-7250D01*
Y-8750D01*
X370425Y-9500D02*X371175Y-8750D01*
X368925Y-9500D02*X370425D01*
X368175Y-8750D02*X368925Y-9500D01*
X375225Y-6500D02*X375975Y-7250D01*
X373725Y-6500D02*X375225D01*
X372975Y-7250D02*X373725Y-6500D01*
X372975Y-7250D02*Y-8750D01*
X373725Y-9500D01*
X375975Y-6500D02*Y-8750D01*
X376725Y-9500D01*
X373725D02*X375225D01*
X375975Y-8750D01*
X379275Y-3500D02*Y-8750D01*
X380025Y-9500D01*
X378525Y-5750D02*X380025D01*
X381525Y-3500D02*Y-9500D01*
Y-7250D02*X382275Y-6500D01*
X383775D01*
X384525Y-7250D01*
Y-9500D01*
X200750Y428500D02*Y422500D01*
X202700Y428500D02*X203750Y427450D01*
Y423550D01*
X202700Y422500D02*X203750Y423550D01*
X200000Y422500D02*X202700D01*
X200000Y428500D02*X202700D01*
X207800Y425500D02*X208550Y424750D01*
X206300Y425500D02*X207800D01*
X205550Y424750D02*X206300Y425500D01*
X205550Y424750D02*Y423250D01*
X206300Y422500D01*
X208550Y425500D02*Y423250D01*
X209300Y422500D01*
X206300D02*X207800D01*
X208550Y423250D01*
X211850Y428500D02*Y423250D01*
X212600Y422500D01*
X211100Y426250D02*X212600D01*
X214850Y422500D02*X217100D01*
X214100Y423250D02*X214850Y422500D01*
X214100Y424750D02*Y423250D01*
Y424750D02*X214850Y425500D01*
X216350D01*
X217100Y424750D01*
X214100Y424000D02*X217100D01*
Y424750D02*Y424000D01*
X218900Y426250D02*X219650D01*
X218900Y424750D02*X219650D01*
X224150Y428500D02*Y425500D01*
X224900Y422500D01*
X226400Y425500D01*
X227900Y422500D01*
X228650Y425500D01*
Y428500D02*Y425500D01*
X231200Y422500D02*X233450D01*
X230450Y423250D02*X231200Y422500D01*
X230450Y424750D02*Y423250D01*
Y424750D02*X231200Y425500D01*
X232700D01*
X233450Y424750D01*
X230450Y424000D02*X233450D01*
Y424750D02*Y424000D01*
X238250Y428500D02*Y422500D01*
X237500D02*X238250Y423250D01*
X236000Y422500D02*X237500D01*
X235250Y423250D02*X236000Y422500D01*
X235250Y424750D02*Y423250D01*
Y424750D02*X236000Y425500D01*
X237500D01*
X238250Y424750D01*
X242750Y427750D02*X243500Y428500D01*
X245750D01*
X246500Y427750D01*
Y426250D01*
X242750Y422500D02*X246500Y426250D01*
X242750Y422500D02*X246500D01*
X249050D02*X251300Y425500D01*
Y427750D02*Y425500D01*
X250550Y428500D02*X251300Y427750D01*
X249050Y428500D02*X250550D01*
X248300Y427750D02*X249050Y428500D01*
X248300Y427750D02*Y426250D01*
X249050Y425500D01*
X251300D01*
X255800Y427000D02*Y422500D01*
Y427000D02*X256850Y428500D01*
X258500D01*
X259550Y427000D01*
Y422500D01*
X255800Y425500D02*X259550D01*
X262100Y424750D02*Y420250D01*
X261350Y425500D02*X262100Y424750D01*
X262850Y425500D01*
X264350D01*
X265100Y424750D01*
Y423250D01*
X264350Y422500D02*X265100Y423250D01*
X262850Y422500D02*X264350D01*
X262100Y423250D02*X262850Y422500D01*
X267650Y424750D02*Y422500D01*
Y424750D02*X268400Y425500D01*
X269900D01*
X266900D02*X267650Y424750D01*
X274400Y427750D02*X275150Y428500D01*
X277400D01*
X278150Y427750D01*
Y426250D01*
X274400Y422500D02*X278150Y426250D01*
X274400Y422500D02*X278150D01*
X279950Y423250D02*X280700Y422500D01*
X279950Y427750D02*Y423250D01*
Y427750D02*X280700Y428500D01*
X282200D01*
X282950Y427750D01*
Y423250D01*
X282200Y422500D02*X282950Y423250D01*
X280700Y422500D02*X282200D01*
X279950Y424000D02*X282950Y427000D01*
X284750Y427750D02*X285500Y428500D01*
X287750D01*
X288500Y427750D01*
Y426250D01*
X284750Y422500D02*X288500Y426250D01*
X284750Y422500D02*X288500D01*
X290300Y423250D02*X291050Y422500D01*
X290300Y427750D02*Y423250D01*
Y427750D02*X291050Y428500D01*
X292550D01*
X293300Y427750D01*
Y423250D01*
X292550Y422500D02*X293300Y423250D01*
X291050Y422500D02*X292550D01*
X290300Y424000D02*X293300Y427000D01*
X297800Y427300D02*X299000Y428500D01*
Y422500D01*
X297800D02*X300050D01*
X301850Y427750D02*X302600Y428500D01*
X304850D01*
X305600Y427750D01*
Y426250D01*
X301850Y422500D02*X305600Y426250D01*
X301850Y422500D02*X305600D01*
X307400Y426250D02*X308150D01*
X307400Y424750D02*X308150D01*
X309950Y427750D02*X310700Y428500D01*
X312200D01*
X312950Y427750D01*
X312200Y422500D02*X312950Y423250D01*
X310700Y422500D02*X312200D01*
X309950Y423250D02*X310700Y422500D01*
Y425800D02*X312200D01*
X312950Y427750D02*Y426550D01*
Y425050D02*Y423250D01*
Y425050D02*X312200Y425800D01*
X312950Y426550D02*X312200Y425800D01*
X314750Y427300D02*X315950Y428500D01*
Y422500D01*
X314750D02*X317000D01*
X318800Y426250D02*X319550D01*
X318800Y424750D02*X319550D01*
X321350Y428500D02*X324350D01*
X321350D02*Y425500D01*
X322100Y426250D01*
X323600D01*
X324350Y425500D01*
Y423250D01*
X323600Y422500D02*X324350Y423250D01*
X322100Y422500D02*X323600D01*
X321350Y423250D02*X322100Y422500D01*
X326150Y427300D02*X327350Y428500D01*
Y422500D01*
X326150D02*X328400D01*
X332900Y427000D02*Y422500D01*
Y427000D02*X333950Y428500D01*
X335600D01*
X336650Y427000D01*
Y422500D01*
X332900Y425500D02*X336650D01*
X338450Y428500D02*Y422500D01*
Y428500D02*X340700Y425500D01*
X342950Y428500D01*
Y422500D01*
X350450Y428500D02*X351200Y427750D01*
X348200Y428500D02*X350450D01*
X347450Y427750D02*X348200Y428500D01*
X347450Y427750D02*Y423250D01*
X348200Y422500D01*
X350450D01*
X351200Y423250D01*
Y424750D02*Y423250D01*
X350450Y425500D02*X351200Y424750D01*
X348950Y425500D02*X350450D01*
X353000Y428500D02*Y422500D01*
Y428500D02*X355250Y425500D01*
X357500Y428500D01*
Y422500D01*
X359300Y428500D02*X362300D01*
X360800D02*Y422500D01*
X366800Y428500D02*Y423250D01*
X367550Y422500D01*
X369050D01*
X369800Y423250D01*
Y428500D02*Y423250D01*
X371600Y428500D02*X374600D01*
X373100D02*Y422500D01*
X377450D02*X379400D01*
X376400Y423550D02*X377450Y422500D01*
X376400Y427450D02*Y423550D01*
Y427450D02*X377450Y428500D01*
X379400D01*
X200000Y442000D02*Y437500D01*
Y442000D02*X201050Y443500D01*
X202700D01*
X203750Y442000D01*
Y437500D01*
X200000Y440500D02*X203750D01*
X205550D02*Y438250D01*
X206300Y437500D01*
X207800D01*
X208550Y438250D01*
Y440500D02*Y438250D01*
X211100Y443500D02*Y438250D01*
X211850Y437500D01*
X210350Y441250D02*X211850D01*
X213350Y443500D02*Y437500D01*
Y439750D02*X214100Y440500D01*
X215600D01*
X216350Y439750D01*
Y437500D01*
X218150Y439750D02*Y438250D01*
Y439750D02*X218900Y440500D01*
X220400D01*
X221150Y439750D01*
Y438250D01*
X220400Y437500D02*X221150Y438250D01*
X218900Y437500D02*X220400D01*
X218150Y438250D02*X218900Y437500D01*
X223700Y439750D02*Y437500D01*
Y439750D02*X224450Y440500D01*
X225950D01*
X222950D02*X223700Y439750D01*
X227750Y441250D02*X228500D01*
X227750Y439750D02*X228500D01*
X233000Y443500D02*Y437500D01*
Y443500D02*X235250Y440500D01*
X237500Y443500D01*
Y437500D01*
G54D83*X239300Y442000D02*Y441850D01*
G54D82*Y439750D02*Y437500D01*
X241550Y440500D02*X243800D01*
X240800Y439750D02*X241550Y440500D01*
X240800Y439750D02*Y438250D01*
X241550Y437500D01*
X243800D01*
X245600Y443500D02*Y437500D01*
Y439750D02*X246350Y440500D01*
X247850D01*
X248600Y439750D01*
Y437500D01*
X252650Y440500D02*X253400Y439750D01*
X251150Y440500D02*X252650D01*
X250400Y439750D02*X251150Y440500D01*
X250400Y439750D02*Y438250D01*
X251150Y437500D01*
X253400Y440500D02*Y438250D01*
X254150Y437500D01*
X251150D02*X252650D01*
X253400Y438250D01*
X256700Y437500D02*X258950D01*
X255950Y438250D02*X256700Y437500D01*
X255950Y439750D02*Y438250D01*
Y439750D02*X256700Y440500D01*
X258200D01*
X258950Y439750D01*
X255950Y439000D02*X258950D01*
Y439750D02*Y439000D01*
X260750Y443500D02*Y438250D01*
X261500Y437500D01*
X266450Y443500D02*Y437500D01*
X265700Y443500D02*X268700D01*
X269450Y442750D01*
Y441250D01*
X268700Y440500D02*X269450Y441250D01*
X266450Y440500D02*X268700D01*
X272000Y437500D02*X274250D01*
X271250Y438250D02*X272000Y437500D01*
X271250Y439750D02*Y438250D01*
Y439750D02*X272000Y440500D01*
X273500D01*
X274250Y439750D01*
X271250Y439000D02*X274250D01*
Y439750D02*Y439000D01*
X276800Y443500D02*Y438250D01*
X277550Y437500D01*
X276050Y441250D02*X277550D01*
X279800Y437500D02*X282050D01*
X279050Y438250D02*X279800Y437500D01*
X279050Y439750D02*Y438250D01*
Y439750D02*X279800Y440500D01*
X281300D01*
X282050Y439750D01*
X279050Y439000D02*X282050D01*
Y439750D02*Y439000D01*
X284600Y439750D02*Y437500D01*
Y439750D02*X285350Y440500D01*
X286850D01*
X283850D02*X284600Y439750D01*
X289400Y437500D02*X291650D01*
X292400Y438250D01*
X291650Y439000D02*X292400Y438250D01*
X289400Y439000D02*X291650D01*
X288650Y439750D02*X289400Y439000D01*
X288650Y439750D02*X289400Y440500D01*
X291650D01*
X292400Y439750D01*
X288650Y438250D02*X289400Y437500D01*
X294950D02*X297200D01*
X294200Y438250D02*X294950Y437500D01*
X294200Y439750D02*Y438250D01*
Y439750D02*X294950Y440500D01*
X296450D01*
X297200Y439750D01*
X294200Y439000D02*X297200D01*
Y439750D02*Y439000D01*
X299750Y439750D02*Y437500D01*
Y439750D02*X300500Y440500D01*
X301250D01*
X302000Y439750D01*
Y437500D01*
X299000Y440500D02*X299750Y439750D01*
X200000Y458500D02*X203000D01*
X201500D02*Y452500D01*
G54D83*X204800Y457000D02*Y456850D01*
G54D82*Y454750D02*Y452500D01*
X207050Y458500D02*Y453250D01*
X207800Y452500D01*
X206300Y456250D02*X207800D01*
X209300Y458500D02*Y453250D01*
X210050Y452500D01*
X212300D02*X214550D01*
X211550Y453250D02*X212300Y452500D01*
X211550Y454750D02*Y453250D01*
Y454750D02*X212300Y455500D01*
X213800D01*
X214550Y454750D01*
X211550Y454000D02*X214550D01*
Y454750D02*Y454000D01*
X216350Y456250D02*X217100D01*
X216350Y454750D02*X217100D01*
X221600Y453250D02*X222350Y452500D01*
X221600Y457750D02*X222350Y458500D01*
X221600Y457750D02*Y453250D01*
X224150Y455500D02*Y453250D01*
X224900Y452500D01*
X226400D01*
X227150Y453250D01*
Y455500D02*Y453250D01*
X229700Y454750D02*Y452500D01*
Y454750D02*X230450Y455500D01*
X231200D01*
X231950Y454750D01*
Y452500D01*
X228950Y455500D02*X229700Y454750D01*
X233750Y458500D02*Y452500D01*
Y454750D02*X236000Y452500D01*
X233750Y454750D02*X235250Y456250D01*
X238550Y454750D02*Y452500D01*
Y454750D02*X239300Y455500D01*
X240050D01*
X240800Y454750D01*
Y452500D01*
X237800Y455500D02*X238550Y454750D01*
X242600D02*Y453250D01*
Y454750D02*X243350Y455500D01*
X244850D01*
X245600Y454750D01*
Y453250D01*
X244850Y452500D02*X245600Y453250D01*
X243350Y452500D02*X244850D01*
X242600Y453250D02*X243350Y452500D01*
X247400Y455500D02*Y453250D01*
X248150Y452500D01*
X248900D01*
X249650Y453250D01*
Y455500D02*Y453250D01*
X250400Y452500D01*
X251150D01*
X251900Y453250D01*
Y455500D02*Y453250D01*
X254450Y454750D02*Y452500D01*
Y454750D02*X255200Y455500D01*
X255950D01*
X256700Y454750D01*
Y452500D01*
X253700Y455500D02*X254450Y454750D01*
X258500Y458500D02*X259250Y457750D01*
Y453250D01*
X258500Y452500D02*X259250Y453250D01*
X263750Y455500D02*X266750D01*
X271250Y458500D02*Y452500D01*
Y458500D02*X274250D01*
X271250Y455800D02*X273500D01*
X278300Y455500D02*X279050Y454750D01*
X276800Y455500D02*X278300D01*
X276050Y454750D02*X276800Y455500D01*
X276050Y454750D02*Y453250D01*
X276800Y452500D01*
X279050Y455500D02*Y453250D01*
X279800Y452500D01*
X276800D02*X278300D01*
X279050Y453250D01*
X281600Y458500D02*Y452500D01*
Y453250D02*X282350Y452500D01*
X283850D01*
X284600Y453250D01*
Y454750D02*Y453250D01*
X283850Y455500D02*X284600Y454750D01*
X282350Y455500D02*X283850D01*
X281600Y454750D02*X282350Y455500D01*
X287150Y454750D02*Y452500D01*
Y454750D02*X287900Y455500D01*
X289400D01*
X286400D02*X287150Y454750D01*
G54D83*X291200Y457000D02*Y456850D01*
G54D82*Y454750D02*Y452500D01*
X293450Y455500D02*X295700D01*
X292700Y454750D02*X293450Y455500D01*
X292700Y454750D02*Y453250D01*
X293450Y452500D01*
X295700D01*
X299750Y455500D02*X300500Y454750D01*
X298250Y455500D02*X299750D01*
X297500Y454750D02*X298250Y455500D01*
X297500Y454750D02*Y453250D01*
X298250Y452500D01*
X300500Y455500D02*Y453250D01*
X301250Y452500D01*
X298250D02*X299750D01*
X300500Y453250D01*
X303800Y458500D02*Y453250D01*
X304550Y452500D01*
X303050Y456250D02*X304550D01*
G54D83*X306050Y457000D02*Y456850D01*
G54D82*Y454750D02*Y452500D01*
X307550Y454750D02*Y453250D01*
Y454750D02*X308300Y455500D01*
X309800D01*
X310550Y454750D01*
Y453250D01*
X309800Y452500D02*X310550Y453250D01*
X308300Y452500D02*X309800D01*
X307550Y453250D02*X308300Y452500D01*
X313100Y454750D02*Y452500D01*
Y454750D02*X313850Y455500D01*
X314600D01*
X315350Y454750D01*
Y452500D01*
X312350Y455500D02*X313100Y454750D01*
X320600Y458500D02*Y452500D01*
X322550Y458500D02*X323600Y457450D01*
Y453550D01*
X322550Y452500D02*X323600Y453550D01*
X319850Y452500D02*X322550D01*
X319850Y458500D02*X322550D01*
X326150Y454750D02*Y452500D01*
Y454750D02*X326900Y455500D01*
X328400D01*
X325400D02*X326150Y454750D01*
X332450Y455500D02*X333200Y454750D01*
X330950Y455500D02*X332450D01*
X330200Y454750D02*X330950Y455500D01*
X330200Y454750D02*Y453250D01*
X330950Y452500D01*
X333200Y455500D02*Y453250D01*
X333950Y452500D01*
X330950D02*X332450D01*
X333200Y453250D01*
X335750Y455500D02*Y453250D01*
X336500Y452500D01*
X337250D01*
X338000Y453250D01*
Y455500D02*Y453250D01*
X338750Y452500D01*
X339500D01*
X340250Y453250D01*
Y455500D02*Y453250D01*
G54D83*X342050Y457000D02*Y456850D01*
G54D82*Y454750D02*Y452500D01*
X344300Y454750D02*Y452500D01*
Y454750D02*X345050Y455500D01*
X345800D01*
X346550Y454750D01*
Y452500D01*
X343550Y455500D02*X344300Y454750D01*
X350600Y455500D02*X351350Y454750D01*
X349100Y455500D02*X350600D01*
X348350Y454750D02*X349100Y455500D01*
X348350Y454750D02*Y453250D01*
X349100Y452500D01*
X350600D01*
X351350Y453250D01*
X348350Y451000D02*X349100Y450250D01*
X350600D01*
X351350Y451000D01*
Y455500D02*Y451000D01*
M02*
