G04 start of page 10 for group -4015 idx -4015 *
G04 Title: (unknown), toppaste *
G04 Creator: pcb 20140316 *
G04 CreationDate: Wed 29 Apr 2020 12:31:51 AM GMT UTC *
G04 For: railfan *
G04 Format: Gerber/RS-274X *
G04 PCB-Dimensions (mil): 6000.00 4000.00 *
G04 PCB-Coordinate-Origin: lower left *
%MOIN*%
%FSLAX25Y25*%
%LNTOPPASTE*%
%ADD79R,0.0300X0.0300*%
%ADD78C,0.0600*%
%ADD77R,0.0550X0.0550*%
%ADD76R,0.0630X0.0630*%
%ADD75R,0.0512X0.0512*%
G54D75*X498607Y20457D02*X499393D01*
X498607Y27543D02*X499393D01*
G54D76*X525000Y17150D02*Y10851D01*
Y36835D02*Y30536D01*
G54D77*X327000Y327500D02*X329000D01*
X327000Y314500D02*X329000D01*
X145000Y327000D02*X147000D01*
X145000Y314000D02*X147000D01*
X509000Y328000D02*X511000D01*
X509000Y315000D02*X511000D01*
G54D75*X21457Y92393D02*Y91607D01*
X28543Y92393D02*Y91607D01*
X21457Y81893D02*Y81107D01*
X28543Y81893D02*Y81107D01*
Y70893D02*Y70107D01*
X21457Y70893D02*Y70107D01*
G54D78*X21600Y102500D03*
G54D79*X23100Y104000D02*Y101000D01*
G54D78*X28400Y102500D03*
G54D79*X26900Y104000D02*Y101000D01*
G54D75*X61457Y92393D02*Y91607D01*
X68543Y92393D02*Y91607D01*
X61457Y81893D02*Y81107D01*
X68543Y81893D02*Y81107D01*
Y70893D02*Y70107D01*
X61457Y70893D02*Y70107D01*
G54D78*X61600Y102500D03*
G54D79*X63100Y104000D02*Y101000D01*
G54D78*X68400Y102500D03*
G54D79*X66900Y104000D02*Y101000D01*
G54D75*X101457Y92393D02*Y91607D01*
X108543Y92393D02*Y91607D01*
Y70893D02*Y70107D01*
X101457Y70893D02*Y70107D01*
G54D78*X101600Y102500D03*
G54D79*X103100Y104000D02*Y101000D01*
G54D78*X108400Y102500D03*
G54D79*X106900Y104000D02*Y101000D01*
G54D75*X141457Y92393D02*Y91607D01*
X148543Y92393D02*Y91607D01*
X141457Y81893D02*Y81107D01*
X148543Y81893D02*Y81107D01*
Y70893D02*Y70107D01*
X141457Y70893D02*Y70107D01*
G54D78*X141600Y102500D03*
G54D79*X143100Y104000D02*Y101000D01*
G54D78*X148400Y102500D03*
G54D79*X146900Y104000D02*Y101000D01*
G54D75*X101457Y81893D02*Y81107D01*
X108543Y81893D02*Y81107D01*
X181457Y92393D02*Y91607D01*
X188543Y92393D02*Y91607D01*
Y70893D02*Y70107D01*
X181457Y70893D02*Y70107D01*
G54D78*X181600Y102500D03*
G54D79*X183100Y104000D02*Y101000D01*
G54D78*X188400Y102500D03*
G54D79*X186900Y104000D02*Y101000D01*
G54D75*X221457Y92393D02*Y91607D01*
X228543Y92393D02*Y91607D01*
X221457Y81893D02*Y81107D01*
X228543Y81893D02*Y81107D01*
Y70893D02*Y70107D01*
X221457Y70893D02*Y70107D01*
G54D78*X221600Y102500D03*
G54D79*X223100Y104000D02*Y101000D01*
G54D78*X228400Y102500D03*
G54D79*X226900Y104000D02*Y101000D01*
G54D75*X181457Y81893D02*Y81107D01*
X188543Y81893D02*Y81107D01*
G54D78*X511400Y229000D03*
G54D79*X509900Y230500D02*Y227500D01*
G54D78*X504600Y229000D03*
G54D79*X506100Y230500D02*Y227500D01*
G54D78*X511400Y243000D03*
G54D79*X509900Y244500D02*Y241500D01*
G54D78*X504600Y243000D03*
G54D79*X506100Y244500D02*Y241500D01*
G54D78*X511400Y271000D03*
G54D79*X509900Y272500D02*Y269500D01*
G54D78*X504600Y271000D03*
G54D79*X506100Y272500D02*Y269500D01*
G54D78*X511400Y257000D03*
G54D79*X509900Y258500D02*Y255500D01*
G54D78*X504600Y257000D03*
G54D79*X506100Y258500D02*Y255500D01*
G54D78*X88600Y229000D03*
G54D79*X90100Y230500D02*Y227500D01*
G54D78*X95400Y229000D03*
G54D79*X93900Y230500D02*Y227500D01*
G54D78*X88600Y243000D03*
G54D79*X90100Y244500D02*Y241500D01*
G54D78*X95400Y243000D03*
G54D79*X93900Y244500D02*Y241500D01*
G54D78*X88600Y271000D03*
G54D79*X90100Y272500D02*Y269500D01*
G54D78*X95400Y271000D03*
G54D79*X93900Y272500D02*Y269500D01*
G54D78*X88600Y257000D03*
G54D79*X90100Y258500D02*Y255500D01*
G54D78*X95400Y257000D03*
G54D79*X93900Y258500D02*Y255500D01*
G54D75*X468457Y38393D02*Y37607D01*
X475543Y38393D02*Y37607D01*
Y28893D02*Y28107D01*
X468457Y28893D02*Y28107D01*
G54D78*X338600Y12500D03*
G54D79*X340100Y14000D02*Y11000D01*
G54D78*X345400Y12500D03*
G54D79*X343900Y14000D02*Y11000D01*
G54D78*X338600Y40500D03*
G54D79*X340100Y42000D02*Y39000D01*
G54D78*X345400Y40500D03*
G54D79*X343900Y42000D02*Y39000D01*
G54D78*X338600Y54500D03*
G54D79*X340100Y56000D02*Y53000D01*
G54D78*X345400Y54500D03*
G54D79*X343900Y56000D02*Y53000D01*
G54D78*X338600Y26500D03*
G54D79*X340100Y28000D02*Y25000D01*
G54D78*X345400Y26500D03*
G54D79*X343900Y28000D02*Y25000D01*
M02*
