G04 start of page 7 for group -4062 idx -4062 *
G04 Title: (unknown), soldermask *
G04 Creator: pcb 20140316 *
G04 CreationDate: Wed 29 Apr 2020 12:31:51 AM GMT UTC *
G04 For: railfan *
G04 Format: Gerber/RS-274X *
G04 PCB-Dimensions (mil): 6000.00 4000.00 *
G04 PCB-Coordinate-Origin: lower left *
%MOIN*%
%FSLAX25Y25*%
%LNBOTTOMMASK*%
%ADD68C,0.0660*%
%ADD67C,0.0860*%
%ADD66C,0.0960*%
%ADD65C,0.0001*%
%ADD64C,0.1110*%
G54D64*X292000Y45856D03*
G54D65*G36*
X299200Y340800D02*Y331200D01*
X308800D01*
Y340800D01*
X299200D01*
G37*
G54D66*X304000Y306000D03*
X244000Y336000D03*
X224000D03*
X204000D03*
Y306000D03*
X224000D03*
X244000D03*
G54D65*G36*
X239200Y374800D02*Y365200D01*
X248800D01*
Y374800D01*
X239200D01*
G37*
G54D66*X224000Y370000D03*
X204000D03*
G54D65*G36*
X425700Y35300D02*Y26700D01*
X434300D01*
Y35300D01*
X425700D01*
G37*
G54D67*X450000Y31000D03*
G54D64*X300000Y32000D03*
X316000Y32000D03*
X308000Y45856D03*
X284000Y32000D03*
X292000Y18144D03*
X308000D03*
G54D65*G36*
X511700Y149800D02*Y143200D01*
X518300D01*
Y149800D01*
X511700D01*
G37*
G54D68*X525000Y56500D03*
X585000D03*
Y146500D03*
G54D64*X550000Y250000D03*
X542000Y263856D03*
X534000Y250000D03*
X542000Y236144D03*
X558000Y263856D03*
X558000Y236144D03*
X566000Y250000D03*
G54D65*G36*
X565200Y375300D02*Y365700D01*
X574800D01*
Y375300D01*
X565200D01*
G37*
G54D66*X550000Y370500D03*
X530000D03*
G54D65*G36*
X481200Y341300D02*Y331700D01*
X490800D01*
Y341300D01*
X481200D01*
G37*
G54D66*X486000Y306500D03*
X426000Y336500D03*
Y306500D03*
G54D65*G36*
X421200Y375300D02*Y365700D01*
X430800D01*
Y375300D01*
X421200D01*
G37*
G54D66*X406000Y336500D03*
X386000D03*
Y306500D03*
X406000D03*
Y370500D03*
X386000D03*
G54D64*X50000Y250000D03*
X58000Y263856D03*
X42000D03*
X34000Y250000D03*
X42000Y236144D03*
X58000D03*
X66000Y250000D03*
G54D65*G36*
X117200Y340300D02*Y330700D01*
X126800D01*
Y340300D01*
X117200D01*
G37*
G54D66*X122000Y305500D03*
X62000Y335500D03*
Y305500D03*
G54D65*G36*
X57200Y374300D02*Y364700D01*
X66800D01*
Y374300D01*
X57200D01*
G37*
G54D66*X42000Y335500D03*
X22000D03*
Y305500D03*
X42000D03*
Y369500D03*
X22000D03*
G54D65*G36*
X50700Y44300D02*Y35700D01*
X59300D01*
Y44300D01*
X50700D01*
G37*
G36*
X10700D02*Y35700D01*
X19300D01*
Y44300D01*
X10700D01*
G37*
G54D67*X35000Y40000D03*
X75000D03*
G54D65*G36*
X130700Y44300D02*Y35700D01*
X139300D01*
Y44300D01*
X130700D01*
G37*
G36*
X90700D02*Y35700D01*
X99300D01*
Y44300D01*
X90700D01*
G37*
G54D67*X115000Y40000D03*
X155000D03*
G54D65*G36*
X210700Y44300D02*Y35700D01*
X219300D01*
Y44300D01*
X210700D01*
G37*
G54D67*X235000Y40000D03*
G54D65*G36*
X170700Y44300D02*Y35700D01*
X179300D01*
Y44300D01*
X170700D01*
G37*
G54D67*X195000Y40000D03*
M02*
