M48
INCH
T53C0.020
T52C0.030
T51C0.048
T50C0.055
T49C0.052
T48C0.075
%
T53
X004500Y020500
X004500Y007050
X008500Y020000
X008500Y007050
X010300Y025700
X010300Y022900
X010300Y020000
X010850Y027100
X010850Y024300
X010850Y020500
X012500Y012000
X012500Y007050
X016500Y012500
X016500Y007050
X020500Y020500
X020500Y007050
X024500Y020000
X024500Y007050
X025500Y011000
X025500Y010550
X035300Y012500
X035300Y004050
X035300Y001250
X035850Y012000
X035850Y005450
X035850Y002650
X044550Y024650
X045000Y024650
X045450Y024650
X046050Y000950
X046250Y020500
X046250Y020000
X046600Y000950
X049150Y027100
X049150Y024300
X049700Y025700
X049700Y022900
T52
X051500Y014650
X052500Y005650
X058500Y014650
X058500Y005650
T51
X001500Y004000
X003500Y004000
X005500Y004000
X007500Y004000
X009500Y004000
X011500Y004000
X013500Y004000
X015500Y004000
X017500Y004000
X019500Y004000
X021500Y004000
X023500Y004000
X043000Y003100
X045000Y003100
T49
X002200Y033550
X002200Y030550
X004200Y033550
X004200Y030550
X006200Y033550
X006200Y030550
X012200Y033550
X012200Y030550
X020400Y033600
X020400Y030600
X022400Y033600
X022400Y030600
X024400Y033600
X024400Y030600
X030400Y033600
X030400Y030600
X038600Y033650
X038600Y030650
X040600Y033650
X040600Y030650
X042600Y033650
X042600Y030650
X048600Y033650
X048600Y030650
T50
X002200Y036950
X004200Y036950
X006200Y036950
X020400Y037000
X022400Y037000
X024400Y037000
X038600Y037050
X040600Y037050
X042600Y037050
X053000Y037050
X055000Y037050
X057000Y037050
T48
X003400Y025000
X004200Y026386
X004200Y023614
X005000Y025000
X005800Y026386
X005800Y023614
X006600Y025000
X028400Y003200
X029200Y004586
X029200Y001814
X030000Y003200
X030800Y004586
X030800Y001814
X031600Y003200
X053400Y025000
X054200Y026386
X054200Y023614
X055000Y025000
X055800Y026386
X055800Y023614
X056600Y025000
M30
