G04 start of page 9 for group -4078 idx -4078 *
G04 Title: (unknown), bottomsilk *
G04 Creator: pcb 20140316 *
G04 CreationDate: Wed 29 Apr 2020 12:31:51 AM GMT UTC *
G04 For: railfan *
G04 Format: Gerber/RS-274X *
G04 PCB-Dimensions (mil): 6000.00 4000.00 *
G04 PCB-Coordinate-Origin: lower left *
%MOIN*%
%FSLAX25Y25*%
%LNBOTTOMSILK*%
%ADD74C,0.0080*%
%ADD73C,0.0100*%
G54D73*X595000Y120500D02*Y176000D01*
X505000D01*
Y120500D01*
X595000D01*
X580000Y341500D02*X520000D01*
Y379000D01*
X580000D01*
Y341500D01*
X500Y399500D02*X599500D01*
Y500D01*
X500D01*
Y399500D01*
G54D74*X530519Y345701D02*Y352341D01*
X532677Y345701D02*X533839Y346863D01*
Y351179D01*
X532677Y352341D02*X533839Y351179D01*
X529689Y352341D02*X532677D01*
X529689Y345701D02*X532677D01*
X535831Y347361D02*Y352341D01*
Y347361D02*X536993Y345701D01*
X538819D01*
X539981Y347361D01*
Y352341D01*
X535831Y349021D02*X539981D01*
X541973Y345701D02*Y352341D01*
Y345701D02*X546123Y352341D01*
Y345701D02*Y352341D01*
X551435Y345701D02*X552265Y346531D01*
X548945Y345701D02*X551435D01*
X548115Y346531D02*X548945Y345701D01*
X548115Y346531D02*Y351511D01*
X548945Y352341D01*
X551435D01*
X552265Y351511D01*
Y349851D02*Y351511D01*
X551435Y349021D02*X552265Y349851D01*
X549775Y349021D02*X551435D01*
X554257Y348689D02*X556747D01*
X554257Y352341D02*X557577D01*
X554257Y345701D02*Y352341D01*
Y345701D02*X557577D01*
X559569D02*X562889D01*
X563719Y346531D01*
Y348191D01*
X562889Y349021D02*X563719Y348191D01*
X560399Y349021D02*X562889D01*
X560399Y345701D02*Y352341D01*
X561727Y349021D02*X563719Y352341D01*
X565711Y351511D02*Y352341D01*
Y345701D02*Y349851D01*
X567703Y351511D02*Y352341D01*
Y345701D02*Y349851D01*
X569695Y351511D02*Y352341D01*
Y345701D02*Y349851D01*
X523030Y356055D02*Y361815D01*
X526630Y356055D02*Y361815D01*
X523030Y358935D02*X526630D01*
X528358Y356055D02*X529798D01*
X529078D02*Y361815D01*
X528358D02*X529798D01*
X534406Y356055D02*X535126Y356775D01*
X532246Y356055D02*X534406D01*
X531526Y356775D02*X532246Y356055D01*
X531526Y356775D02*Y361095D01*
X532246Y361815D01*
X534406D01*
X535126Y361095D01*
Y359655D02*Y361095D01*
X534406Y358935D02*X535126Y359655D01*
X532966Y358935D02*X534406D01*
X536854Y356055D02*Y361815D01*
X540454Y356055D02*Y361815D01*
X536854Y358935D02*X540454D01*
X544774Y356055D02*X546214Y361815D01*
X547654Y356055D01*
X549382Y356775D02*Y361095D01*
Y356775D02*X550102Y356055D01*
X551542D01*
X552262Y356775D01*
Y361095D01*
X551542Y361815D02*X552262Y361095D01*
X550102Y361815D02*X551542D01*
X549382Y361095D02*X550102Y361815D01*
X553990Y356055D02*Y361815D01*
X556870D01*
X558598Y356055D02*X561478D01*
X560038D02*Y361815D01*
X563206Y357495D02*Y361815D01*
Y357495D02*X564214Y356055D01*
X565798D01*
X566806Y357495D01*
Y361815D01*
X563206Y358935D02*X566806D01*
X571414Y356055D02*X572134Y356775D01*
X569254Y356055D02*X571414D01*
X568534Y356775D02*X569254Y356055D01*
X568534Y356775D02*Y361095D01*
X569254Y361815D01*
X571414D01*
X572134Y361095D01*
Y359655D02*Y361095D01*
X571414Y358935D02*X572134Y359655D01*
X569974Y358935D02*X571414D01*
X573862Y358647D02*X576022D01*
X573862Y361815D02*X576742D01*
X573862Y356055D02*Y361815D01*
Y356055D02*X576742D01*
X532793Y154390D02*Y161030D01*
X534951Y154390D02*X536113Y155552D01*
Y159868D01*
X534951Y161030D02*X536113Y159868D01*
X531963Y161030D02*X534951D01*
X531963Y154390D02*X534951D01*
X538105Y156050D02*Y161030D01*
Y156050D02*X539267Y154390D01*
X541093D01*
X542255Y156050D01*
Y161030D01*
X538105Y157710D02*X542255D01*
X544247Y154390D02*Y161030D01*
Y154390D02*X548397Y161030D01*
Y154390D02*Y161030D01*
X553709Y154390D02*X554539Y155220D01*
X551219Y154390D02*X553709D01*
X550389Y155220D02*X551219Y154390D01*
X550389Y155220D02*Y160200D01*
X551219Y161030D01*
X553709D01*
X554539Y160200D01*
Y158540D02*Y160200D01*
X553709Y157710D02*X554539Y158540D01*
X552049Y157710D02*X553709D01*
X556531Y157378D02*X559021D01*
X556531Y161030D02*X559851D01*
X556531Y154390D02*Y161030D01*
Y154390D02*X559851D01*
X561843D02*X565163D01*
X565993Y155220D01*
Y156880D01*
X565163Y157710D02*X565993Y156880D01*
X562673Y157710D02*X565163D01*
X562673Y154390D02*Y161030D01*
X564001Y157710D02*X565993Y161030D01*
X567985Y160200D02*Y161030D01*
Y154390D02*Y158540D01*
X569977Y160200D02*Y161030D01*
Y154390D02*Y158540D01*
X571969Y160200D02*Y161030D01*
Y154390D02*Y158540D01*
X525303Y164744D02*Y170504D01*
X528903Y164744D02*Y170504D01*
X525303Y167624D02*X528903D01*
X530631Y164744D02*X532071D01*
X531351D02*Y170504D01*
X530631D02*X532071D01*
X536679Y164744D02*X537399Y165464D01*
X534519Y164744D02*X536679D01*
X533799Y165464D02*X534519Y164744D01*
X533799Y165464D02*Y169784D01*
X534519Y170504D01*
X536679D01*
X537399Y169784D01*
Y168344D02*Y169784D01*
X536679Y167624D02*X537399Y168344D01*
X535239Y167624D02*X536679D01*
X539127Y164744D02*Y170504D01*
X542727Y164744D02*Y170504D01*
X539127Y167624D02*X542727D01*
X547047Y164744D02*X548487Y170504D01*
X549927Y164744D01*
X551655Y165464D02*Y169784D01*
Y165464D02*X552375Y164744D01*
X553815D01*
X554535Y165464D01*
Y169784D01*
X553815Y170504D02*X554535Y169784D01*
X552375Y170504D02*X553815D01*
X551655Y169784D02*X552375Y170504D01*
X556263Y164744D02*Y170504D01*
X559143D01*
X560871Y164744D02*X563751D01*
X562311D02*Y170504D01*
X565479Y166184D02*Y170504D01*
Y166184D02*X566487Y164744D01*
X568071D01*
X569079Y166184D01*
Y170504D01*
X565479Y167624D02*X569079D01*
X573687Y164744D02*X574407Y165464D01*
X571527Y164744D02*X573687D01*
X570807Y165464D02*X571527Y164744D01*
X570807Y165464D02*Y169784D01*
X571527Y170504D01*
X573687D01*
X574407Y169784D01*
Y168344D02*Y169784D01*
X573687Y167624D02*X574407Y168344D01*
X572247Y167624D02*X573687D01*
X576135Y167336D02*X578295D01*
X576135Y170504D02*X579015D01*
X576135Y164744D02*Y170504D01*
Y164744D02*X579015D01*
X570242Y134833D02*Y141473D01*
X568084D02*X566922Y140311D01*
Y135995D02*Y140311D01*
X568084Y134833D02*X566922Y135995D01*
X568084Y134833D02*X571072D01*
X568084Y141473D02*X571072D01*
X564930Y134833D02*Y139813D01*
X563768Y141473D01*
X561942D02*X563768D01*
X561942D02*X560780Y139813D01*
Y134833D02*Y139813D01*
Y138153D02*X564930D01*
X558788Y134833D02*Y141473D01*
X554638Y134833D01*
Y141473D01*
X549326D02*X548496Y140643D01*
X549326Y141473D02*X551816D01*
X552646Y140643D02*X551816Y141473D01*
X552646Y135663D02*Y140643D01*
Y135663D02*X551816Y134833D01*
X549326D02*X551816D01*
X549326D02*X548496Y135663D01*
Y137323D01*
X549326Y138153D02*X548496Y137323D01*
X549326Y138153D02*X550986D01*
X544014Y138485D02*X546504D01*
X543184Y134833D02*X546504D01*
Y141473D01*
X543184D02*X546504D01*
X537872D02*X541192D01*
X537872D02*X537042Y140643D01*
Y138983D02*Y140643D01*
X537872Y138153D02*X537042Y138983D01*
X537872Y138153D02*X540362D01*
Y134833D02*Y141473D01*
X539034Y138153D02*X537042Y134833D01*
X535050D02*Y135663D01*
Y137323D02*Y141473D01*
X533058Y134833D02*Y135663D01*
Y137323D02*Y141473D01*
X531066Y134833D02*Y135663D01*
Y137323D02*Y141473D01*
X577731Y125360D02*Y131120D01*
X574131Y125360D02*Y131120D01*
Y128240D02*X577731D01*
X570963Y131120D02*X572403D01*
X571683Y125360D02*Y131120D01*
X570963Y125360D02*X572403D01*
X566355Y131120D02*X565635Y130400D01*
X566355Y131120D02*X568515D01*
X569235Y130400D02*X568515Y131120D01*
X569235Y126080D02*Y130400D01*
Y126080D02*X568515Y125360D01*
X566355D02*X568515D01*
X566355D02*X565635Y126080D01*
Y127520D01*
X566355Y128240D02*X565635Y127520D01*
X566355Y128240D02*X567795D01*
X563907Y125360D02*Y131120D01*
X560307Y125360D02*Y131120D01*
Y128240D02*X563907D01*
X555987Y131120D02*X554547Y125360D01*
X553107Y131120D01*
X551379Y126080D02*Y130400D01*
X550659Y131120D01*
X549219D02*X550659D01*
X549219D02*X548499Y130400D01*
Y126080D02*Y130400D01*
X549219Y125360D02*X548499Y126080D01*
X549219Y125360D02*X550659D01*
X551379Y126080D02*X550659Y125360D01*
X546771D02*Y131120D01*
X543891Y125360D02*X546771D01*
X539283Y131120D02*X542163D01*
X540723Y125360D02*Y131120D01*
X537555Y125360D02*Y129680D01*
X536547Y131120D01*
X534963D02*X536547D01*
X534963D02*X533955Y129680D01*
Y125360D02*Y129680D01*
Y128240D02*X537555D01*
X529347Y131120D02*X528627Y130400D01*
X529347Y131120D02*X531507D01*
X532227Y130400D02*X531507Y131120D01*
X532227Y126080D02*Y130400D01*
Y126080D02*X531507Y125360D01*
X529347D02*X531507D01*
X529347D02*X528627Y126080D01*
Y127520D01*
X529347Y128240D02*X528627Y127520D01*
X529347Y128240D02*X530787D01*
X524739Y128528D02*X526899D01*
X524019Y125360D02*X526899D01*
Y131120D01*
X524019D02*X526899D01*
G54D73*X287000Y54517D02*G75*G03X287000Y54517I13000J-22517D01*G01*
X537000Y272517D02*G75*G03X537000Y272517I13000J-22517D01*G01*
X37000Y272517D02*G75*G03X37000Y272517I13000J-22517D01*G01*
G54D74*X552000Y221000D02*X551500Y220500D01*
X552000Y221000D02*X553500D01*
X554000Y220500D02*X553500Y221000D01*
X554000Y219500D02*Y220500D01*
Y219500D02*X553500Y219000D01*
X552000D02*X553500D01*
X552000D02*X551500Y218500D01*
Y217500D02*Y218500D01*
X552000Y217000D02*X551500Y217500D01*
X552000Y217000D02*X553500D01*
X554000Y217500D02*X553500Y217000D01*
X550300Y219000D02*Y221000D01*
Y219000D02*X549800Y217000D01*
X548800Y219000D01*
X547800Y217000D01*
X547300Y219000D01*
Y221000D01*
X546100Y220200D02*X545300Y221000D01*
Y217000D02*Y221000D01*
X544600Y217000D02*X546100D01*
X52712Y221000D02*X52212Y220500D01*
X52712Y221000D02*X54212D01*
X54712Y220500D02*X54212Y221000D01*
X54712Y219500D02*Y220500D01*
Y219500D02*X54212Y219000D01*
X52712D02*X54212D01*
X52712D02*X52212Y218500D01*
Y217500D02*Y218500D01*
X52712Y217000D02*X52212Y217500D01*
X52712Y217000D02*X54212D01*
X54712Y217500D02*X54212Y217000D01*
X51012Y219000D02*Y221000D01*
Y219000D02*X50512Y217000D01*
X49512Y219000D01*
X48512Y217000D01*
X48012Y219000D01*
Y221000D01*
X46812Y220500D02*X46312Y221000D01*
X45312D02*X46312D01*
X45312D02*X44812Y220500D01*
X45312Y217000D02*X44812Y217500D01*
X45312Y217000D02*X46312D01*
X46812Y217500D02*X46312Y217000D01*
X45312Y219200D02*X46312D01*
X44812Y219700D02*Y220500D01*
Y217500D02*Y218700D01*
X45312Y219200D01*
X44812Y219700D02*X45312Y219200D01*
X303500Y64500D02*X303000Y64000D01*
X303500Y64500D02*X305000D01*
X305500Y64000D02*X305000Y64500D01*
X305500Y63000D02*Y64000D01*
Y63000D02*X305000Y62500D01*
X303500D02*X305000D01*
X303500D02*X303000Y62000D01*
Y61000D02*Y62000D01*
X303500Y60500D02*X303000Y61000D01*
X303500Y60500D02*X305000D01*
X305500Y61000D02*X305000Y60500D01*
X301800Y62500D02*Y64500D01*
Y62500D02*X301300Y60500D01*
X300300Y62500D01*
X299300Y60500D01*
X298800Y62500D01*
Y64500D01*
X297600Y64000D02*X297100Y64500D01*
X295600D02*X297100D01*
X295600D02*X295100Y64000D01*
Y63000D02*Y64000D01*
X297600Y60500D02*X295100Y63000D01*
Y60500D02*X297600D01*
M02*
